<mxfile host="65bd71144e">
    <diagram id="jppuqhWzS6p7eqyQ45C8" name="Page-1">
        <mxGraphModel dx="792" dy="455" grid="0" gridSize="10" guides="1" tooltips="1" connect="1" arrows="1" fold="1" page="1" pageScale="1" pageWidth="2339" pageHeight="3300" math="0" shadow="0">
            <root>
                <mxCell id="0"/>
                <mxCell id="1" parent="0"/>
                <mxCell id="40" value="" style="rounded=0;whiteSpace=wrap;html=1;strokeWidth=1;fontSize=14;" parent="1" vertex="1">
                    <mxGeometry x="704" y="67.5" width="635" height="365" as="geometry"/>
                </mxCell>
                <mxCell id="41" value="AWS Cloud" style="points=[[0,0],[0.25,0],[0.5,0],[0.75,0],[1,0],[1,0.25],[1,0.5],[1,0.75],[1,1],[0.75,1],[0.5,1],[0.25,1],[0,1],[0,0.75],[0,0.5],[0,0.25]];outlineConnect=0;gradientColor=none;html=1;whiteSpace=wrap;fontSize=12;fontStyle=0;container=1;pointerEvents=0;collapsible=0;recursiveResize=0;shape=mxgraph.aws4.group;grIcon=mxgraph.aws4.group_aws_cloud_alt;strokeColor=#232F3E;fillColor=none;verticalAlign=top;align=left;spacingLeft=30;fontColor=#232F3E;dashed=0;" vertex="1" parent="1">
                    <mxGeometry x="901" y="91" width="235" height="318" as="geometry"/>
                </mxCell>
                <mxCell id="42" value="" style="sketch=0;points=[[0,0,0],[0.25,0,0],[0.5,0,0],[0.75,0,0],[1,0,0],[0,1,0],[0.25,1,0],[0.5,1,0],[0.75,1,0],[1,1,0],[0,0.25,0],[0,0.5,0],[0,0.75,0],[1,0.25,0],[1,0.5,0],[1,0.75,0]];outlineConnect=0;fontColor=#232F3E;gradientColor=#945DF2;gradientDirection=north;fillColor=#5A30B5;strokeColor=#ffffff;dashed=0;verticalLabelPosition=bottom;verticalAlign=top;align=center;html=1;fontSize=12;fontStyle=0;aspect=fixed;shape=mxgraph.aws4.resourceIcon;resIcon=mxgraph.aws4.managed_streaming_for_kafka;" vertex="1" parent="41">
                    <mxGeometry x="81" y="32" width="78" height="78" as="geometry"/>
                </mxCell>
                <mxCell id="43" value="" style="fillColor=#EFF0F3;strokeColor=none;dashed=0;verticalAlign=top;fontStyle=0;fontColor=#232F3D;" vertex="1" parent="41">
                    <mxGeometry x="32.5" y="119" width="170" height="188" as="geometry"/>
                </mxCell>
                <mxCell id="26" value="Source Topic" style="shape=image;verticalLabelPosition=bottom;labelBackgroundColor=default;verticalAlign=top;imageAspect=0;image=data:image/png,iVBORw0KGgoAAAANSUhEUgAAAWMAAAByCAIAAAAJXSc8AAAAAXNSR0IArs4c6QAAAARnQU1BAACxjwv8YQUAAAAJcEhZcwAADsMAAA7DAcdvqGQAAAASdEVYdFNvZnR3YXJlAEdyZWVuc2hvdF5VCAUAAAkRSURBVHhe7dffi5xXHcfx0Yv+D4EuLF50WSIEKiU3RXrhVSFBlMUQZJdE1Fq8qtCiudEi1ZsK9SKFXMaWUA0oNL0J0pb6A/uDEqjN7pjIsiQX/TP8zJzJePLsJDnvm+ds4X14M92dfcJ8OeeZ10wn0+l0b3qrdPM//035oX5ytMqL5vHW3m4eD6/64hHKKy53Y7Dqy3LN4JlxWr7ofKL7Vv3XMSv3T5lhsOpr8lg/M1p50ZXjlZFy19UXj9Mjt6t0+JkxKyPNpFiuO9Mb+/N1cHuvS7em/16Mcm/lmQJHl6myIXl8kFzlmp7btWqwPJk/dZwqLUY5tMp+9potO3MEdyyvGy9WklFfs/x5zOrtmpQR84bMNO99Or3w2hu9unTl7d2DLzLMkrGsDJYnr777yeDicfr57/+Ux3c++Dibsxho/hFU7rnPbt999fK1+vox++XrVz68ebCY6d7K1uWAP7rx+a9evzq4foSyXSl7Up9g+bncYNnJwT8Zs3KOObj6bZnx8mvuvcHFo5WTynnF0MVA85HKR2bON6c8uH60co65wzNJ5kmT2Vjz711hYvK170xOnOvWE+e3fnJh/87dWrLc9xffuj45dmpyfHt4/Qhtnpm97uPP/uWv/1wMdE+K+PWNb/90srHTZ7C0uf3YU2dzk5W7qqxs1+wcM/Zmp6nS+tbTZ19a2ppbK4/59c1r70/W5vvZa8fWzmSGbFEZqawMlmlz7w0vHqcnz89O6uvfzTkuBrq3wkTOt+c5bm7nDl+e46QQm+17/pXL+fNXTv6wV189OTvLv/3jXzX5gWPj9AuTk8/lr4PrRyvbcvrHv15uWdmu2JHba3DlyOUtl0+kDFMGy8qQ+TTI8x23K+Uc8wGewWaqzj+Uco7P7LycN8bgyjHLq2eG5TmWlTkzbeft2tz+xW8v1YNl6/KRnucHV45cvjr88c/XC6z/l+LchYv9pdjYOSzF2rd+1FmKJ88fliI72P8gT5zLt9OBFLnn8nznW39jJ5IOpPjm917sLkX9ZaesmfibvWE9vkKKnGzf92PKl9Pc52UwpXh0SkFbIcX+vlI8qJzXaimO977BlAJ1dKU4vp37qb7D8rNSPKi8emaotytLKR6SUrCUgnY0pUirpdjYUYrD5U2nFCyloH3JpPA7xaqUAqcUNKVAKQVLKWhKQVOK9pQCpxQ0pUApBUspaEpBU4r2lAKnFDSlQCkFSyloSkFTivaUAqcUNKVAKQVLKWhKQVOK9pQCpxQ0pUApBUspaEpBU4r2lAKnFDSlQCkFSyloSkFTivaUAqcUNKVAKQVLKWhKQVOK9pQCpxQ0pUApBUspaEpBU4r2lAKnFDSlQCkFSyloSkFTivaUAqcUNKVAKQVLKWhKQVOK9pQCpxQ0pUApBUspaEpBU4r2lAKnFDSlQCkFSyloSkFTivaUAqcUNKVAKQVLKWhKQVOK9pQCpxQ0pUApBUspaEpBU4r2lAKnFDSlQCkFSyloSkFTivaUAqcUNKVAKQVLKWhKQVOK9pQCpxQ0pUApBUspaEpBU4r2lAKnFDSlQCkFSyloSkFTivaUAqcUNKVAKQVLKWhKQVOK9pQCpxQ0pUApBUspaEpBU4r2lAKnFDSlQCkFSyloSkFTivaUAqcUNKVAKQVLKWhKQVOK9pQCpxQ0pUApBUspaEpBU4r2lAKnFDSlQCkFSyloSkFTivaUAqcUNKVAKQVLKWhKQVOK9pQCpxQ0pUApBUspaEpBU4r2lAKnFDSlQCkFSyloSkFTivaUAqcUNKVAKQVLKWhKQVOK9pQCpxQ0pUApBUspaEpBU4r2lAKnFDSlQCkFSyloSkFTivaUAqcUNKVAKQVLKWhKQVOK9pQCpxQ0pUApBUspaEpBU4r2lAKnFDSlQCkFSyloSkFTivaUAqcUNKVAKQVLKWhKQVOK9pQCpxQ0pUApBUspaEpBU4r2lAKnFDSlQCkFSyloSkFTivaUAqcUNKVAKQVLKWhKQVOK9pQCpxQ0pUApBUspaEpBU4r2lAKnFDSlQCkFSyloSkFTivaUAqcUNKVAKQVLKWhKQVOK9pQCpxQ0pUApBUspaEpBU4r2lAKnFDSlQCkFSyloSkFTivaUAqcUNKVAKQVLKWhKQVOK9pQCpxQ0pUApBUspaEpBU4r2lAKnFDSlQCkFSyloSkFTivaUAqcUNKVAKQVLKWhKQVOK9pQCpxQ0pUApBUspaEpBU4r2lAKnFDSlQCkFbvLE+UiRG6vsV5ZSPKScV+6nDFMGy8qQR0qKHOXRkSKvvlqKjZ3ZX08+V188ZkdTinTUpSibVdaRkiJ7lZGU4pEdWSmePvtS/YbMUoqHpBQspaCtkOLOXaV4UBHhyyTF869c7j/Z2vc/uvF52ayycodtnH6h4ymmvPHO/Ox3y4Ms2zW7w9a3BleOXKh69fK1gRQXXnuj//94r51554OP75Nif/+ZnZe7S1H/X2RZmTPTzv7aUYrN7ZxaPVi2Lifb/6NofSv3eY4vI01mZ7m3m8cPbx6EkAwXL/q0duYHL/4mNJTNKitb9odrf58cOzW8eJxOnJttyOPP5n5aDDSXIju2e/BFPqDycTT8J+M0Hyzftj67fbeWIj/nHMNEn3PMVGl9q4Y1K1jk8eq7n+SIh/9kzI6dWn7TKYNl5ddM2+0c847b2HnsqbODD8isnOPs23TH9+P6Vv0VbJL7Pv/JWeapDBfJevXmtffDRLmrliu/ZsL3Pp0OLh6znGL9bixSZLBgcenK24OLRysvHSYGn5B5D5R3wsW3rg+uH63ZOVZTlbdlucH6nmNePZtTvkSX2bLyTAbLzIOLRysnlXnuTG8sBprvWHkX5Hw73mBlsExSTnAyn22xMm72MRuX7etS2aB65ZmMlB+6TJUNyWMGKJs1WJktf+25XfOdGayOU2W7yo4tRpmvbN0Ci73d8tdeZYDDO1bUGFw5Zjmp7E+N13KVo+xYvV0LKcpxZtxUfh6/jJXHMs/hVV85WmU3FhNUa3DN4JmRKyPVqzxZXzNOy/unjLFc5a/5ob6gPDlmZYDZQNXK+2E51fiVeQ77VV+w/LlXZaT7vlO4XC7XijWd/g9mi0214zd2CgAAAABJRU5ErkJggg==;fontSize=14;" parent="41" vertex="1">
                    <mxGeometry x="72.5" y="125" width="90" height="60" as="geometry"/>
                </mxCell>
                <mxCell id="28" value="Sink Topic" style="shape=image;verticalLabelPosition=bottom;labelBackgroundColor=default;verticalAlign=top;imageAspect=0;image=data:image/png,iVBORw0KGgoAAAANSUhEUgAAAWMAAAByCAIAAAAJXSc8AAAAAXNSR0IArs4c6QAAAARnQU1BAACxjwv8YQUAAAAJcEhZcwAADsMAAA7DAcdvqGQAAAASdEVYdFNvZnR3YXJlAEdyZWVuc2hvdF5VCAUAAAkRSURBVHhe7dffi5xXHcfx0Yv+D4EuLF50WSIEKiU3RXrhVSFBlMUQZJdE1Fq8qtCiudEi1ZsK9SKFXMaWUA0oNL0J0pb6A/uDEqjN7pjIsiQX/TP8zJzJePLsJDnvm+ds4X14M92dfcJ8OeeZ10wn0+l0b3qrdPM//035oX5ytMqL5vHW3m4eD6/64hHKKy53Y7Dqy3LN4JlxWr7ofKL7Vv3XMSv3T5lhsOpr8lg/M1p50ZXjlZFy19UXj9Mjt6t0+JkxKyPNpFiuO9Mb+/N1cHuvS7em/16Mcm/lmQJHl6myIXl8kFzlmp7btWqwPJk/dZwqLUY5tMp+9potO3MEdyyvGy9WklFfs/x5zOrtmpQR84bMNO99Or3w2hu9unTl7d2DLzLMkrGsDJYnr777yeDicfr57/+Ux3c++Dibsxho/hFU7rnPbt999fK1+vox++XrVz68ebCY6d7K1uWAP7rx+a9evzq4foSyXSl7Up9g+bncYNnJwT8Zs3KOObj6bZnx8mvuvcHFo5WTynnF0MVA85HKR2bON6c8uH60co65wzNJ5kmT2Vjz711hYvK170xOnOvWE+e3fnJh/87dWrLc9xffuj45dmpyfHt4/Qhtnpm97uPP/uWv/1wMdE+K+PWNb/90srHTZ7C0uf3YU2dzk5W7qqxs1+wcM/Zmp6nS+tbTZ19a2ppbK4/59c1r70/W5vvZa8fWzmSGbFEZqawMlmlz7w0vHqcnz89O6uvfzTkuBrq3wkTOt+c5bm7nDl+e46QQm+17/pXL+fNXTv6wV189OTvLv/3jXzX5gWPj9AuTk8/lr4PrRyvbcvrHv15uWdmu2JHba3DlyOUtl0+kDFMGy8qQ+TTI8x23K+Uc8wGewWaqzj+Uco7P7LycN8bgyjHLq2eG5TmWlTkzbeft2tz+xW8v1YNl6/KRnucHV45cvjr88c/XC6z/l+LchYv9pdjYOSzF2rd+1FmKJ88fliI72P8gT5zLt9OBFLnn8nznW39jJ5IOpPjm917sLkX9ZaesmfibvWE9vkKKnGzf92PKl9Pc52UwpXh0SkFbIcX+vlI8qJzXaimO977BlAJ1dKU4vp37qb7D8rNSPKi8emaotytLKR6SUrCUgnY0pUirpdjYUYrD5U2nFCyloH3JpPA7xaqUAqcUNKVAKQVLKWhKQVOK9pQCpxQ0pUApBUspaEpBU4r2lAKnFDSlQCkFSyloSkFTivaUAqcUNKVAKQVLKWhKQVOK9pQCpxQ0pUApBUspaEpBU4r2lAKnFDSlQCkFSyloSkFTivaUAqcUNKVAKQVLKWhKQVOK9pQCpxQ0pUApBUspaEpBU4r2lAKnFDSlQCkFSyloSkFTivaUAqcUNKVAKQVLKWhKQVOK9pQCpxQ0pUApBUspaEpBU4r2lAKnFDSlQCkFSyloSkFTivaUAqcUNKVAKQVLKWhKQVOK9pQCpxQ0pUApBUspaEpBU4r2lAKnFDSlQCkFSyloSkFTivaUAqcUNKVAKQVLKWhKQVOK9pQCpxQ0pUApBUspaEpBU4r2lAKnFDSlQCkFSyloSkFTivaUAqcUNKVAKQVLKWhKQVOK9pQCpxQ0pUApBUspaEpBU4r2lAKnFDSlQCkFSyloSkFTivaUAqcUNKVAKQVLKWhKQVOK9pQCpxQ0pUApBUspaEpBU4r2lAKnFDSlQCkFSyloSkFTivaUAqcUNKVAKQVLKWhKQVOK9pQCpxQ0pUApBUspaEpBU4r2lAKnFDSlQCkFSyloSkFTivaUAqcUNKVAKQVLKWhKQVOK9pQCpxQ0pUApBUspaEpBU4r2lAKnFDSlQCkFSyloSkFTivaUAqcUNKVAKQVLKWhKQVOK9pQCpxQ0pUApBUspaEpBU4r2lAKnFDSlQCkFSyloSkFTivaUAqcUNKVAKQVLKWhKQVOK9pQCpxQ0pUApBUspaEpBU4r2lAKnFDSlQCkFSyloSkFTivaUAqcUNKVAKQVLKWhKQVOK9pQCpxQ0pUApBUspaEpBU4r2lAKnFDSlQCkFSyloSkFTivaUAqcUNKVAKQVLKWhKQVOK9pQCpxQ0pUApBUspaEpBU4r2lAKnFDSlQCkFSyloSkFTivaUAqcUNKVAKQVLKWhKQVOK9pQCpxQ0pUApBUspaEpBU4r2lAKnFDSlQCkFSyloSkFTivaUAqcUNKVAKQVLKWhKQVOK9pQCpxQ0pUApBUspaEpBU4r2lAKnFDSlQCkFbvLE+UiRG6vsV5ZSPKScV+6nDFMGy8qQR0qKHOXRkSKvvlqKjZ3ZX08+V188ZkdTinTUpSibVdaRkiJ7lZGU4pEdWSmePvtS/YbMUoqHpBQspaCtkOLOXaV4UBHhyyTF869c7j/Z2vc/uvF52ayycodtnH6h4ymmvPHO/Ox3y4Ms2zW7w9a3BleOXKh69fK1gRQXXnuj//94r51554OP75Nif/+ZnZe7S1H/X2RZmTPTzv7aUYrN7ZxaPVi2Lifb/6NofSv3eY4vI01mZ7m3m8cPbx6EkAwXL/q0duYHL/4mNJTNKitb9odrf58cOzW8eJxOnJttyOPP5n5aDDSXIju2e/BFPqDycTT8J+M0Hyzftj67fbeWIj/nHMNEn3PMVGl9q4Y1K1jk8eq7n+SIh/9kzI6dWn7TKYNl5ddM2+0c847b2HnsqbODD8isnOPs23TH9+P6Vv0VbJL7Pv/JWeapDBfJevXmtffDRLmrliu/ZsL3Pp0OLh6znGL9bixSZLBgcenK24OLRysvHSYGn5B5D5R3wsW3rg+uH63ZOVZTlbdlucH6nmNePZtTvkSX2bLyTAbLzIOLRysnlXnuTG8sBprvWHkX5Hw73mBlsExSTnAyn22xMm72MRuX7etS2aB65ZmMlB+6TJUNyWMGKJs1WJktf+25XfOdGayOU2W7yo4tRpmvbN0Ci73d8tdeZYDDO1bUGFw5Zjmp7E+N13KVo+xYvV0LKcpxZtxUfh6/jJXHMs/hVV85WmU3FhNUa3DN4JmRKyPVqzxZXzNOy/unjLFc5a/5ob6gPDlmZYDZQNXK+2E51fiVeQ77VV+w/LlXZaT7vlO4XC7XijWd/g9mi0214zd2CgAAAABJRU5ErkJggg==;fontSize=14;" parent="41" vertex="1">
                    <mxGeometry x="72.5" y="218" width="90" height="60" as="geometry"/>
                </mxCell>
                <mxCell id="15" value="" style="rounded=0;whiteSpace=wrap;html=1;dashed=1;" parent="1" vertex="1">
                    <mxGeometry x="720" y="192" width="146" height="130" as="geometry"/>
                </mxCell>
                <mxCell id="13" value="Source Data Generator" style="shape=image;verticalLabelPosition=bottom;labelBackgroundColor=default;verticalAlign=top;imageAspect=0;image=data:image/png,iVBORw0KGgoAAAANSUhEUgAAANMAAADVCAYAAADNXsXEAAAY5UlEQVR4nO3df3wU9Z3H8ddMNpuELBBgo/wSRKHBCKKgRRB7VVp8WLWciCh6rW21ni3+wN6JJ3C1PqxQuNaqD7FqtfVHi1Ws1B/0Hlrh7IkCp0QQoUSU8BshG5KQDdlsdud7f0wCAXc3O7uT3Z2dz/Px4CEhM7PfXee93x/zne9oSinFCYLBID6f78R/FsJV4uUgEAhQUFBw9OdoNIrf70ePdRAJkhDxc9A5SJ1/jhkmIYR1EiYhbCJhEsKiaDQa82etqalJSR+pexlGhCNHQhxsaKa5uZ7DzQaHGxsxVCuNDc0AtLUeRqOV6h3h4/YdfLJOaYkHRRGFRb3oXVaKrhVR1rsIX2kPBvTzU1xcLP3cDEk0KKHFGs0T1gWDQT7f9QVbt1VzoLaRzdv2snHrZ6yr/gL2HoFgW/uW7Y0BX3sntthz/IE82vHthTYFnf8PhSLtL3j8tyO+AgqG9+PSM/2MOH0oY0YOxn/yAIYM6s+ZI4aj6ye8jrBVfX29hCkVwWCQjZ/uYn3VBt5Zu5nlqzZBzWHzl/4S0IBCDYo84NFB19r3NLC/Zd1+TKP9f2PEgNYIhJUZvPbQ+c8fwnemnMm5YyoZfebpjK4YaXM53E3ClCTDiLBuw8esereKx1/+O3tW74RiL5R5zcB4OwcmB3UErTlshizQCuVFzJwxjqnfnMDkC8bj9/uzW0aHkzB1YU1VFc+8uJInH3vL/IYvLwJfIXgLut7ZCUJRqGuBYBuVl1Qy7+bLuPSiifTp0yfbJXMc6TPFEAwG+d2fXuOOBX+CmiAMLIaeRdkuVvcLR6GpDQKtzJw1kdt+MI0JY8dmu1Q5r76+/ugMCAlTu0AgwLz/+j1PLl4B5SVQVpTbTbfuFIrCziCDJw3i2YU3cvGkr2e7RDktEAhImDo88PBTzJ/9BxjYA0q97g3RicJRqAkyasownv/1bM6uHJ3tEuWkjuFyV4fpvaotTJr+H2bzpp8XuYYdQ8fgxbYGbp5zGY8vuhWNkuyWKUe5LkyGEUHXPe210XMwoq/URMlqbAUdPvrbIqmlYnBdmACm3TSP5X9cB6f4JEhWGQq2HeKZpT/ihpkzs12anOKaMHXUSOdP/VfWrdkFfYuzXSRnq65nzoLpLLrn1myXJGe4ppOg6x6m3TSPdf+3W4Jkh4o+LJ77CncvfDTbJckZrgnTI08tZfnTa6C3C64ZZUpFbxbPfZlnX3gh2yXJCa5o5m3fc4DTT7kaKvqQ0veHoY5NxQFzMmqJJ39mQqSruo6PNi9x/aCEK8I07aZ5LH97ExRbPPnDUag5TMHZ/fm3GZMYUzEMgMChRpa+/nfWvVYNQ3tZP26+MRREDIztL6JRcrR/6jZ5H6ZjtVI/azvWhRg1diBPLpwVd1rNsVkTr8sQe12I++dPZf4dt2S7JFmT932mZX95C/pbvHFuZxN3/vhiNr35dML5aX6/nycW3cVfVy2CbYeOXeB0oz5F/Ofsl2ho2JftkmRN3ofpl39cafZvktXYys23X8KD992V9C6XXjSBN999yAyUW+ka+It49NnXsl2SrMnrZl44HKaoaEr7wEMSDAW6Irrlzym1+ectfJIFj/7FHbPMYzmh7+Q2eV0z7TlY3/43I7kd9jfzp0U3p9x5vue262DfkZT2zQu6BjVB1lb9I9slyYq8DpOKNFjbIRhlxtSLU349n8/HlTdeYN7C4FblRXxQtTXbpciKvA6T5ilLfuNwlPHfHpF282T6tybCkbauN8xXPQp5Z+3mbJciK/I6TJYYMGbk8LQP06dPX2iJ2FAgh/LqvLb+cwzDfZ+BhEnYS9eIbjiIpruvdpYwddDh/Q3pt/Xr6w9ZG4rPN4aCYneeVu5817F4dD55qwZFS1qHefYv70GPQpsK5VwyNO5muga+Al56dVXKhwgEArz1/GqZq+dSEqbOBpRy7R1PpNx5nvOLZ2CgrPntVhKmznQNWiP8y+0/s7zr0ldW8Ptfvebe2Q9CwvQlvYt44cX1XHfr/KR3WfrKCq6/apH1mekir0iYYulXzAvLq/Cccy0rVr0Td7Ptew4w7aZ5XH/VryRIIr8nupr3Ml0DFb2x/r1hgKHB/mbwFTLzqrGcf3YlADt272XZqo/NBfyHluX+wv2ZZCjYHUS1vJ3tkmSchCkZhoKwcWyaUKEmK7/G4+IwufjqogW6Zg53y5C3SED6TELYRMIkhE1cEKYkbwwUIk15HaaTykqzXQThInkdpmNc8jZFVslZJoRNJExC2ETCJIRNXHDRNgA7vdkuhHWhCIwok1kWDpLXYfL5fKxe/3K2i5ESX7GXcdfPJ9ockkA5RF6HCeCCsZXZLkLKoi2t2S6CsED6TELYRMIkhE0kTELYJO/7TCLHhKpRTZvQdBse0l06AsN7es48pTA3SgEYRuToKqDKkHXndN1DQUmROZqXT+rfQ9txoz1tIgN0HfCAKl+A1m8KlI6z4cCpyUqYNm75jM1bq/lw4xb+tnYrn3yyHw67bzndhCIKhvbMz2FxHXvC1HEMA7T9c2HvXPACA5+GAT+w4QWsyViY1lRVsezVlfz6N6ugthX6F5sfRpHHvAW81IEXVruTrjBvH5FubVI6AmoAu26EfTeihixDK5+esSJ0e5hWrHqHW+59mj2rd8PAHlBWBH1taC/nvTyskTKlPVTaZ1ejvpgEZyxH8/i7/WW7LUxrqqq48MbFRLcGYECP5B+FKYRdPKCFVsP6cjjzffBN6NaXs60N0bGkcDgc5rpb5zNx3Gyz8zy0J3hlIRKRRTqwaSJ88Vi3voxtNZOue9hUvZWzLpkDbRFZlFHkFg9QMwsVbkQbck+3vIRtNdOKVe9w1sibzQUZZb1tkYs8oO2d2201lC1hWvrKCi6f/FOzNsrHoVyRP7xAzSyoe8P2Q6cdphdflUXrhYMYmE2+z65ARQLmP9n0/N20wrSmqopr/1mCJBxIB21juflXm6YjpRymQCDAxHE/kSAJ54oAO6w/iyuelMN00fV3w7BethVEiIzTgQP3QajatsNZ9sDDT/FJ1T65fiScTwe17Sa7DmXN5zuqmT/7OegnU4JEftCCqyG4Ju3jWA7T9Xc8CMPK0n5hIXKGB1RN+rWTpTC9tbqKda9tk+adyDtacAs0r0/rGJbC9P25S2CEDDqIPOQBtWdxWodIOkxrqqrY926NzHAQeUtreOnohdxUJB2mO+97Aob5Un4h4RK6BiHnPhNLC7yU8r5JhWn7ngOse61a+kqia4ai4OyTbJuik1E6sHdWWrt36YU/vw79e6T8IsJFIgYVJ/fNmRWDLIuQ8kXcpMI0f8kb0FPWaBBJMKBicB9n1kwdGlamtFuXYVpTVQXbDsvAg0hOW4RTB5U5t2bSQdUuSXXXxFa9W2WuJCREMsKKMSMHx/+9lvvrAGpHtqQ0qtdlmO595m1p4onkhSKccsqABL8/mLmypEFrXGt5n4RhCgQCRDcclCaeSF4wythRX4n7a9X6D0csBaiaN1neJ+HbWvneOvDJcLhIkqEYeOEwevU6Kf424U8yV55U6UDjH1LaLa51VVugl6z7LZLU0MqPrjov4eCDFtqSwQKlTjuyxfKIZMIwPf/WZlm2WCSvtoWZUy+K//tQtXkdxwkM0MOfW9olbpgULQTW7pL+kkhOOMqoKadz+qkVcTdRTZsc0V8CzImvTdb6TXHr40+qd6ZdHuEiNUEefu4nibdpfNc5YQJo2WZp87hvbdPmz2XwQSQnHGXghcO4eNLXE26mNT6SoQLZpGWDpc3jhmn77t3gk8EHkYSaw6x4fHbibZrXQzgzxbGLFrQ2gzxumKo27TafnSREInuD3P/QtZxdOTrhZmr/czn0nMokRawtUBn37X1QvctcN1yImAxoamP8xacx97bE6ycYRgS93mFNPDBXf7Ugblr2bA20P71OiBjCioKTerHm1Ye6nNSqH3jO8onpRDHDFAwGIdAChgyLixiaWino3YPA/zyIRknX2++z6YHQOS7mWwyFcn9mr8iSvUHGn3sKbR/9nrKygV1v/8VjzrlQm6aYYdpfFzB/JRdsRYdwFKrruf/nV7H21SeSqpFUJAA7Z7miVoI4AxCHmw0odsknIBIzFGw7zKgpw1j634sZXTEy6V3Vp9eiueg0ihmmhoaD4JFayZ0Ms68cNmBnEP/5Q3jm8dlcdnHiC7Jf8sVj6E0rXVMrQZwwBZuaM10OkW2GguYwHApDKMLMWZO47QfTmDB2rPVj1b1hPp3PadeV0hTz7UajQLHLPolEjE6XCCKGs4d5dczyt0YgqqCpDUIRGFHGnTddxDe/PokLzxuNz5fiGonBNfDpFa4LEsR5y5HW2kyXI3eEotDcBsH2k8xXCOUlDB7UG0PzMnZIEkPBOa5nWRmnDOrPmIphDD11GBVDTsLv96d/4Lo34DN3Bglc+7ZP0NQK+0LgK+DKa77K9G9NZNipAxgxZAh9+zp4pZ0MUrsWmk8yd/FHFfOtV+8Ig9cFAxB1IQi0cudPL+XqqZNT6x+4XagatW0a2pEtrg4SuPLtG9BoNuMe/vX3ueW70/F65W7irhhG5LgaWkUCsON+tLpHzOFvF43axRM/TE7uZMdjKNjWyJwF01l49y3SfLPg6GfVvB61/zm0ukfMAEmIjop5Ng0+WYdInk1ybWqFnoV8vPVxSxce3U5FAuYack0fQt19EAbNg4Qohphh6lFSmulydK+6EOMnDuH95Utsq41UJIDWuhNC+1FGfsxl1CKHUW0HIPwFtFShhVejhTm+BpLKPK78/2j2Bpl5w3iWPvrzlA+haEELbkAdegca/4oWWo0W4egJlk9DNRocX+vk/xlim5gfVWFRnjxq81AovSDVvYEKPI/WYN6+rHVc8NSRk0x8ScxTondZqXnRsp+DF+wPRxl1zkDLQVK0wK6H0A7MBYMvj1RJX0HEETNMulaU6XLYr+Yw/7v+WUu7qF0Lj4ZIah5hVcxTplfv3o5+LinVjbyx8mf06dMn7ibHXTdpXg9bzz3WD+pozglhQcxGS69SB7dlQlEuv76yy1sGOoKkdi2Ej8891hcSIkUxa6YB/WyY9JgtOxtY8ObipDZV276HFnhWmnTCFjFPo759y9r/5rCv61CUK2+8MKmLsqr6GnOUToIkbBIzKbrugaE+561OtDPIfXd9p8vN1Gd3mEFy0PeEyA5Nb0t627in06iKclsKkzHhKIMnDeqyVlK1Lx+bVyZEIh5QRvJLhMc9pUaPGGCuA+AUTW388t+vTbiJigTQtl8tQRJJUcWVlqafxT2tzj+7Eo4kX8VlXaCFKV+bmHAT9em1EiSRvOLzLG0e99Q6ubw3tDhk9cBwlMGTTkl4XYngGvTGlZkrk3A2A7SeX7W0S9wwjRxRAcFo2mXKiJYIs6+7MOEmqmaOjNwJawqHWNo8bpjOqhyEY6YBNISpHJngkSaharTg6syVRzifAZSOsLRL3DBplFBwdv/jl7nKVSGD80bHf+Pq4CvSVxLWeIHi+M/njSXhKfbdyec6Y0Svf3HCpaq02rkSJmGJ8s2wvE/CU+wbE88w15DLZeEoo84aEPfXKhJwzVMYhE0M0HpdYnm3hGE6c2SF+ZymXGa0XxOLQ2tcm8HCiLzR5wLLuyQM05jK4bn/kOi2CMMGxR91Uc2bpIknrPFgub8ESZxmV17zVXPJ4FzVpszVlOKx+Ph54XIG0O/elHbtMkzTvzUR6nK8qZeA1cfPC5czAL/1/hIkEaYpXxsPwdaUDp4RDhi5Fw7iBXwTUtq1yzD5/X4qLxllPobRiRx2S5bIIgNU+YKUd0/qNJt382VQ24JjZkS0M4z2MXFnFVtkiwEM/GHKuycVpm9P+Sdz6S+n3SwohAWq7ww0T+pLNiQVJp/Px8xZk8zHNDqN1EoiGRHQBs9J6xBJ9ybu/vH3YF8wrRcTIlcZvSdD6bi0jpF0mMZUDmfUlBHOHYgQIp4I6KctSfswlsa5nlw4C2oOp/2iQuQSVX57SjMeTmQpTBPGjmX8tyukdhJ5RZ32K1uOY/kKzG8X3wk1Dba8uBBZZQBnvG/bM7ssh2l0xUju/OkV0JjDsyKE6IoBqt/tKc92iCWluQG/mHcHlHiccReuECcyQPWYhDb8YVsPm1KYvF4vG954ELYdsrUwQnS7jscFjX7L9kOnPGttTOVwHv7tLVDdaGd5hOheHlBjatEoOTbdzCZpTQG9/abruHnOpbBXLuaKHNc+4VmNO3J0ypBdAw8d0p5P/cSiu8wbCOvy44njIg8ZYPScjHFOGxol3fYyttyc8MpTD3Dl1LFSQ4ncY4AasAC98m3ba6IT2XanzytPPcCcuVOhuk5G+UT2RcyF9xmzFW3IPbb3j2Kx9ba5Rffcyl9XLYL9zdAk16FEFrQ/l1gNX4Y2evPRaULdXStBN9yDeulFE2jav5yZV441a6lcXoxF5AfD/GOUToavvA7jFFr59IzURp11yw3dPp+PpY/+nA2bf8eUr40yQ9XYKs0/qwz5E/dPRw1UdgPqtGWocbXolW9Dv8uPfnyZqI0669ZXG1M5nDefW8D2BQd44c+vM/83r0N1g7kWn68QijzgTTPPoTxdrlUHTnsdZcgoqRYx71RQnl5oejEUD0AVDUXz+Ol877dhRDIeoM40pVRGq4vtew7wwfoP+WzHfjZv28Hf1u9J63iB+kaeuXcGN8yc+aXfGUYE/YNCZy6oogPjpCZ3koyHKZMkTCKTnHiaCZGTJExC2ETCJIRNJExC2EQemZyrDGC9Qxf9NIDKD9NeOstpJEy5zKkLaObppb+uSDNPCJtImISwiYRJCJtImISwiYRJCJtImISwiYRJCJtImISwiYRJCJtImNyq4/ZvMM8C/YR/E5bJdCI3MoCT74XyK46bP6doQQtuQO19CK3hJfmqtUjutHWT9qc/cMbyrp8q3rwetp6bWk0VAc5y30RXOc3con2JYG30u10HCaB0HGrckdTPEBVOcUfnkjC5hQdzKawkGUYEjRLUmFrpRyVJwuQGBlDxvqVdOpbM0jx+1IAFEqgkSJjcwEN6j5sc+EPbipLP8jpMmt6W7SLkhn73prW75vGjelTaVJj8lddhEiZVOir9g5R8I/1j5Ln8D1P+v8PEDMwlhdOkefpIv6kLeX2qaZTk+TtMUvhg2odQbTvks+xC3n88RsnkbBch61TzxrSPoR1+NvmN8/6sii3v37bed5q7myc6aPWPpHeMULX1FYda69J7TQfK+zBRNtndYQJzGlHtyynvrnYvtH6mFA9I+fWcKv/DVFyB8rl8WFcHbcfVqEjA+r7BNWiHLDTx2qlS933m+R8mgP73mbWTO95tXNrGchQtye8QqobNEy1/bqpHpTn44zKuOL208unmLABp7qF90AOCa7redv/vYOPIY/c6WXkN/7+lWkJHy+tbMI4TXAObJsodXAARUL5J0P8OtJ6jUcVDANCat0DTOtg76+gzYy0zwDivLauPw8wW94QJUNu+Z7b/XVEfJ8E44e8dn0uqn48BDF0C/X+cVrGcylVhMowI+keF0tzrJqq4Em305mwXI2tc8x3d8SRuNaY220XJTwZwxt+zXYqsck2Yjrs/5xwJlK0iwJnvJ3cHbx5zTZg6OxqojhV5ROoiwOj307tfKk+4MkxgBso4pw2jp8yQSMs5WyVI7Vwbpo4+lF75Ngx5WgJlRQSM0smo845AcQWG4dJHBZ7AVaN5iahIAD6fhXboJbkWFU/78Lk6dZl5IVwAEAwG8fl87q2ZTqR5/GgVL8JZH6KKJ7n2uawxta/0qgYswBjXJkE6QSgUAqRmiq95PWrPYnNlU3BngzgCeEGVL4Ahs105364r9fX1RKNR/H6/hKkrKhJAC7xkTrEJY32umtO09x1V2Qw0/3eg3+XZLY9DBAIBCZMloWpoWImqXYJ2ZIt54jm9f9Vp4EX1vQHKLofyy6QWsqi+vl7ClCoVCaA1roWmD1FNy46FK935bd3lxHl4HlC9ZqD1ugR6jXHduuB2kzDZyDAi6C0bUUdq0Jo/wTiyGr1lZfyBjI6w2XmfldHpv51CrYoroeQbaKVjwHsSqvf5rp+tYLf6+nq0pqYm5fP5sl2WvGUYEfTw5xA5ZK6LED6IajuAZrSi2nag2vagRVuBQ2jhLUkdU3krgb6ogiK0wsFohaei9CK0wpPBexIU9QNPX1TxkLjNtY5rQ268VSIdHcPgJ5I+kxApCAQCFBQUHP25YzQv11r2riezCXJf5yB1/lnClGOk2eVcEiYhbBIzTMFgMNPlECLnxMtBNBqN+bNWW1urYnWmhBDxBxtibafH60wJIeIPNsTaTvpMQtgk6TDV19d3ZzmEyCo7zm9PNBr9Upswlmg0SiAQoLi4OOYVYCGcKBgMHr0fKRYr+Yg5AyLZTpcQ+cTKYEPSMyCS7XQFAgEZRheOEgwGCQRiPw3EymBDrJ/TutxeUFBAW1sb9fX1FBYW4vV68Xq96RxSCNuFw2HC4TBtbW1A941Y/z/03ZGqQmYKygAAAABJRU5ErkJggg==;fontSize=14;" parent="1" vertex="1">
                    <mxGeometry x="752" y="212" width="80" height="80" as="geometry"/>
                </mxCell>
                <mxCell id="16" value="&lt;b&gt;&lt;font style=&quot;font-size: 14px;&quot;&gt;LOOP&lt;/font&gt;&lt;/b&gt;" style="text;html=1;align=center;verticalAlign=middle;resizable=0;points=[];autosize=1;strokeColor=none;fillColor=none;" parent="1" vertex="1">
                    <mxGeometry x="718" y="169" width="58" height="29" as="geometry"/>
                </mxCell>
                <mxCell id="21" value="Flink App&#10;Read and Write Records " style="shape=image;verticalLabelPosition=bottom;labelBackgroundColor=default;verticalAlign=top;imageAspect=0;image=data:image/png,iVBORw0KGgoAAAANSUhEUgAAAWYAAAFmCAIAAADRRKdBAAAAAXNSR0IArs4c6QAAAARnQU1BAACxjwv8YQUAAAAJcEhZcwAADsMAAA7DAcdvqGQAAAASdEVYdFNvZnR3YXJlAEdyZWVuc2hvdF5VCAUAAP+HSURBVHhe7H0FWB1J2vX/7fetb3YsLjNxd3d3dw+BeAIJ7u7ubsEtWLAQIBBCsBA0uAaCO8SIzO7+b3XV7du3uRdIZjKbZDjPed6n6e7r3YdTVW+99f/+M4hBCMaOHTuG8GLUqFFKSkqNjY3kjEH8zjAoGYMQCJAGohP8cOnSpbCwsPb2dnJ2L1RVVT179oz8MYivBYOSMQgeNDc35+fnR0REbN++nWhDfxg/fvyGDRtOnjwpKytraWkZFBQEUnL8+HE4NGzYMEVFRXhO8uyD+PIxKBm/R7x48SI3Nzc0NNTCwkJcXHzfvn3Lli2bMGECloBPASEhIXd395aWFvIOBvHFYlAyfhcAgfDz81NWVj5w4MCUKVPIffzfwPLly+Xl5WNiYgZ7Q75QDErGVwi4G+/duwcO4vz586tWrSI36+eHsWPH7t27F9oyBQUF5K0P4rPHoGR8JYC7ztHRUVhY+NOZCF/X6yY6Z1Yun0n+/lUxadKka9euhYWFdXd3k480iM8Sg5LxZaO8vFxDQ2PGjBnkzvuUiAiQe93kDky7p3XkwCc0L1u2bNHX14fGFPmQg/icMCgZXySePXtmbW29fv16cpP1h5lTxu7eOEfm/AYbtYPRLhfi3S8zGed2ycf0lKnCXm2JHZo3tp/Ys3jc6GHkkQysXDADSwZmeY65sc6Ztatmk8OfAMuXL7e3t+/o6CAfexCfAQYl40tCSUmJjo7OQLonhg/97ujOhe4Gx3PDJN880f0IRjmdFzm0jDwdB0GekkzVwGyucHh4VyMuTDkmVOmWu4SLzRULxXXap749ve6vy6b9nTzyl+HMmTN37twh38Ig/qsYlIwvA9HR0Xv37iU3UJ+A+zzS8Rzr/v9olkTLnj3AFY4Fcyax9EIQe2rt38Yuf+fx/4CZOn9wvPBHofV/nTj6H+SJPgqTJ09WUVEpKysjX8og/hsYlIzPHa6urosXLyY3jWCsWjTZQfNwW7o6657/Vfgo8DotHH4uYix16IM9eaJvff+GhQPzttT/rZzxS63H0aNHBwdZ/lsYlIzPFO3t7fr6+hMnTiR3iWBsWT/3UYza6wZX9u1a5/y62u5NmdmbfD2WBHwcK2LlZS9svHhsVc9TW9Zr9cVqs7fBY5mqAfQR+yN5978AZ8+eHXQcvz0GJeOzA4iFtLT0sGF8OiBZGDtmhIeDKPsW5cce0I5CI5YE/BL2FBu/rnNhvYpA1jm8jZjBUo0Elf8dOZS0U8yE/rR1wd/w9ofiwoUL1dXV5LsbxKfHoGR8Rnj9+jU4ixEjRpC7oU+sXTW7PMe8tcrxTpCCq+0VXbUTQifWL5rPk5QxedLYzRvmnxfapK9xMiVWs6fGoafc4k2hAev+/2j2VNmw1UEwe6tGktr/4vcZrfB/8GeI5P9NHvORnR0SEhINDQ3kexzEp8SgZHwucHd3H/gsj9GjhylJH9y1rf8+DiZmTv/JTE8I3cD1Lj2VVm8K9FkS8DEsNundJuLPeqe3IeOYkgHUOfYneGMye/6M/6yz/p/1cz7SbgC0tLR6enrIF8rAixcvyNYgfjEGJeO/j8LCws2bN5Or/tfApIljwIMcObBK/OouLeVjQNFLO7ZvXoiPaiodpW/jnmr7nhJTtgp8KPP1e5450M/ZF6tN3/r+ndYLzM3z/jZnAs/Os+v/gt8qxpSxH2A9ZsyYER4eTr5ZDiwtLfX09Mgfg/hlGJSM/zJUVFTIxf4LAA2Q44dXG+ucuR+pyr5LGWyvds5I0GHtBPY03ux5avMLGyyvq+1YT8uXPYWyTHUAFhr9AT5CsfEfmDtFNnBVo8v5fxT2/5n8MTAcPHjw6dOn5Cv+z38iIyNh54ULF8jfg/gFGJSM/xry8/OXLl2KL/GPw8plM3RUj+c81Gfdlh/Nnqd2bwo+Xjh6KixZT8iXb++tYaoDUOXgn01O/4m5p9vlfxZOJmOx0FqBPdm6f9jwgW0WbW1t/FWDj8N7NDU18Z5BfDQGJeO/AxsbG3wRfwS2bJhvrn+2PMecdSv+SnTrqbSGtgZLDgbKEpPXjTd7PScv6+zf+g7hEQjn/ye84S/MPcBSkz/8OAI1SR7r/C+90/HCH0dxxlkGgpkzZ969e/fly5fk7yFDEhISyG8wiI/CoGT81nj16hWuWPWhGD7se5nLWyuSNHpKzeDOfFNiijbKzXvKLXoqrXqqbHqq7V/XOqKuzQY39l36oWy42VNhxZaDAbLIEB7OfkJevkk/TqsAJtgK1h5gisb/jh3+j1ApNJ5C86nFH3Yv/jC7ceLECbJFdXa8fv2a/BiD+HAMSsZviqqqqiVLlpCLd8CYNH6UnvSuljQ19s0pmD0FekhToKVQbY9yunrdtAMiqE+RMeuZB8RCUI0+h1EanN76f8sUAkHM1PnDfRWuy6Bpf/6PI374yBFZFRUV8nsM4sMxKBm/HcASjxkzhly2A8P8mT+56R9j35AfwXy9nlIT5EQ+XD5Ad9jPNgD2FBn29Ok13qQcZKnAh7Lc7A9rZ33kiOxgTbCPxqBk/EYwNTUlV+vAMH3yGC+jE6z78NdhgX5PmXkPGuAYcPul2o79JANhsfHrRsEvUW3OkoCPo86xDxtMwZCVlSU/zCA+EIOS8Vvg+vXr5FIdAKAZYq16kH37fQrm670B7agZUEoFnPYRc1V6Sk1Zz8Pkm6g5rPv/4+h3/YNnrIwePRr3aJSXl39cLZ/s7OykpKTW1lby9+8Gg5LxyXH27FlynfaH0SN/MFXY2/lYg3XjfXJS2vG633SsWsePUQ3BI69vMk6zbv6PZqTc/w37nnyNA4STk1NlZeXw4cMnT57MN2dUEDw9PefNm0eeZcgQcXFxcuD3gUHJ+ISA/2MHDx4kV1Z/2Ll+dmWcPOt++61ZYNBTYfW6XvB8M1CNJx+uGtX27OfBrDJg3fm/hPdVyIwVDCvhP9mf78t9jB07dty4cXjb0tKS/GZ9wsXFhW/NxD7Wf/r6MCgZnwovXrzYsmULuab6g43ab9ISGTB7io3RDHd+PRGohdLr/P6oJ6jb9V3AgMZNBkjPa1yN6HT6n+cu/4/80R9AO/oeeS0qKlqzZg05uxd+VyWOByXjkwCuvwEW5tywYnrxHZle99jnwXz9nkqr3kkWPVU27DP7ZZEhXwF6EzWXddv/QkrtRr2h2xaQuj4LOCmkU8b+Y9GUvkr7gIMgP14v2Nvbk5P4Yf/+/eS83wcGJeOTQEhIiFxQfcJIbg/71vosifojePMs0CT6Xqf1wzI+6apvHmyn7/Zfi3uW/M3mHEk/Xz2TjMI6XvhjlfkffhopMJVj9uzZ5Mfjhbu7OzlDACIiIsipvw8MSsavDy0tLXI1CcbGldOLPoG5QNkQJaZoHKQC5YO+rrZ//czxda0TahfUuyC/0Ptffb0ryhmttkMppKXmqEkiaFI83PPcbg63N4WG7BP6I3oh+nUpvskUoW/1T8FN85BkDP9hSLsjyi4tM/3DZmoPX3h6epKfkIOoqChyTACmTJlCTv3dYFAyfmX4+vqSq0kwTBX2su6ljyTc3uUWPVXWaO453Pm8d2NZtnnkLTljnTMXhbdt3bRk1Yp5C+bPmDZt0rixo/HbGDNm9IzpU5cuWbh1y4ajR/ZK3DhvqCvl6aJ5L9KsItsKhAbpSIUla6IaGjcFGQKjUef8wQMohYbMd4iepECaeYf/6jyw7K/wScW280xgyTf4Q437pQwbRfw90Bg/fnxnZyf5If/zn9ra2uHDh5NjFLZvZHdnWFhYkLN/NxiUjF8TKSkp5FISgFlTx6bfus6+kQbOQgOUhfXUlm9vYm2RTaCHpMyNvevXzB0xfCh5yY/FsGFD16xeKnR6r5aKkLfD1bQwuY5s7jvpKTLqAUH58K7Qnkpr5nvuKddk3sy/OsV3okn0rJn1wFc+C7qCzU5sWo4/LI2jR4+S3/I//9m9ezfZO2TIumUrSxwOvPPaoCvBnR80duzYly9fkrN/NxiUjF8NXV1dfS9ueO7Iio+pAF5oiKxEjb2gGaJFGSZ66idWr5hFXoaDkSNHTp06deHChWvXrt22bduKFStmz541/icyrPhxWLZ4utTlbcG2Io3Jqui9gQEpMeF5t/0yX5+nP7XagnUz/7pstP2fOCV6igq0Tf7nnTvwD2/d/9wdbHhb/Sr5YAyIiorCr+nh4UH+HjJkz7ptddan3nmtB6ZZHyN7f68ppIOS8avhypUr5FLqhXGjh4XaCrNvHsHsKdDrKTXreWrTV4pEk/ujeO0De5aPHjVs+9ZVyooSjo6OERERWVlZ9fX15D1h/Pvn96+K37TfoR/YUeMMQpMQqerret1c/6yU2J4tG+aPGcNjwvvF8oWTpc6tD7Y+25z6AfPlgD3ljOSuBif69v4kdAf+z1ssE25/eOeG4lu3/317839f+Il0BppOHDuKfB4GTExMJk2ahLfnTJ+Tpn7jueu2d15rgf7aXJcBXzX5hn9PGJSMXwcJCQnkOuqF2dPGVcQOLEerQB+NTdQ6ce8oASzLNr96YZuM+LGkhCDyDgTg/euS180+rIcLYnkO6v7Q1zgpdGL98qXTyQcYAHZtmOOmf2zgHoo5/sK+yX8pKSvh8QfQCA7/950b8P8w3978v3c3//j25h9fe63pumWqdGIn+QwCcEvmeqHe5XdeazDPHNqB98+fP598xb8zDErGrwBo0ApaSHnejB+fxiuwbhg28/UHlK/NoY3JOV2Nq53t/VXi//f7t533WY/9ILZXO4d4S105v23smAEVPQec3rcEfAf7A/YitzR5o2uve/7D+Bb5CBz/560bEPuIP4CP4PD/3roC/4j5xuWPb13+9MblTz03f+z0N8m1USZvnR/O7j6YrXn9meXRd14r33mteue1euRI8lWoq6uT7/l3hkHJ+BUgKSmJLyMWZk4Z++y+IutuYRK1PmoEJFPzY+EjYzsL2ca6Aa3386YjmvXwN23hb7tT3r8q+de75n///Jych/Hv9//+16t/ve+EQz/3VLx7kfmmI6anJYB+7P1IVXnJ/fPnErveN0aP/OHisZXx7pdZn5dLxtAJSwIGTNIrQYh8xP9Ci4PpIxCRTPyJ4p/futD8y1tn4F+7/HRANbYsnkPeNy+GDxueqHI9W0usw2n7O68VoBqxRvvIsSFD0tPTyVf3O8OgZPxS5ObmkouIF+PHjSiJlmXfKhTRcEOV7YfWznrblVhfW0petT+8e5EDD+lp8QPhePci+19vG0AUyLE+8a+39SArPS2+zJdmMjtJT0/9xOIFfXX00lg6b6KT9pGux5qsbwAI7a87gfLTpvw4/ce/V5mzRzT4kLdXgkOOj8Dkuok/gZWgiDTijTPwLxT/+saJ5t+6vUQ7fY1vivPPu5M8dipbSzRbU/S1B/iLZe+8lkuL7MKHhg8fTr6v3x8GJeOXYv/+/fgyYmLY0O8yg2+wbhKUf11u8RFFbt50xP77fRd5vYHh5ze1//7XB8zO/Pe/375/mdvTcov10n0wJVbzxpVdo0f1v6rbmJFD5S9tYk2666mw2rJhPj7BTIinVjCHuFeCYSUE9Eq8vYl9BNNN/IXQ+a8c/g004q3T399gOgL/8cL9MEhGo7vejyP5dP0mql7L1rpWoHvxnddSzAVzybDUqlWryBf3+8OgZPwiPHr0CF9DLARZCTFvD1RsRtBszj7Z0+z78+tPvuwo6EtP6y3kR54/fv+q8OfXFbAH7MbPPVXQinn/Mg98x5v26J4Wf9bbw/Rxub57+4CqEx7btSj25kXynRQaTJk8Fu+X3k2WPioz/cOeJX+ttfpDn24C+wjiJt5QVuKNQDeBlOKNI5DIRI/DP9444Djkhcu6Tm+jDm8j0/OH8TuhcWDjjmzNq9laVytMjr/zWvzOc3G7OzePS1hYmHx3vz8MSsYvAlw65CJiQFV0K0cs9NCAYp8DpX0QmYt//RaFbf/980AnYv775+fvXz550xbOeqvA8hxzTaWjP44bSb4FwVi9eEqU03n4fqZyJOPoqr9iHxEiiaainl3/N+wmKB9BaUR/vRKYoBFvKY1guIl/cDgENOKNwz8J7YHfvHKc3+ll3OllBHHqjzw1Fp1vIL0A1lvvfue1CPjAbA85NmSIgoIC+UZ+fxiUjI9HU1MTuYIY+GnscNR0LzDoqbTu6bc8v2C+f5lPXuazBKjMuxfZzP5RzLanToZapyaMJznpfWDlosmjRpAU1Ymj/4F9RJgUqcpXZsySCaabwD6CshLETVBWgjQ3mG5iSA+SiSE99sB/Uvymxw7zW+Bru4kdnkYdHkYQbS5xEy5GDB+J9ELzcrbW5Tb7Te+8FrzzXGApy+37NDAwIF/E7w+DkvHxsLS0JFcQAxIiG1ClCd4b6YPY0xr4r3dfTHk4aMK87YxnfYSOGmdLQ+HJk4iJGAiSVP4MGhElQxZJczj31169ErSbwD4CaQRyE5RAMHwEx01QPgITNOINpRFv7L7rwbT9nuLQTg/DTg8jYKEFd9m6/Ru3g1hgdrmsfuc1H3jx+FZyeMgQc3Nz8vl/fxiUjI8Hc3UMGopSB1j3zwfxTUf0v//1hrzAfxX/etv4/lXhu+7Utx1x77rTwPX8/KZGUJfqv39+8e55+utmL9bHsTe7MH3aRPLV9IntC/4OPiJWjkiG8Lq/MXslkpVBICg3we2V+HuPw99xrwRYCYaP+GePHZBjJWxpfvfa5rsem+9fY1r/gNlxU6PDzRDoLsYdN9E7L5KteSlb8yLEHveF7zznArdvWk0ODxmir69PPvnvD4OS8fHYt4/rVGlMnDC6NMuMdecMkHB/kqfmxb///fZfb+vfvy559/zx2857b9oje1pDelr8WA9/3ewNO3tabvW0Br9pu/2mPeJN+523nXFvu1OgEfH+VcnPb6r/9a4Fbm+4xclTC8bbrkT281N825X0r3fN5CQW/v3+57f1717kvO16ANoHZ/785llPs6+t6bnRo/sfWLm65e+xcqQKzqQxQ7CbACtRb4Z2Fuv2dhPcXglocbyxRz6CQ/ARtJX4HpSix+YHikN7rBFfWw/rsR722mpYl4t8x01D4JXt6/BLAyIUrmZrXQDmap9/5zn7ndecd16zZ83kZuv9nldCGZSMj4eCggK5gngxZcp4fZVjH7oA4vtXReR5KcD/8/evS+G+hfufdeavwp4W/zftUXBXg5r8/Lr8X2+b/v3zK/LaHPzcUy3o1UGSQBr6bkD96337m7YwfH5NgbXQif7LlM0ezy2B80SLNDruy6GdFqeQTPDrlaDdBJYJZCWwmwCNoKwECARFKyCSiddWw19bEnY5Xe9wNQDOmfAjft2xI0dna57HLNA7/c5z5jvPWRDxUQy+JYJ7enoKCgqSkpLKy8vJrq8Rg5Lx8SgrK6MnL/HFhjULzXXPDMR0/NxDlimH+xYNSbRHsE74zdjTGkRJSeK75xmoMdJTCd6HdQ6TIArQfvnX+w78/jH+9bbhbddD1pnAuDDlAeaPAvSPEivheu6f8KfENtI3kaL4TZE2s1eCdhPYR1BWgrgJZCV6rIeDRvSATCCOeG0JHEloMbLL4WKHi0GRCTdtfMOCpUgvtBCLDE6885rxzmtmnSO3pDjgyJEj5KNS8Pf337RpEzlGYc+ePeTYV4dByfhFaGxsfPjw4bNnz/CfnZ2dVVVV2dnZPj4+u3aRTEHAymUz9dRP8PcdzT7Y51P9iPfYR78gNnu/aQt/03GXT4uJlzqqA1qSduaPQ3CvhMJuJBk3tnyDeyU0D3xzZtU3HB/x/WtrumMC+wiOlbAEYisx4pXFiNcWOI58ZQ4cRWg2qsvuTLuTvsdVbkeGyPbd2ZoimMUGR955TgMW264ghynMmjUL/+IAaKSQvRyMGDHi0aNH5PBXh0HJ+ISora3V19dnOhHxq7ueFTJqzDR7g7f/+U0NbeB/J8x5qL9sSf8zZZX2gGR8t3chkgzJbSAZSCMOL/1m7PAhjF4J5CZAIzg+AmkEh8hHvLYYRWgOHP3KfPRr8zGvzMa8NkOx2+ZEh6O+6qGd+BUBWmdOIb3QQpJRanTonefUd15Tc2w3ksMc4OI6t27dIn8zkJycjC+ArxKDkvFb4ObNm3PmkLlPw4f9oCxzsKkMJYO+f1Xypj2SeS/9rqggsRd/J31gyxykFwDxrd9iKzF9HNrTbMTulUAagX0Ekgmmmxj9ygwTacQrU+BYiuNemYzrtjrU7qB/dCU3e9VH6mK2pjBmqdH+d56TgWk2XM+IERER0dHRMXYseyDZyMiI/OpfKQYl47eDubk5uayogZXo22bgMlh30e+Kbwu175ttmzKWiELfOLniW3ATdQZk5KVQHbsJbq8Ex02AiaCJ3cTYV5igEYQ/vjIB/gR8brm/w15//qTx+GkBqVqXsjXPZmudhVhqtO+d56R3XpPum3GTMjDWrFkjLS1N/uBg3Lhx5Mf+ejEoGb8pqqqqdu7kemDp63tYd9HA2VNt3VNlQfjUuqfGrqfWoaf+g+e8/dfYcPP9gys/J5xvD9x7dPl35BsRjPEj/wlWIvwaSRh9KD0c3MQrC06vBNdNUFaC1028NEGG4qXJj4jGwJ8ojn9pNL7bfF+7rR5+TsCkMT9lawpla56holCxwYF3nhOA94w2kDP6hKSkJPmlv14MSsZ/Afr6+uQSGzJk6eJpeansutt82VNpAf+W32XJv08V/TlB5OcE4V6Ry/fJou8ypN/mKsND3pQZg768bmSXIP/v8m2B9s8J5zDfRx1Q3vsD+UYEQ3Tj90KryMqrt68Mp3slOOQ0NzCRTHDchDEiaMQrSiZeGU14iTjxpeHEbvO9edry+DkBa+cuovSCsFDvyDvPn955jk804WZt9IG4uDjyG3+9GJSM/w6ioqJGjCD1ncaOGfEoQYd1R9F8U2H6LlP250S4tc7+HC/0cwIm3j7Lu92L8Tx/vn945V2G1Nsnqm9KDcCYsF7ot+SbCjO2xkUdchUZaO0vgPPp4QwfQZSCchPISoBMcKwEcROURlA0BCKxeGk46YXBpG6TPfflxciTDhlyaO2GbM3T2ZqncHyifeyd57h3nj+mWawlZ/SJ30PB8UHJ+K+hoKBgKqci+ejRw5JjNNj3Vanh+2Sw7lgjPgnfp4q9zVV8U6LXU82prPfp2VNh/vN9SgGROeLyfcyxBLkfRw9sNQWDA8MomcA+grISxE0gK/HKGKkDdhOvKDcBAkFoAJxMccpL/SndJntvXRMhTzpkyLV9+yi94FDr1DsPkIxxebbcbHFBmDFjBvlpv2oMSsZ/E6WlpfTi4yOG/xAfoUJuqmf279Ov/xx/+ueE0x8Yz/CLZwYY36dhBTHoqflUCvI2X4N4JX7xfdyJXK0p0wfQISq+aSijV+Inykdw3ATXR0x8YTARNALcxAuDyS/0aU55oQecCuwy2mcvxF1nQOMsKMVJJl+6TnrnObrSeSk5QzC2bdtGftevGoOS8V9GWloaueKo8df8NCO4Xd8/AK9OqcB/kYlnQbZAQd4W6fZUmfd8bNUPmm9K9CnTRCkUD0EvGDH+VKnexEmjviFfigCsm/4d1TfBaW6AleBxE9hHEDcBGvFSf+oL/akoIqWYRnH6C93p3UaHdQ5xlziyFTufrXmCyXaH2e88Rz1zWUDOEIyDBw+SH/WrxqBk/PcRERFBLrohQ5Yumv48/tLP8Sd/TjjJjO9j9r6P3PA+dMn74Hnvbs145z/pnc+4d94j33n88M7zB0YcSqLnsHc+o9E5fhPf+U99HzT3fejS9+Fr3kdtfX939/u4Iz8nnIKbc2AR/Avafv/g3PtH199my78t0HhTZtjz1KqnoZ8BGrBL0Op5lyn1831oeghyRuz4znd8vvbY8SP78RrMXgmquYHcBGgE8RGYlJUgMqELRDKBqAOc8VxnRpfhUYVd3AHUQLmL2ZrHmWywXvLOc0SJE7thcvIwO4f12LFj5Bf9qjEoGZ8FNDQ0yHUHzelzh3++D7foyff3Dr8PW/7u1tR3XsPfeX7/4QTt6B0Z9B37LmDK++D578NXv4/e8f4e6AglUn0RvTFWfP9A+P3D8+9TLr1Pu/Y+XYww7drP98E4IK3pj6AU3O33d7YjvfMcmq09ftTQvlTD7dQYjpuYQsh1E8hHvAQfgYlkYgbFmS90aM56oT2r0+Ck1Dbu9JB49QvZmseYfGq+9p3n8DADsnwJhsSZQw0BEmtWLCN/U9i7dy/5Ob9qDErG54KlS7mtZT9rqfchC955fPPO41t+8RfyO36RovfI94Ez3oeveh+z5+f4Ex9CcEO948cQOSOP7yn+kKYxYcT3AlVjxthvmb0SiLpA4iaeIx8BcQZyE9rAmRRnPdeiOfu55uxOA2HRjdzRkGyds9maR5ksMdj2zmOo5DluNs2c6dMrTBfX2a0/uJNnbu7mzZvJb/lVY1AyPhfk5eWRS2/IkPE/jmu/teKd5z/feYJGUJHPNmxwyNxmUtB+Lr/lFyl6D3sXOO19+Mr3Mbt/Tjj+ITzBL/JnU+ihJzd3JVhs8VNfa3FjmY7QjzrHv3G8+E2hMbyH74CJGvzXlMIw3DuG7pXgEGkEbSWurRkVf3kyKMUL7dlII7TmEGoC5wI79S9dXEcaHUN/GJqteYTFPJ0D4Mjmz5uNzwFE6Ryqs1pcZ7Xs8C6ekdfZs2eT3/KrxqBkfEbQ0dEhV9+QIdJnd7yNE0L3rcc/3nkM4Y2/kP/stc2Kveg97H3QjPeR697fO/hz/LGPZnPogXtmm8yvL7m0d/rq+TzleXtj0pghQuv/GXDjn5ZXF5Nd/PBEejLulQCB4FgJ4iZyJafBCcLLRoKboDQCyUS3xtznGhDnPdeY160+r11PVGglaV+M/3FCtubh3ixzWIhPAGxevYLSi0UgGTs3sxeOJz/kV41ByfiM0NnZOWwYt3pVkdfl1ymWb29DW/rvFEEvqIi3SfyFHMIv9sF/vgv4qd5rUUPQ9p8TjgrgMXr75d3DyTZbzG8sObl1yrTx/Rfm4ou+C3ptnDEU90ogH6E9G7uJF5SVkFiPVOnG2jGUoUAa8VxjPsUFz9URu9UXtOtLnV5BmoSzp83K1jxEyQSOhDay3NriN2V311ktBDbazF6znKzDQqOgoID8ll8vBiXj8wKz0tfJ3Yt7Ate+SHJ6nWTw5vY2dLt6/JXDvwmOvwr/zi9yWWj0d6erw9VP/aRzbrrOxfm6FxcAlc7MlTg66+LeaSe3Tt63dsKqef34iF8LVgd+Io0Oykp0U26iVnH2sO9QP0iw0BRwE93q8yku6FbDXIiourBNT+n0ciIZyxcsy9Y82Jv7t5EJJpPGj6+z31BnOR/Yaj9p8Xx2o8nLy4v8kF8vBiXj80JdXR25+ig8c5/z1mf0y8hrL1J9XqX7voqReR244a3P2Heef3nn8RdOBKXoHf/6a0RQit7xb3TscPqb29W/71/Krb73cRjxwz+m//iPlTOGbJo3ZBqpp/cBAGkokZnJ8RHETRjsJJNTm5XnE4FAXNStClxMqLK4TU/z5DIy833d0tXZmgd4eTBGkTuYqnhmc53VPMxu57FzZk4mBzgYnJY2iP8CLly4QC7AIUMs5La98/gT8I3vpBdRMi+SvV9lhLxI8X0Rb/nytsjrgFVvvUe/8/gzdQ4r/kKCGPWOAtnu+Fdv0b9J7Pr7vqV/nztRoIIM/2HI4mnfHFrxT8nd/zAT+lu4zN9y9f/a7QzyBE9CiRSHTy3++kD1b5e2kOrB/eLYopEgE1wrob5g6ig0O3bHrBEcmSBi0aUCSrGkS2UJxE6V9a06mieWEsnYsHxNtuZ+Xh64dugQPgrINVxSZzkX87XbDzOmsoun/x5yxgcl47NDbGwsuQCHDFm1fNE773+88/zjO48/Quzxn/siQv55gsvLFP9Xj8NfpgW+fOj7Mt7mZZRET8juHp+Zb72HUmeCajDjn35ZBL3oHf/cd2x2+EuJyV9SNf+SovGXAqO/PLP6c5cL6AJ9Dt5mRdo3cWO15V/ObRyQcISdnQ4+4jkIhNoir2NT8U7d7RO6VZE6UFyKqAxcRnF5p8quNpAMTnrFphVrszX3MZmjdXjsaJLRf2znxnqruXVWc+qsZtdbzwKTNWPqBHyIiZycHPJDfqUYlIzPEfQkV0CB6+p3Hv/LZI/frBdhUl2R5t2xji8SPV+mBr56FEbx9sv00JepwS8ferx8YP86weT1Pc3XsXI9d0V77lztibz4OvJCT8SZnvAjb8J2vAnbRrPn9q43t/f3hB3suX205/aJntunX98Wfn37fE/o+dchwq8DT77yO4Loi3n4le+hl557Xt7cSugKceOrm0t7bs7ucZv41n34WzSyQ8ncBxNEqnf8U7L6X6aSO1cgpo/+rouyEuAjVk4ik9seXJjTpbyUUAm4jOLyLkXEDtWjrVoap9aSup5bVoJk7GXS8MJJfAgQqrKxznIWZpv9T289/jx3Fp/l77W1tcmv+JViUDI+R+zdy61wpyOy+53HH3qzx3fqy+BT3eEG3REWXZFWz2OdXyR6v0wOfJV++1UaxVQOU0IRkxFf4vgw9GUShw9CXj4IfZkYgngfMxgxIfhlfPCLeCreoxjHYGwQYnTA80if7lD3Lj/HTg+LTheTdnv9Dnv9dju9DjutDnu5Lvtr3Y4nXzht7nGZ9dZ92DuP//sQgl5wY5HRH0cO7afT5MrKceAmos+S9dkBXZSbQBpBuKJLEbgSs11VpFVT49S6lfjk7avXsSRj4WwyJjJ31qw6KxCLmZjdLvBZ/rRm2Vx8lInVq1eTX/ErxaBkfI7Q0+PWiTq4aMFz6514YXS+7PGd/SJIuDtUt+u2GWKoWXeE7fO7Ls9j3Z/He79M9H+RFARKQQhiwdULEAuKHLF4QYnFiwSKlF4QEr0I4opFDOLzu4Ev7gZCRIwOfH6HYphPV4Brp6dth5Npu41eu7UuohWmepfthRcOG3tcf2QpID+CpeKJKgfJWmp94NC80T8N/xZvr540nHITKzoVVzTILNPeMrlLYWUn4qpOeeDqNlWxVg31U6tJesXutRuzNXfTtLjCtRj61/bWWU6n2eMGjab/O3WAfxGN+vp68kN+jRiUjM8R/v7+5OobMmTSqFFt+lqdJlffuMJ/NtI2Yd5InPiHt14jenyXvAw48jxItivErCvYrCvIFDEQsTvEqjvMrjvC8XmU6/O7Hs/jfF7EByA3wZAMQvAXlMXgcRksf0FJxou7mEg4XkQHvrhD+DyKYmTg84iALj/nDmdzIhmWuu0WQJ12c90OC7mX9pvfun3/zuN/BBA+FM92jCJaF37gOL5gLOUmVjXJrFw5cTjsybi0GJSiS35Np/yaLvm1rarKrerqJzmp+nvWbeJKhtbeWVO5bqXIcm2d1bQ6S8Qm6wnvPNFPoHJ1GznMi5s3b5If8mvEoGR8jmDOiAcUKsm26mq26Sk/t1nz1v2Pb9z/jxMJmdtkj8e3r32WvPA72XVLtfOWCWIARX+KfsadvhR9jDt8TLoCLDsDbbpDHLpvO3dHuD+/4/U8xv9FXCCvv6CUIjboeR/+AhOJxS2kFyjeeh6B2H3bt8vbqd3epM1cB9FMp81Um6JWl6XQK8cZcAe+dUfqwIlgoJjx/0GMkP0/8o0MDDNH/4DdxIE5JEMk5/LSTtk1nbJrgR1yu1pU1YDHFi3CR3es2ZCtuTNbcxdEbRHu2OqZPRvqLKfS7HQcCu8KaK/KZ4VNwIkTJ8gP+TViUDI+RxQVFZGrj0KAiFAbSIaOZquOZrvBjVcO09+6//mN+5/7iJhv3P+ENjy+7/Gc8cp77QufQ899r3T5qXb6mXT6ApFkdHpT9KLoaYRIrYTe4W7Y6QXiYtUV6NAdevN5hPeLO/4C/QWlGshfEMnApISDkozn4ZgBz4O8O12t25Fk6LSb6rSZaLebaLcZa3eYSb5ymA9u/637/76lIt5GUkK5Ktg+sOxv5BsZMIQX/bhvNtGLUd9/0ym7juL6Tpn17QpCrSpqwCMLSD44JRmgF7vS1faM/5E7GhKlvZMpGT1uf8KScUN4OzmDF6NGjSI/5NeIQcn4HPH06VNy9VHQ2bOrVVsDUYuipkankdArp7Fv3P7a4/ZXOmIyt9+4/YU3Eva4/fO1+8SXHsteeu567inc5SXT4YXEogOUghILRGo9dLzEMVq11IWis0GHqzHq6fS17w52ex7px2Mx6PYIw19wxQIYRvF2QHeQT4eTJegFiAWikRaioVan2eXXriPfuv/pjfsfayz/5HjhLwnKf74j/xcr4b+umzPQHA1BODJ3HChFh/QGzFZFiRYl1RZlrmRsXbU+S2M3UOrYYbwHsGjOrFqrWbUW0zCbbMYjUQP6j5w2ReCi9unp6eS3/OowKBm/BbZu3SoqKkr+GAAyMzPJpUdBbN3aVm3NNm1NWjIQNdS7jA+/chr3xu0fPW7/YMS/Q3xDRWp7oOzxGPfKfc4r97Uv3XY+dz/e7Xaxyw2tit6JJMOwwwVISYYTRUf9DkeDDgf9TheTLk+b7luuz8N9X1CS8YJYDJa/oMiRjOehQP9uH7d2c/12JBkUDZFqtBloPbdd98b9L2/d/xKj+LcFk35paikNz/3zO6U3dUhvouL2ViW1FiU1iAfmkWGRDcvWZGnsvad0aOgP3GktVjd21VrMpNnlOBQUDZjlvIWcwQ/6+vrkt/zqMCgZnxyVlZX4MpKRkSG7+kNYWDh+CMbhhQuxTLRoqINStKirt6qrt6hRVFXr0D/9wmbe65v/fH1zCCci9nA26G0B8R+8kZDefn1z8kvXFc9d93Q7n+90Umh31Ed0oGivh2in125L0d6w0926+5abYH/hD0pBGEIxyLfD0aqVEotWA6QXrfqarXqanWbHetz+Bmx3/Pvpdb+CakwZ+UOH1CZgu+SmDsnNbTJnWhRUMffNIWOlq+ctzlLfd2wrt5rOj+PGPbNb/cx8Fmad5fQ3N8Gm/RmoK8XNCu2Nr7gO6KBkfHKkpqaS62jIkFu3bpG9fcLB3oE8gMLKKZNpZ4FISUarmnqrKhBa4+otKmqtavKdhgde2M16ffPbvtmD4je88Zu+ohvZRkTbP7xynfXcZeNz52OdDtc77LWQZGDVsKFoDVG/86ZV9y13jmSw/QVXMoIRu7xvtpvqgV4g6mu16QE1O0wu97gO7XEbArwtPWTUwCqPC4L2hpkdklsQJbYCW+SkWuRVMbfPICMjS6fM8pc8gbcx5IV3PzOf88x8Lo7tduDp/obo8c+Z00mCqSCQ3/Krw6BkfHJkZGSQi2jIkOHDh1dUVJADgiElxbNy38SRI7FSIH+BzIUaiAXIBKIyRWiTAxURW1UkOw13vbCd+tr1+1ccvr5JRe72d7zxO0Hxda/t166gMrBBRbT9/UuXGd1OOzvtrrbbaOMUjDZLNJ7aZqHTYWvY6enYHeqHxALpBa/FoPQC2B3k333Lp93CGPQCLAaiLiLq63UeC4IFTNf85xg0TvoxGPrdNxVXN7aLb20X34Yosa9FVqVFTqWZilunz8SnzR43cfUibgmMYcOG5RmvfWY2D7PWYu4rVxBN5LxiTcjc1rVr1+zYvAZvs/C1dmcMSsYnB90wwTh69Cg5IBgzZ5KLmAbXWRBzoY57+1uVEXGbHOkFqAaYbeqfZ5vKjU6Dnc9t4EIf9urmME4c+pqKr24Opbb7izfx9g/UNh3589XNkS+cl3fbnWy3UuOkYOi2m+u0W+p1udlRYsFxGbyS8TyIYqB/h405+AtEXUQ0QqQv/dplFAgTKFSWzrc/jSRfyAfh0uLJHeLb28W3d4jvaL+xo03qEpIMDjdMRZV4euPG6QPPzBfWmC14Zr7gmdmCFrtJHJ/1rdBR0njJuiWpc51/doa5uTn5OQWgoaHB0NCws7OT/P2FYFAyPjlev35NLiIOEhISyDF+KCwsJOcxkC8lhZyFKuUsiLmgnAU2F7hZLq8CStEsx/n/KavSLKMMbJFVaFM722m45bn1rJcuw1+6Dh9YHIbjKxKH8UQQINY2TxzR7bCx3VKBpGDgLAwLvU43h97+AsSiO9CPZrulGbIYOtQIETVI1GFwCfQLZAuYov79MMHVQAUh9cxaUIr268Cdbdd3l4tJ1YjLN0srY66ayJ7DjpFtuqvGbFG12SIqLnyBPizyWaVOZBqb4rUDPf4z441X4T9Z6Ds7o66ubsECtNCBiooK2fWFYFAyfgtAewRfRhjLli0jB/jB2NiQnMdAmuh12lmAXjCdBUMyKFKSQf6Fyqi0SAOVW6SUm6WUWySVW6RlS2WPPJBYdk9pXpHzhtc+s1+6jHrpOoo3juRGV4gjqW3EV/hPxnavOIITRyDhsNvZbq7Ok4VhbQxtEFoyaH9B0Q/Yfcuv3dwY/AUaIcLjypoaXWZ7QbkwfUTJsqwDxOQRQ0Ep2q/vori75NLJhT/+lHj2Enwt6DuRVl4+YRI5lQGxE3uqzZbUmC2BCGyxmYKd16ubw8XOoLGSmdOndvgtBRVrd+bvfPqYCF9WVjZ9+nR8mrS0NNn7hWBQMn4LTJjAniUdHR1NjvGi59XL6ZN/IicxcO/GFb49F1x/wVEK5C9kkL/AtwSiJEUJJURxijcQbx8/cWntwuOrpnvcmNvkOPWFyxgORzPjS7RBiLf7jKA1OBI+d5rUaSWMUjDoLAwTnS5PV6wXyGUEclzGLYoBvt1+Pm36OrRetGqqt2qqPbebiZSLosTO/leKp3FszsQ2sd2IohD3rZ2EPEWlmAz1tShBnDGaXT1szOjR+RZ7n5ouqzZbBrHWYuELJILIf1W7kZ6Lu8Zb0B7kqoZvXMOzOgGNrq4u8rsycP/+/Z9+4v7EGhoa5MAXgkHJ+C3QWzJ27NhBjvHCQEOOnMGLSDPxdhNt5C9wNoGiWi9nocp1FsRcqIC5QP4CzAUlGS0SylzJuE5RTKngvPiNpWtGfv/DvsUzXC5NqbMe98IF+CMV++JL9vZY3jiWGbvttuAsTypxS7vNULvzpiPDYoC/8H9+yw/YHeD3PMCvy8ON5KGQoSKNdl3Rly5jMFvtx0wfN9DmifLqOW2ie9tF90IUXjAH9iz5aUKzhDL6NqjvZNi3bAGykBF+arYCs9pseZfTT2C4XgFvjr1wBC0Bf+3EOqa3Uhblpn4xkZycTH5XDpgTDjFsbW3JsS8Eg5LxW4BcHbzIy8sjhzlobm4ewduEoeGvd6U7wbrNSod2Fs2o50KF7rloppwFaZ/T5qKXs2i+rghsElNsFlNsEqV4TQFYfE5CZvm6Yd+hm+f4qnmh4nOeO/8kgD/yxoGy22YzTvFEWRhU/kWHsx3bXwD9CTvs7ZC/YOShdFlsfOE89oXzOIiulwY6fGK+aVHb1X1A1dXz8B7bHQeabyhSX4hi2RWewSnA6qVLqyw3V5muqjJZBbHFZgZyW85gncbEmO+HEzavmNFiP5raQ+hrdA4/lgUHBwfy01JdVBs2kHEWJkJDQ8kZXwgGJeOTo7a2llwdvFBSUiJncHDyJHe2NQuuKiLPE6y771l12OsTc8HHWUBjRAXEguks+EkGmAvFZlGK14AKzVcVmq4qNF9ReCJ0XWguWQFg8qhRKodXFBhPfe48kcMJvPGDOB5il80W8Bc4xRPlX+hrdTraooYJw1/QktHt59tuagL+gh4tatOUAZ16QSkXxNnj+1m3FcN5+/K2qwdMN5LPNXP0GOKw0LehFHlMGO+nEae2ucpkdZXpGoj1VouQQmEz5frTnCmjbxyc2WLH2cPhTT3u2vFM3LhxA37W169fKyoqkl29kJmZiX/9LwWDkvHJwcr+psHqHrO3tycH+MFc8gToRXccYoe7YSu4DEosUJ8F+Asec4Ha51yxoP6XUjcJ5SwoscDOAmQC8QrFy/JNlxWaLskD4w+fW/UTt0fw+Jo5j/RmdjtN7naaxBs/iBNx7LA8hLI89UmWJ0r0dHMBsUCkxYLSC0Rvr1YtLZKNoqrWqqrWYbodpKfbCcmQ1dkBjbiuGj9m7zRuw9Bn33HyPVDRePMucoCChbRIlcm6KpO1EGvMVnQjscPe6qeHamNTNcbQfzIpfoF/JuimTZuCg4OnTOFTvIvG8+fPyRXwhWBQMj45wsN5sr+ZoLN9YIPsEgAziePPsWTEWnXHWHWFmkELn9FtgZwFIhILqpUurtTCdRYUqZuEYS4UwVwgf3EF+QvQi2YsGRcpXpCXWYoa7TROrJueoQW3/bRup6kfyCm8cUq72XlsMXCWJ8QuLw/KX/g99+cIB5YMX99OBweSkEJlo7Spy1HvYfJz58mNNpOGfT8go0Fj7/Q55Bvg8Pgc7rJGp/ftqTLdVGWyocpk/VOzdZ2OUxgOSyCbnOePG/uRyy9MmzYNXwBfEAYl45NDTo5/jyZATU0NTmhsbJw6tZ/sY2vpU92xlt0xFO9adkdbdkeZtzvoo14M4iwoW8FthqC2ehPTWYiCs6D8BddccJ0FRynkgI3n5ZrOyzWekwvadfKnoTxdBqc3zy4xmtLlOL0/TuNEvpzVZihFUjypGf1thnpsf+GL2AXRx7dVV5eZkNJhtr3LcWqX01SIR9Z8wBIGI777PldIjHx84DWF6osyo77/AR9dNG9+kcWRSuONwKcm6zocplNmqg+CaUJRVKSvySZ9Y/fu3fgi+YIwKBmfHLNnc5fzXL+eZ+Hf1atXt7S0LOKUeOkDzrLXuu5aIbHAegG8YwEEu9FmrE21RKjGyMc5C4a5QKQko+mcXJOIXP4JsY0TeJIjx4wc7i69Am77XpzJG/tip/2yVj01nN+J6oBoa3Q6O/WWDEQf305HJ2ZOSpvWtS7HGV1OMyC6XmevV9YHzDftIZ+d6riBaLcVdWcCfhw3LsXwdKXxZuBTkw0dDrMoLyOIYJdQfOG3SeEatxJPv1g8f8GNwyccz4qNGzsW71FXVydXyZeDQcn4tCgpKcEXB4avtbLIMZ7G88KFXGPcBwLV5esC7bqiLbqjLbpALKIsuoCRFl0R5sBOTyM0hkLEAo2JYLFoosQC/p028+m5oJQCiwVSCspZUEoB/gLEolFYFvEsovQidpHLk3tWV1ku7HSYw+BsEh3xNkVHgbHDchdlMUiKZ5u+LlsswGX4+HR7+3Z5+7Rq6zJyUtQ6bZZ3Os4CljlsIm+oP+yZNpv01zDizFGoQTHhx/FxuqcqjLYCa8zAX4DkIT0SzOndrvNKb93YspH/7BIWNqxcZS8iVnhCuuGgJLD0hAw5MGRIVFQUuVC+HAxKxqeFhYUFuTooNIWIZjoIHBbpAwmmOpWejk3Btt13oEmCJKM7kmKEeXe4RVeYeXeYebu5Dh9/QcwF5S8oc4GdRfMlBV5nQRHEgtILRGGKZ2WBjUKyNuu465JiTBr/Y6jcgk6H+Z0O8zodqYjpOMA4t91IjGR5UnVAOp0cWZIBFgMkA9hp54Bn07RSOa9tBsc6HeeCNj0PPDRzel+dixiTh48sOStBPjUn6q1DNbW2LlqWbilWYbS93Gh7rcW6LsfZfRLUZHa3+0pLrRvM1XP54tDW7TcvSOSdJEpBM+o8VzLa2trIhfLlYFAyPi2WL19Oro4hQw7s2tzutKrdbsmxA9yKDANEnpNlhadDhYdDY6BNVyRyFl3hFMPMQC9wYfFOoI8x/Cumsy36chZILDg9F5SzaARnIUI5C2wuhCiekUE8jei8nth4Jgyu7+5wWNhhv6DdfgFETOY2lw4Q51Pb8/F2u816LBZUfqdGu5ERchYcf9Hlg/wFoZdPq7oWN+dVVbLDYR7wefDJceOIye8DvjuPESfFiWnHLo347nv9YycrLE+UGe0sN9pZa7EGVKzDYS4jgl1ixjmdrsuDLW7Mn0fyOwTh9K692WdkWUpB00DoMj4NGqTkKvmiMCgZnxA+Pj744sCwUTjRbr+8zW5ZqPFFsmtgGDN8eKWHA7DC3aHS3aHe3xrMBaUXIBYUQ5FkoKriqLC4aYejQYu8KpgL0AvUZ4GdBdIL9N+V4SygMcJyFrLgLEAvsLOgJIMiJRmNp2Rc1x8g74mBiyf3dLptardf3GG/GEUHKmKi7UUQO7hxETO2GV6mJIOkeHZ7e3P9BbIY0DBBktHt5dNuZsWcU9NuuwKkquXWGfImBGPXlFnkk0LEn/qC/LWlK8Ikj5Ub7y8z2l1utKvJBp6NEjUH8E0QKVFDBgrH+d0Bh3yNLq9awf0HwBfz58wNE2ZrBIvHduzGJysrK5ML5YvCoGR8KvT09EybxtNxWOJ4rM1uZZvdik7vI2PHjCZ7B4AN42eVW9mAXlS42VfcRKz1tqFXLUH+IsS0K9isMxgtQdAZSPGWSbutXrOEUq8xEUR6TAT5C3AWvD0XXH/BUYrGU9KNJ2UaT0o3npC2Xc1uoQC2bV5f7bK/3X5pu91SiG1UxNvgqlC0pyLa5qX1BkosSOmgTjs7MBcgFkgmOP4C0dOny9WdznxtkVdpM94HwlTozj/tkonHx66QT0rFhisST5VPlxnuxawy3t5iuxT0C6QNk9oG30RFh0VNHvtsVM7OnMF/gjwTqidFWOrQm+UnZOgWTUpKCrlWvigMSsangomJCb4yMHZtWtVmtwbYarca4pXT/OvZ88WVWasKj2qWG1uBWFRSkgGsdrftCLbgOAveVUtuUQww7fQ1aTfSRm0TXslA/2l5zAXlLyixaKKcRRPDWSAivZABvUA8Lq20iGfcB2PZ0kU1rgdBENvtV7TZLUfRnopom5C5TbNNXxyleFJZnqhtQvwFJvIXiCAZHt5t2gYcyVBt1RFpt1921+I8eXkBODtnMfmMIIsXpJ8qCZUZ7qdZaw7miNI1WtTsl3Tg6LA0z3Sd4pUjP47rb2XHIUMmTpgQ3p+5wLQ8ew0/5KeffiIXypeGQcn4JCgpKRk5kic30UP5UIvt2lbbtTje0vqATlDrZbuKD6oWHFQvUTWtcLWvcEEsd7Z/6mrXGmCOnAU2FwLWK+lwM4QbcqDOgmsupEEsGsBZnJRuOCHdcBwo1XBMuuGYVMNRqe0TyNxtJtavXVnnuKvNblWr7cpWu5UQwVWRiOwV7zYdzQ7Rs0jatLRJ5wWxGN5dnhQ9EDvMramaINTMGjVRkCdTGZ66e72RuP8c/oB1V66X6RwtNTiIWW64v9FqHTQSQcUYkdBDbtuOTavJU/SHXRs2FXNGQ/rlskUkb11MTAyuk4iICHzBfEEYlIxfH83NzayyWuPGjqm329Viu6HVdgNEYJVr/41wGsnbRGoOyoBkAIuljJBkONtXOGHa1Xta4fXQOrGzwHrhR5GzvlGnt3GHq0GrmjrXXNDO4izlLMBf9OksEI8hgl40HpUq3HdtAm+WF8au7VvaXXe12oKZ4pCzTTms3hF5rlZNFZLiqabe7eFF/AXVKkH+AkkGchmobcKZuduqJAvadP446Rfgi22TZqDPdVa2WvpiqcFhDg9VGu9vsYXXBd+HZItmrvUBWeEd43/s31bQuHHsdMPhgepFnAh3rCQhIUFDQwM2iouLyXXzhWBQMn5lvHr1avVq9j8oxXO7m202AVs4sc3jxJL5fBYB7o1JQ0fgC67ioCJWjaKLuuW21uVOdoiOduUOdtXO1u1+plxnwVgMDYmFl1Gnl1GHJ2K7vV6LtLJgZ4HFgjgLEAswFyAWyFlQ5gLxCMXDkr7r+M/4PnN4Z4vdxhbbdcDWviK4LU7Uu0zPIul0cmZ0YRB/Qeju3aqqjWfutsgqt9pvXLa4r1Qux/X74KNVyZ0r0T9Ks8p4L/UGViMtA+Fw2tLoI+yqenqzgJoXfcDi7FVaDgbCS/uP4AeOHz+err3W1NRELp0vBIOS8Svj0CE+6cNPTHY222zloe2O45ye875xauoCzjUnVXxABatG4UntMkOLCke7CgfEcnvbKkebJk/zLmIuTJBYcFdCM+r0pFZC8zDqdEdsM9VuviyP/gMjyRDsLxjmovEoUKoRiYVU42GphkNSjYekzk7jn7caoH2mxRZUg4et7G3wXJxoepSeRdJpbUt3YXR5+nRT/qKbIxntBmb0/N1q1746MoZ9+13VCYlqycsl+sc5PFZrDg4I9GJ9q936NucddwzPiJ49PHLkCPKYAWPM6DG3z0rQWjAQlh+TpouziYqKbt26FTZGjBhBrpsvB4OS8eugs7PTxcVl5cqV+JpgQvjQ9ibr3tx2afcpckafsF27l77s6g5KFx5AkoFZImcMYlFuB7RBtLWpcbJs9TJBzsKb6yw6PAzJGmj0AmiuBu3OqJ3SKMTfWSDycxaIhyhS7yd31yXyLnkxberkGrt9zTabKYKxYkZ+tNoK/gLPImm3sCL+gmkx3L273BA7rOzx/F2gv84V8nr8cGza/LrzN4p1TxTrnSzSg3ii1nxni82GZpsN93QPSAnvmzKZT/2+gWDmtOnpQjL0jzJAGnLSMQCgFHgDhINcQF8OBiXjFwGaIYGBgYcP87foGJkmR5usdzG4E0fpvZLkjD5RdP0C88p7elCelgxg0TmdMjNrpBq2tuU2NsAKa5sGV3PkLPAaq9SaieAs+C+YaKvXLKnM4yy45kIKnAXquSB6QfGQFPPNACVm81FJgOS5w5Sf2saIfbFFSxLPImk3tyT+gholYUlGl7M7XR9EnLHScm9YrdpVqn62SO9Usd6pIv1TdRa7Ksw261zYOnc2u3o7C9OmTGHe3ixsWrWmbMCdnTRLTsqMGjWKPAUDJiYm5Er6cjAoGR+JqKgoISGhfrOGRU/uabRicTfEeosj8rt0yUmCcWTP1kaDg6zrr/yAElM1Co5qlKqYgFiUWduUW9uUWVkDn9pZtt40Zq+u6krEAixGh7NBu5N+hxNa+qzNUKvxvBzqs2CMiXCcBVYKrrNgsWD3VfJee+GBqUiT9Q7KUuHYF1v0L+FZJO2m5mx/QesF8KZ3q6Imrg8yfy6qyicIaddvFOmdwXxmvidc++TU/mzFxAkTLEVEG4/Jih3iPxBzYudeOMr6BgZC8cP8B8i+uL5PwKBkfBiSk5OhITp69IASsUaPGplvfrzRan+j1T7euK9U30R0sxI5TzB8da42Wu1tOMfuZis/qMyjGlSfaJmpdbmVTbkVROtyS8Q6BzO0oqobZ11VtLQqZzVmsrQqWlcV0U6vRUG16YQM1W2BxkRALxg9FwIlA3h++hLydnlxbO+WJuvdvA5LIJuNz+BZJO0m5thf0P0XLMlo0zJskVZ+dEGUvAw/zB4/scREvEgPXMbZGrMjsqdRx0EfGDd2rP6Zi09BLg9K3hGWInt5IX7kZG+TNRBmnOEOlDCxZMkSclV9URiUjAGhvr7e0NBw7twBjXHQCFQXarA80GB5kIo8zFBJPrWyr6Y4AK7jVh+JBsv9DSqnWFchsOwAWzUKjmuWapmXWVqXWViXmVM0s660tGxxMkKdF5RS0M6CZ11VzgqJbcbaTZfkibnoUyaYTNrKroVHI8f6Aq/DEsTdTWZHcOX0dkNTHovBFQsv0IsuV682Q4tmKWXNbTvJa/DD5T17CvXOF+qKFBqd3r5+BdnLDyNGjNA4fb4cjBX1WZ4ekZo7i6y3yITBmUv05/1Q0hniLLi4uJDL64vCoGT0g5CQkP37+UzH6heqV040WB1psDzcm9WmYkmyjetn9jM5TUlUuNHmaIPloQarQw2nxVgXYj20kA+SARQmi6WNyrFkmHFoalVnY4acBXPddiQW+h32+twVVfGiqtZ68K8eNVIGLBnAOSP4zw2Tu3SCMlZ8yXZeeGUWcBkCJIOiq3eHpQNIxgoBS5xhuMldK9Q9X2h0YecWPomqNG4cOsHKwpI8wqdP2l34OvOcD+IdIf49ViNHjnz16hW5yL4oDEoGf+Tl5UlLS48Z85EF2k7u3VJvebze4iiiJTtmq0c+kG2aNKqfaQuFjuL1lkfqLY6gqCrEuhaBdQelig6qsSQDWCSkXaZjjsUC0QSxysyszcGAvWI7Fgu0/LIuXk4Vr6jaZqLddEGe9XJ9UGYu/8oRY8eOqbQE1QOf1ZvgtpjxQLOKQouiaoe5NRELtl54gcUAdtrfzLl4g7yAAORZKJcYi57cx3/pQ8DlA0d7T0sPP8dukowZPTpSpJ/OTtyc4cvqw5JLFvCvh/IldnxiDEoGD16+fOnm5rZuHU/Zyw/F9qWz6i1P1FmcgFjfKz4zvZIo0xly7Qk5WwAunTxUb32K0p3jKALPso0GkFINtmQACw9plCiZEr0wpmhkWWli0WqHOi+Qv7DTB7HoYC7XDgTJYKyl2iyhPMDW+51NAgeMXeRONFiC28IEk8WMFK3IRou6bKuiWoeVnQDJQBYDq4bqerRemSBsX7+p1NlY4/Ix8jcvdm7Y9IjfEOnjMzJjef9DzJ01O/1MX4Op+celxA6feCQksEP0xhH+vZ7z5s0jF9wXiEHJIMjKyrp+/TprJcSPwNpZP5UbHa8zP1VrfopEC57tTNWY+9KdmvtdyQMEIMlYos78ZJ3FSW7UEeLbUqg9IF10gI/XABZLGYJSEBpaIBqYN1oZMp1FG8dZ4LXaEfFCqqbaQGgpoK6NXi/am+R998LVk/vrrUBAwV4do+JRZsTE200aki0Kqp22joL8BaIL4rRe65sxoXP18kMvB/IHA6AIziL8mxglx6VZXRiX9h8pg9ZZrzNp2gmLLl+0OEtwXQyfcxLkuXrhC53DivF7lwywFS4uLsuWfXCyMF8smzau1BCkQYjJOguIZ6jtM1XG8vdluhNluo8s5Z8EhXFy+4l8nRvPzITrLOCBpyHWWaBYL8o/Q7n+oDTfFgqw+LIeRzIsywyAFmX6FnWmRpSzAMngOAtsLsx1gKAX1CqqIBloFdVWLU3UtdHrRVlcPpq9IhzGovnzGuwvIM9lQTkvwbFJUxxJhqNrH/4C9CJKXoU8tQA8tDHesI5defDc3oOCJo/B/pVLlpLz4EdctPiucF8qmXtKes/GzfPnzO3dtKGZfUaWNS+RRmBgILn4vkz8fiWjtrZWSUmJb4LNx2Hd7AnFBqefmQvDrV5LRcb2WRRNhdMU8+9LPwdOFNyRMXbs2CBJq2x1mUK967Xm8EDQGk40Eao/eYN1dWLWCVaNotPapVpmoBSIepjmNUYmWCzAVrRjZ8FcpZ27GKIWsFVHs/F0P/mOl2Zw7zoWSm2vcd0WbwTzRW8jyZBX7XL1YOiFF9tiOHueWcdnzTEac2bNsTfiWcRw9oyZYSICJSBZWGY6p7z7pIkTwTuwTmDRRvgaWNEVi5fQtTz5cvVS/v+EvtBREia+VMkoKirKyckhf3wg0tLSTp0aULL2wLFt/uQyI5CG88/Mz/NE8/O1aPscbORru2G9cD2bSh7GD1ZaimnKavekDPO0pMuNrj0zF6k1P1eLogja1uRJBmWy9qBMYS+9IDymWapmytELizJdc2CNoQllLsBZUP6CuT477/qpaHEzbU2UUd7rRWlaLRM46umvDLqJ3ZagCDZKqFFTolVFi6sXSDKwxeBKRqmpNXlSATi8/zDz34DIngOVgrsnPUTEcVN048rVVmevVR3t6wM+PiOzZTUyL7s3bO7jOYFSR09TL86GtbU1uQS/ZHx5kvH8+fPLl0k+b0lJCdk7MIAn/IVdm3xxaPnMGtOLNWYXOfECb7wAsdJINlGmFUvGhXWq5JG9sGXDugZXhVLDa4GXHXO1ZJ5oyTw1vQjqUwMCxIm11wX+J3x2UEaQ1yg8qlGqZFJKiUWpjnmptnmplnmdkSHXWXDNBeUsDKn1U0EsqPVTW/U0WzTU+2ihBK/n390IsBAXoj0XI57FEbuwZ+ZnGzUk2rQNOGLRy1+4eILFkNo90NJEP44b5ycicOZYzmkZmaOnj+/YbX72alaffZyYeqdJ7UWxQydYh1gUlGxuYGBArsIvHF+YZDx9+nQWo5sqKCiIHOgP3t7ezAf+iji1em6N2ZUa0ytUvMwbCatNRFMVyrBeAKeN5V9vFpokuS7a1EMuhVx1SFPWyNWSL9KThD+Bz6iIaHKp4YTAm6GPFkrBYY1SBWM0/qpNUQuxwUifj7NA5oK7ciq1ppkmWnZERQ1lefV6UeC9LULkY/SC5pVTHOeF3FaveA7HRnWpdmNLQf4CWGPlOOz778mT9ok9m7Y8OfnBM8f4MvEst6fDSOgK6yiLNsL8c1L19PTIhfjl40uSjKampunTeYpBPXjwgBwTjICAgAGuFfIRuLZlabXpNQav8kbCxyr3ab2wP32fPLgXgu1Ma8yu1aCHXImVMr0rYZ6rqZCjqVBlJAZ7QJXo+EzjGutiZRK8RqGAMZSCQxolcsbgLxA1zYBlmqYtRjocsUDOAosFOAu0ciolFpxlzdCaI82yyqyXw3y04wL5GL0gceYQMly08wLbRSIPG1RlO6zs2WKB9MIT92KoHx7QOkOm/d3YA6fC8bP4OaH9cusc+yiLLsLX8cks2NjYkGvxq8CXJBn79rFNaV1dHTnGD1FRUcw1AQaIRfPn6t04bCp9lPwtGJqHNlabXq82hfuZGdnMVo+g9QJ4cAn/sRJZSfHm2w41FuLVpqLANGXNW5duZmso52gq52vLw54aaj8mbNdJ9VWvoeaALFssaIJqKBqDvyjVNC/TNC/VMKvQNOY6C2wusL/Q0wJnwVjTjKw50nxNgfVywOI9pKplb4gc3IVsFyLlv7iRh03KCl1ObhzJwORajFJT62GcxRAFARoj8cK/jrkIOC81ewaZ8zp96tTks/08raAhVVdXV3I5fi34YiQDpJr8CAyQY72QkJDwoX0Wo0ePui60L9H4QKvdilKrzWP7W5jX6syupyY3EI2pKIA5GsFMvYgWbxr+PZ+xtzWrVrVEeTQF2tQ6qT81uQ4s0pX1Oef5UEEvW0MFWG4oTu0X40TExgt9zapkTZPn4VHNEmWTUnUzRDVTYJ2uPumz4CzIjpwFEguymhm9dEALVQ2c7wAK+TC9cHTHFmK4TLjOi2ebYrOKCh9/4UzRyfP8pn6mloERuC/yK+jF4zMy+zdz00Y3rlpd2Ge/LzDoPP+ZbEJCQuSK/IrwZUhGbW1t72nmEydOJIcZyM7O3rWLZwXDfrF763ovtROtdms5VSpXH93bV3IhwPjEjqcmklUmknTkyzyNIKZeAKW2mZOnYGD06NFPgt2agh2bghzqPY2fmkhg+l90vyNuk62hlq2hXqCjRO0E4eCy1ki67zyryoMKbLHgsPCkFiUWRDLKVE1bmauxc52FBr2aGV5qBBXpVFdvUVRjvVbpXoFTS8/u30k8lwmP/2KxVc+wl2RAewQ1SVLUecZN+cKmv/HRfvn0mLTiCdISwZA4cqrxaD8y5HBW4Af/CoZUe+PLkIwTJ/jUL5g/fz45TKG8vPz0af6DW3wxY/pU9WtH8sz3ofq9NutbbAl91PspWq13dEelsXRVf8xRD2PpBXDSqBnkWRjwN9Fuuu3WFOLaGOTUEGBXZSyFGS7qEHzZJVtdPVtdA2KZoWyVsSSLTSr8exZolrGKazBYJKwDYlGialqqalqiYvJMU5/jLCiCucD+grHOCK4Djut0siah9NGXcf3kIZb56sXrYNbazWx4xILqv8AWY+PcfhYo27JmLfPNfAQ9hG9Mm8Jdq3HM6DF+wuKsc3pT6aTAWbwA+AdGrs6vCF+AZGRkZJBfgBcjRox4/vw5nNDQ0CAmJkb2DgDH9m4N1z3ZbLOlBdN2c4vNZipuKrPa/dOPP5Lz+EHr8PYqY7lKYzlWxCTbRvKZagkssQDqHPAlz8KAg5JUY4Bjc5hnU6h7U8jNxiCXp+ZKVcYyVcay9yQtfc55Z6lrZ6trAQt0VKj9PKw1U+Lbs8Ak3wmvmEXX9EtVTBGhnaJs2qKjhZwFY51U3BihJIPyF5wKnWgRdgU1ZgJ73BaBNdNVLpxmmi9+lKjRl+lycmf1X1CS4eVwvp8qAYD7Iv1Uvqk7KJ13QAsiaz/w4VmZbWt5JryuXb4ip7/UNeCZ3f1MccYX8FeGL0Ayjh7l9kSeObR72lTuv4IDBw4oKfVfqAZj6NChQge3pRkeZhSD2gZsRnFrM+IWocN9NWrUD26vMFKoNFKAiIm3GVEeYoZyMkssMKeNZZfbcFSQgIfU+dg3hfk0hno2Brs3BLpW22pXGskBUxSMfES8kxWMs9S0gdnq2hXUfiarjOTazLUbT/V1fdcdlBKU4gX7S6SNSpRMMJ+p6TJ6LihnQZkLcBaIqmqIIBaofBZagb1RWI5+lcB1AjuMjcXOY+fFcWfgodix3lCVIxZkfAT7iypzu7HD+ynne2o7u3AZiyAWD/eb1h5kf0slx6VED7FHYTRPnWed1pvJZ2VAVsgDBGD16tXkCv668LlLRklJCfkFhgwROrS7wfKIpawI+XvAALEQO7UnRmVXoeEOqk4UJq4HtZPijmbrHQGaAjMLAGoHdlQYKfOjEo6VRsrlRmrpStkspcDs3Yvhoq5YYaRYaaRU7+vYHOHfFObbFOrdGOxRY29QifYrZqrp+Yj4xknaZKnpYRbrqeJDFEGkUKw312jT12Jd0yxWH5RjiQXNwuNapZReQCxTNGI4C27PBcdcoNqcoBetIBlUbYvmG0r0SzivFJhk5adwnePIoG0FGyhS21w2WRjz+guKTp7C6zeRZxEM172WCfstsw/olB/kvh9gxUEl2Bmz3y7tgDFzP+IRaYuz10aP4qmutnrZ8pT+6gA3HpdTPjmgK1BCQoJcxF8XPnfJuHGDVEaA9kKp2al6i2PJxgLbzHxxbM+WcOV9D9R2PNbe1UCVcmm02kuRpypUmeWhSRMnksf0gtTOzeWGqr1ZgaIKjmX6+inypSylwIwQezbyB54hGB9j/QpDlXJDZYj1/jebIgKbwvwbQ30bQ7yrHYwr0H7lfC0tkIxwMedMNX3MJ1o6SJ7gKIqUVBlCK0a1zUKnRV6VdXGzCLcTSyxoFl3VL1EwRpQ3rlfTxuYCrWCGzIUaiAWu/Y1rc3KXX6fWRqX7X9UWCJz6kWGiRgkccWGV3Mhlm50D0QuOvwAGicuSpxCM02vPhu53ZTL2gG30fju8HbnfseCABv0lYAack1i8YAF5PAfapy+yTuvNsHNSc3gXteoDX/r0M0H4rCWjs7OTno1uJXu+zuJkPdC2rw4nJtasWOope+SB6u4HaruTNXY/szjYYHWw0QrigUYuSYWoC8cF/pM8v2FNuaEGP6rTsVDHOUmuiaUUNPcu5L7nCRMmJPl4VBipV6AHqkFsCPFtjgppCg9suh3QGOJX42ReAfuN4JCaj4hf4CXPTDUjzCx1A2q/Km9UbTLTQuUt+iyKU39QsugAWqWxNwuPaKL8Lkoynirqc50Fo+cCF+bEa6+3cpdTVm3kVIs4Mpl/lcOxY8ZU28HbRi6MiqB03IhZZaLSCWJBJIP4ixpLh4l9TnIHjB4x1m+/Iy0WLD4+YMDTeXFY2uWsWO+aN6d378sRPIcd88kpGSF+PRczJs/QOKb401g+s3i/uDWNBojPWjIcHR3xtz9v7hxq/jjm6YkT+M+zpjF1ymRj0WP3VfYlquy7r7I3UWVvieFBqsLV4XpLmocaLA/VUxWiYg0EWs0jy5eWGWhR1OSNXGapRbM0gkmTo2HkuYYMWbF8eXF0VIWZXpmBBs3GyNCmyNDG8ODGsMD6EP9qRyvYWU4d8jvv63fe57GqcYaq8WM1FEv04BVBa9RxLKdijZEGmiFioNX3mOuzgwLzu4ou6oJqFINwyBmBsyB9Fkxngc0FUgrOqqjUqmVNF4lOzR7B//bevG5tpbk2uDAmKYfF3X5mZczyF8Dj1BywviG25QZLJjDBaFQe5OkVthG+Rqdm0QD5iBA8yZWmwZlL9L8uJs5vF7ot6eFxzZb8zcDChQvJRfzV4bOWjDVrSHk4C5kL1FRONJG81vzszBl81hCmcfHMiQfap+6rHLyvcoDi/kytQ6S2FalwdYwiVVYPlZk7smo5/4nbuxYuKDPQLTPQ4Y1M6qcrZbE0gsk7Nxom/0je7dEjR+qSH9S4OpYZaNOstDZrvhvVFBXeGHG7MTykITSo2tGGUiU4qnXroq+PSECGmkmGquljNVOIhbogN1rlhkjF6FhuoIVrWzRL9zPmWtqrNDnhEZRIXiKL2KiihRsjpOeCchYcvaCWRKVWRcXriTSLoe6Din38c6UB8udFKCPWF5ucHJn+AjiQUZKZE+eylAIYu9+m8IA6/XnLj0npn7rQu8k5Y9o027N9Jd1j3j4ntXAenzUcl85eYnNWL+SqTeg1W9UTfPI+xcXFyUX81eHzlYwnT0ipux/HjSujZnOiyUtm52qtBC5LA5ATvXhf7dh95UM0H6geqjE7zanOQFW4omq6cHjcSkB/6vrZs59oa5Xq65fq6/FGwiJdqxT5cpZGsLhhMZkSbm1k1JHxqCEstFRft9RAl441Xu5N0Xea7kQ2RoQ3hN+uDwmusrEs1QcxgqM6QZe9vUUC0pQtM1TNEVXM87SMSim1YsVGzoyyxj49du0BabZYcFh0Tb9YxghYo6DN4yy4YkE5C0osmqnFh0ChmiSQZIRtEJjMEqauzDJlLFYY67S7ezMtRrJa/yu8APR3aTPFIuWAceUBRfqTZp6Uljlyil6XjMa0KVOshPsXC7/zknzHRMaMGiO283LIFRtEkAxR+1P7DpJjDISFhZHr+KvD5ysZEhJEvOUvnqHncUK8qyewVKy65LX7yqAXwKM0Cw1AL1CJGk5dBpqngYVmInxzw5dOnZqrBTetYam+ESNymacZ8ECmnSUQLB5Yj1IV5s6emx4Z2fE4sy0pqczEpFTfoNTAgI5N0dHNd2MgNkZGNYaHN9y+XW5ujrQJjhroU5Jx66GibYYqqAZijoYZ7Ad3w4rPDPXwPJFWdfW+C3YKSu4qPKONBlyljZ7KoSLjeEyE6AXtLDjroaL1yqRVWqSUm6RU4Dn1F/PPlx07Zky5MbxDpGu9CDYKxaf21hyLgfTimaXjjB9/Io8XjM0Ld2ClCNvvnHbAqPogd7jX85z4rg18xlnmzJxpNQBn4XruxqL5/FeHPrrhiPcF85CrthSRZMTJmk+ZPJkcZuDly5fkOv7q8JlKRnd3N916TDa4wZmGgCZxKlziPxSqJS0ar3wCmKB8PF75OMQE5WMpaieemYkQMio1gIg8o6rsXT3NZ23EH0eMTFZSK9EzFsRHymksdejNc7vQvIPrl0WbsnM6s7I7HmdV2juV6BuV6BnRsdLBuTnuXmN0TGP03YaIqIbwyLrQsFIjkxI9wxJ9Q4iBl328hAMT5RweqVgjKls/VrNEhxANcAT9gliur0/XtmjqM7mr9qAAo3FIo1jKEJULldLncRa45wKcBW6JUCuVNUtRlFRCJYUPSm77iX9TUejIEaYvQ96KJyI2uroxuzB2LeK/kBILrvus7u63o7OzKo7JeAvfuH7oxITx48kZDGxfu76P2hmYhSekNU6eZyaAMrFm0Tr7CxbBV+xCEG0pUpKhxecf2P79+8l1/DXiM5UMKysr/O1vWLOaMUMUTeJcMJ9P7rDoOaF45TPxyqd4ebLMCJoz0Ki5wCFdtQHxni7/Nk7ANYliPbMSPTMcMfF2kY5dsnwFSx16U+aQ0cY1WzJiE7qeFHbl5ndm59XfjizRMy3RN2XGxsjo5rj7TTH3mqLjGiNBNe7UB4eV6INkmKCobxJ4yc9LOOiBnOMjFVvMDFUbfKhE35g3GrcYaJPaFjqaDX0WmOKzbBLFoiv6xVJGJZKGzbS5AFvBdBbIXCiDuQC9aJFUbpZQapJUKd8nMPXWRVmZ48uQtFGRh2XGJu0evrRkXN6ynTyyT0juPV95UKHyqFSYiJT6yXO4WFZvjBw58urBY0lC/UwquyMsdUZw5Z4FM5bontYKuepAiQWHlNF4IK9hJn2OnMeAk5MTuY6/RnyOklFSUkIvIGIpI8qZhYUmIyQZSOP9TBzYvSte7fw9RaF7SsAzHJ7O0BShqktcRtVuTKniNChyameZXdiwZhV5Cga0D50s1rVA1LMowhvUNsQ8Tf8k2UaWOvSm7YU7HjYez0vKuwtLuvKLunIL2lIflxhaFeuZM1nl5Nkc/6A5LrEpJr4x+l5DVExDeHSNVwBoE02/8wFIMmSd0pXtaRbrmVJHWdG0Tk+X1LbQ1WwW50lqYrFGwNBJkYhOsYRhsbhho6w61QyhlAKvtE6bC1AKSiwQxZUaJVVcVh8g310v5JpbIl8GioZcFY48PqvKzonu8tQ7PtApQkK79y9ftJj8wQ8Ht2z3EOFfJJVm2TFpaKcIWmcEMHfKfI0jyiFXnYKv2ANBKTguA2gbLmpeYyZ8cBef+bV912T40vHZSUZOTs4ExhhqronCUxPpKhOpp4iSWmKknhqNxQsXJmiK3lMSuacofE+J5tl4JeEKY2jLgDG5VoNJVa+pMbuKK2gFafLp5D+6Ym2RrnWxnnXv+Eg5lSUNfJmq1tyRXfmirOp5cUV3UVl3fklXXlGlo1exHkgGpiXEEgPrppjE5oSHzXEPmmLuN0bHN0TFNUTEVjnBmXACoZdIsJdw8EN5l3RlR4oOEItAv9BRSsgYrNYzQuUt8AxUTQ20omqv+4Rm8UE+ORqFp7SwZDTIatBjIqTbguq5QP5CUrlFAklGi7hS8w2lemn141P4zxnbuWlziT5YM/BTzMjrs5DFQJLhfrWf1Yz6xZjRY8AsuIncKD/RVwZn+QlZ+7Oi+zb1NVl5zpT5KkeUKLFw4BAkA6kG4VW7At0bFTcVyQMY2L17N7mUv1J8XpJx7949Zhf31o0bKo1kK41lK41kKo2B0mtX8nRiDxs2zE9VMk7hPKHiuTiFc1QUydC8hAtP0AUmqlEUrUa8BjoCTR7yLBwsmDQ1S92iUMeWxXytm8nyT1nS0JuJMh0Z6qmt6bndpVXPS6u6isBllHU+Ka6PuFeoA7pjU4SiNY7VPqHN91Ob4pKb4pIa7yY23rnfEBlfFxZbZuGCzqGYr2XtJRwCfCjvmqbkRLNQ16qIHyt0zZjlLZqu9tWjwX9e/BGN4hsGRTcMKsQpZ4HNRS9ngXhDsfm6YtN1xVpl/dHf8a9846Whg/yULod4mxHLzO3b3HxBLzw+Vi+g6bFnw2atU+ej+0uvKDsu7Xjuet9KAdiwaKvhaZ3gy44UuXrBITIawBQl1VrzM44qfKa9+/v7k6v5K8VnJBmenp7kW+dAV1IMZRYbU8nFxvKZBmxRV79+NU7hEocXKV6IU0QsN4K2DJklyag0QWZbB2uy68GM/GFonIxeoY4Dl7oQ7XM1oF3QwlKH3kyRL83X9my+/6i7uLK7uOp5SVV3UUV3QXl7xpNiA6dCHbsiXbtCXRLLLNxaHmQ0309vuodUo/FuUsOdxIbIhPqwe0V69nBOka4txMcqLl7CoSAZyYogGS40C9FRPizWtWHOQG1R5plpymLtQRm2XlAEyQB6HhRCfRYMZ0Ekg3IWiNcpiikGX+FfXWb61GnlNm7gp0DLkLeiInMbYrWzT5eTl9c1cfKYAWDyxEm7N2ySPSbkeFYs8Ww/nRTA0uNSdiJi8BDyeAH44fuh+9ccthMyCr4MzsIJ6cUVTK5qgMugot19WR08BrdzC/tpR40a9fr1a3JBf6X4XCRDR0eHfOsMxBlrMeZTKLkq8nRkbNu8KVb+CsXLhAooxilcTtcQpeaG0/MmaeIyExKb1rHXEHUSkSzQdirQcWLGTNU4ljT0ZqJsU5ZadIGOY21wXFdBObCzsKK7sAJt55dVugYX6jgW8CiRY2NMMohLc0J6Y1xqY2xKQ3RSQ9SD+oj71T4RnNPsIT6Q9/AUvu0tEpqqdJNJ6ih/tmhBk4Q7A7XvxUf4rrFWLKaffUXr6rJ1jDER2llgsaD8hZhis6hik6jCGQFrHWqLS1NCZlOoY4McFiZju1jfrsX91sD1AuxnSn/V9GjmH5eyELq6Y/1G8mDBmD9tscR+KX8xt+ArLkgvCLHL4JEMzHhpvWdIL87mml8lT8GAqKgouaC/XnwWknHtGp+ykePHj680BcnAsy3QTIqrp7krXA4dOjRQVTpGXjSW8BqiAsSrcYpXSw2gOYOMCbeGBZkxiWpMhGrJkGfhQGTtjgId1wJtVyq6oKjj8kjAnFSaibJtj1Uf5uu4wcnlDkGduaWdT8q68kEpgBWdT8qb4tIKdJwLdZyZsdrnTktSVnNiZnN8RmNcemNMakN0SkPUw/qIxAr7wEIdsCRwGkSnaAk/kIyAC8GpSu4005Tc8FFeOuLYqKnDnIGKUzMFkW+CRtFV/egzMrtmzEN9FshZUD0XtGRQzgJRFLH0An+LAcg0dy3UBcdkjyMmc7vcxsv5isCc0d7wOdfPKGnRaVn/85Jyx4Q2rODTq83CyGGjDq49ailsGnzFNfgyiIUzh9hlQOxtNBwS5cFfkCxkYxk+w225ubnkmv568d+XDGY5DCaEjh6hsgPxbAuUVryIMftQ/sqlu/LX78qLYcagKAoKAkxVl6wwRPPKOYR2DZ5DCUQ1JnZu5vGTM3+cmKnqkK/tlq91k0Qtj2QBc1IxH8pVZGknP9HyyNeGh7gWGnq1pj7pyC7tyCntyC3DbM8qLjLxhqOgRBAxS60CmpOymxOzmhIym+5lNMSmN9xNq7+TXB/5sDYsscgQntAFNAvH4MtBnmfDQq4EpSp6YqYoeqYpeSBRQ3TmjYh1GvpkBipV26JZHuVZCSLf4qAgGU57z6+eOI1pLppoZyGGnEXTNcWmawpNVxX09vL/7USOnSjUg/cDQuZIIhI12AYDhTxXsdFNS2kFcvYAoHRShPXmgVVHpe+ISOufvnh0+66p/PKpemP40BG7V+zXPqoedNk16LILg85AhstgGA1Oj8ZjVWUq/1jkmZlwrYXIyuXs9dC2bNlCrumvGv9NyYBW3969e8n33Qt2SoqMNEHtTD1NcmDIkAXz58coy96Vl7grL87gjRiKRfpoNjq4kgojFYpU08ZIGc+kDNeUJ8/CQZCYLmhEvrYHjk80ffro7HwoV5ujEVbmcLtA1ytf2x09Stu9Piq1/XFxe2ZJe1YpEo7sMuBT31jqBC4L9Lwa72U2P8hpup/dFJ/ZFPe4IeZRfXQaPLw+IrnmVnwBCJa2Gx29RW57ng2PEAtMVfROUfSmotcjZXjdm9Q5ENms1TDkzEBVa1VRb1FW62OxIr7dGcVX9C8v3bRg3ESus8CNEY6zaL5G8aoCcP4UsjQhC9G6NuC8OAR7hWIh2XYutfTVkh1oYSSA0J799HuOEpYyPHNJaNe+RfymfgjChLGT9q8+onVCJ+S6b9DlmxRBMriqwTAaHMlg9GjcuWFRoif+zPwCJ6NHJNGYjz8KDg4mV/ZXjf+aZLx69WrnToFL8gGSjI3JnA4DlCl4U4nb92kqJRktJ0URNjAlgHflJB4oy6AJ6XiWJ6Iah6S2xYGdO8izUBDfdvyJlvcTLS/MXM2AJLlnLJnATJRpf6ycXKDnW+V9L18XP8QTYsXN6Nb0ImBbRklrRnFbZimw+eET6igPnwUnNSflNSXmNCVkg3Y0xmbW382ov5NeF5laF55S7hQBmoWcCxVTFX08zoaDZMRI3EpR8MVMVvDJUPbO13JH6oYim880jBmFs9A8kSbhPqacSLH0Alh0RX/Bj5OmjBxDjYkQsWiixAKcRTNlLpquIIYd5J+Ge+bYCcp8IYKKUfYKRbwNPuuCCJ/0J0HYuHpNgIiE0knhjSvY3U/9YsWcNZe2X7U6Yxp42Y0iFgs+kkGRVzIQHUOv2j1SUcVZPCQVEFTD4sLV00fIa3AwZcoUcmULQHp6elJSUm1tLfn7i8V/RzJevnwJLo582fwwZswYaloHd2bHjbOk9POihQuj5WSj5WQ4lGYyRwvUAbkSNL+TUJMiqnCRoqeOnwRjxrhJT7R8n2j5UdE3VzMkSY5/ptZDubpcjZAik+Da8PQCg8AnWj7UQ3wKjQKbk/JbUota04pb04tbH5W0ATNKy52jqXO4LHe605z0pCnxSVNCbmN8TkNcVkNMZn3047qoR3UR6bVhqYWGAflIvEARUIwWD/I4G+F5NiJRFiTDP1nBD8dMVXg2r3xK4CAianO3n6mbotoWuLwFNUOk6WJfQ629szOShJXhm5k8YjQ9JkL8BXIWFK8oAJsuK5xcyVMvk0aSuSflqpD/4kTCLAvfjRv6WoT5F2L4DyNWzV4jvOGs7kG1wEvugZfdSbzsFkTIXzUol0EbDSQcEWI2j1VVn6J0nsvP0OSmixRR9nCps1Lvevd2dnbk4u6FyMjItWu5+akXLlzIy8sjx75A/Bcko7u7u99FRnZv21ash/KmqYimdezYvBkfMpaUuiMrD4xGUS4aUZaizD0FecZcBiBq15TqIwXBVLjIU9HL/YJmnqY/MFfTP0f99gPZZpZSYKYq5MM5BcYhz8IflTnF5Gn60XwWlt70oKD5YWFLclFLSnFzSlFzanF9bDZ11JeOoDKNCeAvnkBsvJfbEJdTH5NVH51ZF/W4NuIRPMlTvwfUmTR9fM+He5yN9BGJfCgfwGSmGjoKrSeImHgbxxo1E94ZqCpgB1gywWTpAZ5KwoVHNXQ2oUk3s0ePA2eBCLYCOwtsLi4rNF2SB2ae5L/QkajwRY7/4iH4sggjp+nTBK53/3GYNn7G+gVbTm8Ult4rY37aNOiqb+Alz8BLHhQpvSB0I7x8k+M1sF6wjQYwVtIsW10Jz2mqMb1cbUolDaOM4Qt4TVxDOXarZOrUqeTi5kVISMiKFfxLhG7evPn27dvkvC8Kv7VkdHV1rV7NzqHqDaWropykRvMSlF5tNv4nNLtx7pw5d2SU7sgq3ZFRvCMLVKCI5UM+Q12L40rwFAY0xRMiNddTr8xADz8JxsGlW/I0A3M1AyHmaNwWkAne/VglJU/zVqFJ2LPbGTVBabBNs9TubtP9gqbEwqYHhc1JRc0Pi5uTi1uSi0ts7lAnBNCsDc9oup/fmPCk8V5eQ1xuQ0xOfXR23Z2sushMOPTs9qMS22hKvOBkFFMVwGJEAoMvhz2UD2QyRx1pXC+CNqH4TJWSDEXuDNS+E7pY1f0KT2jNoQpMrRw/mdNtoQDOAsQCO4tmjmScWcJnVAL+96aZ+bPsFbDEKkxTgt2F1DfGjPxx+bx1qxds2rhkx7YV+3evPnxw/cmjm86e3nrhwk4x1eM6tuftA6/6B17yDrzkxSGIBU2sGpRwEK+B2iZ8jcadG9aJssaPVTWK9OQ5s5lwxvBVtKobWVsXG40LdfbivYXPtdeSaHfv3h3ISn1XrlwhD/hy8JtKxqtXrzYMzJd6qutykhoti3UtH+mRWruKl65ESStHyTCpBAQdiZJRLNIlM02peQ2cuQyceZ/OitzekBE/DEuQc8vVCM5BDE2Sq+0lFsDOTNX4XI2gAuOImuCMmtuPC02j4E/MPK2Quqichnv5DfH5jfcLmxKLgI2JhbAzVyOQOgciYrlrApyDCCfHPqmPyauLzq2Lyq6NzHoWnvns9uPq4EdPdEJyNW5R598CFQsXDfMQigJGXg9LkgtOkg/G8aFccK4mnAbncCPIU65GALUdUKesz5qBCrc6SyaYrDioyJQMt23n8fezb8ZcrrNAYiGPCGJxUb7pgvzDI+y0fQxFUSlKvHiYYu6/fQt38bGBYMK4KU6X3QMu+gdc9MO8ddGXQx8OvTnsSzJCrt6MFHOKFreLFrcFxkpa35cxT1YwSlfRzVbXyNdRqjKReGpMp/mhRGEkGVR+MGfyND1HCRkNbz229s2aNYtc3xzIyvIvWfrPf/5z7bhJS0bzTO1fuXJldXU1eeSXgN9UMvoYH2EhxZAnrzFI3QB2jhw5MkxRK1JaLUqGpipFFaCVhAzlR5Ar4Uw/xXMZ8LxPk60MtZLcLgzOIlfjNrRHUviNjyTKdIBegJrkG0RWB2bUhGQ+9U/P1QilWe6WVB8DElDQcK+wIb6wMaEI8X5RiR2oDNz/cA7EkALDyMb4woZ7BQ1xBfWx+fV3n9RF59VF5dZG5tSGZz+7nVUTmlnu9iBXE04Oph4SnKUR7C0c5XH2jofQnQQZkLPQJHkSUxRCczXhNBAOOgYxY5OiNpmBiiehyqqYbtjFkgkmKw/wjLNun0KGIa4uXonGRCi94DgLBaQXlGQcms+niNm0qVOzjYNpC4aodctEQWvUqFHkjIFh8k/TnS95UHqBeOuiX+gV7wgxz+gbN+OknO/LOjxUsE1TQjWHcjSMCnT0S/S1cV8VqaVqBMSDZWiMDNUWNaaqsaM8HTpDB6X5ceYucfODq01vcKZN47Vvr9EzkkiPhuW1pYsXkTfKQVBQELm+qSV1Nm7knz+2d/LsrJ0XGw5KLBg17sZsntbK5MmTv6Bu0d9OMk6dOkW+of4wbty4Qh0HTsYkSmo0kURj+GcOH4mQ1gBGoqgeyWCAtIrMuYu0K2HMQCUzGuK0DfGTA8YOH52mHJStHg5MVcxjiQUwUbrjseq9HPWwbI3wco+UqoCM6qDMAitqj3oYxFy9qNqoJ7XRwPzau/l1MQX1cYX1cQW1UXmgQUxWB2fVxxbWxeTXwWlwclTes8jc2ojcmrDs6tAspERBjwtMonPUQ2nGSER4CEUD/c7fSZIDl8FlulIoqFiOeggnhjBjrnoQqW1BVeVskUHzRGaMHM2SCSYrGakZ7uu51cnMNu3mOguOuWi6INd0Xu7eAf5FzNxVLXO1KPGieEfr5qqlH7yG9pSfpt+84Bot7pYk7/hY1faJljnlFlFjswQNn+GqaKSXiuqfouuwUnWbDejRMRWqersSJ0OHmnNAFn+RxfOVqMxgkg2MXAZZWxfPSKLnIuEeDdw8ueKmwLZXmzdvJtf3f/5TVlY2hV+5jXFDhweuOwJigTl/5DjFeWs1eAuyL1my5MWLF+SJPm/8RpJx9Sqf7FpB2LFlK2ckH4iyG68JocvUVko5QlqbQ7AbWlTUBIocPhqlY4ozlDlEM7uoeahoRoOYELfGt/p+iWz1qGz1yAwV/pVyMlRS4GiOemSx3YNKv8dVAZlV/pk5mlGwB+8vc0utjYT7P7/uTkFddEHdXRCFwvqYohKnhznqEdnqETgWWsTXxxSio3DOHRCUfHjUs4i8Z2F5NbdzakJyQFCqfDNy1MNzNMJRpAhK4SF0Fxh2DSQjgslMlTDqTDoi/aJjoaoPq7aF58Fj8HlZMsFkFUMyZo/kGua4I+eonk6us0A8jyRj+xw+s8WPHzzyRDcceSvN0EydEEkRgavA94G5M+Y+ULekfCLHIZJSIHjgDNcx0y9D3VK6nDqsSDU442JINVC6MDcrB2XiUEXMFfFMpSriNUgecJUxmSHNnIWEjAZZO1a0hmqegGQ8sxCtd1ZcupCdDEKne+bl5f3E6CmjcWja/JK912i9AE4fNmr/xNmwcXEGTzGhL6Uwz28hGcrKaNyOLyaMH39DiL0uicT5y5xRfZQxCXHPth0TJ06MkNIllNaJkNJBkZKPIEnNhfPn05aEoh1F1Kihog1dgGPqmElZatHAxyrxiTJdLLEApinmZqndAT4xuFfmmVHpnVnhk1nqlAp7sqn9udox1bfzasLya8Lh/i94FglaUFh7B3ShKEf7brZaFCJIklpUdXAu7EeMQqc9i8h/Fp5fA4+9nVcdkvs0OKfqVlaR7YNsNaREOMZL3XEXuosZJxn1QC7qgSwVKWYhJYLTkB71ZrmyE4gFOIsWzgzUdZOnDvvmW5ZMMPmUM59VYSE3R2bYt98RZ4HEQg7EohHE4pxc4zm5oN18rCI0PVKMQ8F/5elGOSmaThWQ39U3NqxanWkIEg/eEPV2F4NkIOLxMtwnxenSpowGUzKw1+Dk4xCjQdUuJ7OTqCWmsNGgvIYxMhpYMvDMI5CMKlaPBiJqm4BkPLORqnVS9NZjz4oUExPDV3h+fv7YsWPJXg6+++Yb+xW7mWIBrD0oPvSbb5ePHo//XDeOJ2nV29sbP+HnjE8uGZaWluT76IWRI0dGqNnIX2TXdLJV0MnX9qSG9NGofoG2++JFi04dPBIhZUBRP0JanxP1IqT1ZM9eEjtzjulKCqn0ZERdiA6uCtzMUc0DsllqMVlqsUmyfJYdSZGvpI7GZGvElrpmlHtklntlVXhnF5g+yFIDOYBDd4ttU5+GPKkJza++XVATDix8FlH4LLKowjsTnaN+F8dC64e1UUWw/1lkYQ0oC5wJKnM7vzrkSXVI3tOg3KeBuVX+Obm6sdlq0dnq0Tj6nY9xF0L0PRfzQC6ayWQFeNo7fbBGwZRZ2yLmNOrLHP/DcJZMMIldRsRWsaHffoe/H8D2KTOa6cbIeYrnkGQ0icgtnsynYJ+lmlGuZtQdI/89O3eTXR8I0XPny8ydOFVCLEhvFKqvgfuhjBkZOgb0+BetGuWGOA2HGA3So4G8BqNHA6sGeA1q5hGzR4NhNDg9GibXSaeG2fVaJ6V6F9UGT+0F83gWaoH/YZ2dnXCFQ5w1axbZy8Gw776P23KGVgrM8v1ioZtRXeVpw0bhPcV7rk0eNhI/BDB58uRXr17hG+ezxaeVjISEBPJl8IO3vGmept+pA+x5CqGaNigjUxNlKOFRfRAXc3HlMEmjcEmjMEnDcESDcCkDKurPnD4jUMOMyjIEovkXVCTTLgq0nY5wyrT9OGJspmocMFmOTzG+BzKN+Cgw3yy51DWz5ObjMo/scs/sLI34TNVYzArf3KrAJ0+D8p8GFzwNQay+XQh8YpLEOScmSzW20j+3JrzoKchKWGF1KJyWXxX8BMXAJ1WBeZUBeRV+OaBKIE/ofCrGScW4n4l1F4p1OxMbejUmUeZuouxdEmXvpindzVJFesSPoDh3mqWpwpxkrrrSmkmoXb1szASWTDBZeVAha78ys0kCMF23E8wFchbnkbNoFJFrFJYFmm3mU0p765at2eEppw6wVzYdOCyU1Yv0wQnifiiLIlxNg5Qao2oakvEvMvLF6tEoFdyjQa2TgmdC992jgac44x4NhtGwlKx3065z1axzUTVTZK88cOfOHXyRHzjALko2ftiIh9uEaaUA1h0Qz9175cGu8wbLUKXCEd9+Rx8K38Dz1WlqauKn/WzxCSWjpqZm3Lhx5JvoBXspPdyvvm4VOxE4Tcf7iZZfnibKyARmaHvDziBpkzBJTONwSWMcgSZX5UaMGFFo6MPMMsRzNPC0iwxNsn4SQGLblUzVhHTlTJZYABOlOzNUkuFopmp8lmZisdPjEpesUtesUrfsEudM2ImZZ/Sw0j+/MiC/6lZBVWDh06DCp8GFT0OKgFka8Nh71Gn34LTq0KLq27C/8GkodU5wQVVQwdOgAvTYgCeVfk8qffPyzVKy1OAh9yA+VonzEYlzOxPnLoRirGTcfdm4RNm4+zIoAjNU4jLV4rL4M7ZIyY9bNUtS2X0fEeIDk6DZzFYKmhUHFQ9NYZfnzT99neksgKAXlackfhrBZ+xjINkHgjBxwsTb2iZUDxTV8YR6nehqY3x7NCivMaAeDfAaAns0OKMndI8GMhpVzB4NU4k6F40Gb+MGT31QjTJXXVa749y58/gi19PTI7s4mDxiVMHuK7QiAGsO3EjbdRH0Aig8k3zbzBPOTuPpHiovL8dP/nniU0nG69evly7lv54QwEBUmRpTRGQtfTZmzBg61wCnNt3RcF6yaPFtCXMOzSiahkma3pYw2bp+09aNmxnzRHC6IZmpAdFEnDRBh3439L5sVIZyUqJMG0svgGlKOY9VEinef2KaXmSfWeyUXeycXeKSU2Cd8Vj1PuyHWGiXWe6bX+FbUO6XX+FfUHmrsPJWUVVgUal7HnVOAo5FTllVQUVVwUUoBsE51JkBBZX+BRXwQN/8Mu+8cu+8TI1EEKnHSKcSIq+DUtwDsYDoLXLvvgxhAhUTZbAYCeK9allzuhBO1nmxMT8MxZ9aZu4alkwwKTmPPSJ4YtZCcBao50JEFhH8xVnZRiFZyY17yBm/EnZv2ZZh7ID7m7BkYKOBRrv66tHAeXrcHg1qJZfePRq4U4NPjwZ3TjNV7Q1LBjEaVI/GM3vVRj+LBj9zJBke+nU3tW8Io8UlaEDzoaurCy7yR48ekV0cDPv2u/Qd55lyUH3gRjIlFphg+uC0Cai1yD2neM/Vb/75T/wMGBs3brx+/bqVlVVsbGxFRQW+pz4TfCrJEBERuGShjMh11MmPePuxZjDZy8GalavpjIM8zaBczSAvZcszB4/flrC6LWFJ0QIzTNLcVxwNncpdvE7PE8FTPzhE8zV2byVFq0+tOv5Y5SHfWaqwEw49Vkl6rPowUyO50Dar0C67yDGn2DG32CX3iQlIRhI6qpZU6gZ3e0G5d2G5b2GFb1GFf1ElMKC4wDqTOufBY1XECl+QiWKKcBQRzqzwg4cUlvvAwwvKvPKL7LMeq4JkwPmJacoPPITiKclADL2WcF/mfoLMfTomyd/PVE2kzqeJ9uCYo3KXrm1RIya3+CeuCrus3MuSCZqmS/mU8048eJ6YC2GKZ2WBGWc/LHezXxhJyBfqOlCFM1ClMnqQC1Xr4tOjQYwGmXZkgEdP+u7RAA68R0MG52jU2Ko0+lk1BTs23rJt9Ldo9DZp8DRIsmQXf4qPj4cr/NWrV3PmzCG7KMBNH8QYTAWCv3jI0IvYHcLf/vMbOHMlai1yTwOKzOyr+vGwYcP27dtnZmaWk5OD76//Ij6JZNjZ2ZHP2gtH9xykRgdwJ394tIYXOcDB6YPHUXoCnXegEWIro692QTpU3JpDK5pKl1AL00PZHPxIrgYrgRo1bTK1ffDTAlxFnNKUsu5LsfUiUab9kXJqhnIyZo5+xhPLrALrnAK73EK73CKHvGy9R9BmgUNZ2mklN/NLPQpLPeCeLyrzKizzLir3KSr3LcoxgHMeZig/hJipmVrhX1zhV1zuV1zmW4QiSIxPUak3nF9Y5lVQ6llQ4vaEekgSZvCVBLczIBmE96QSE6R5mKKANCsDJIknPsCxVM6NrrJ3YBZPL13erssspcB0WMHHNRycPpc4C465aBSSqRdW2jRlNjnjF2Ph3HkxOlaM4S00sMWp3EWMRjHVqUHl1PD2aIDRYPdoYK+BjQawjxwN7DX492jU2Ko3Btg3R3g0hbqCZDT42yCj4W1c4Wi6cRV7PhQu1QcugPzNgSwydFwVqDsgTrdHMPWXkSzYQ5PmMM8EZu/kn1DbG2DD4f9xWFjYf6ti4K8vGSkpKeTD9cLKpSvSVMOp0QHSye+tbE+OcaB4WToH5TVQSQpU9oGOmLLjDYNQcTuKthzaADesQZMpE3V8wIxwXAmaM0KyDzVvuSma4KedNGpShnI634kk6UpPMpTTCFXT8sxynljm5lvlFdjkFdg+KbTPz9LKyFCBo6m5RlklroUlbkWlQA9gcZkXRe/iLC24/0F3UiHmGkPjpaTcu6Tcp6QM6I1OgNNKPYsQ3eEZCotdCzJUUzJUEJPkk93OgGQQ+l8AjXjIYBLERyrJj9HJyZiPGTFLObFRUgPrhcQKnhU9Fo36kaUUmG6r+CxiDngAFoPjLEAvmkAyzshdWsOn7v7HQeHCtRITT86QFqmuyql1CrQpplSD4zUsivUtSvTNSw3MSw3NUaeGAXgNTo8GpRplBkCBPRq4eYJ6NKB5QrwGx2hQPRpVFsp1nhbN4Z6tdwNbonxbIjybb99sCnZqvGVT721VYm9to6RB3joD8A9fWpq9OMa474eW7xNlqkAO1d/J5M6JZB1prYUbmWdiLhrH00IfCE6ePBkYGEhuvN8Kv7JkgFvrPeCEMXXK1Hil4EzVWDSKSY0RZKndNZVg9x5Zyxlx8hqobAX1SKWL0iHiDhTtQ8XtcQT6iqPlkcCzsVwJtGtySEdJ0OWTpH10cf3FVMVCllgAk+SePVJ+9EjpEY6ZWpm5Jrl5Znl5FnlPLJ/kW+Xn2+Q/1niMjiqnw/5Cp4Jil+Ji16Lim8UlbsUl7sCSEo+SDFV0AiY8ttQTdoJGUNGjpNi9CJ3phh5V5Ap6UfjEIveRchpm0KUHTMmIFE2Kl0pm8OF9mRTKB8HJSJVYsUz2Ji6E47iTPaKhNG8dSyyANst3kcO8uDJvBXIWxFyAWMjc2Xlm+9y+DPPAsWbFyjuq5vQYFq7NxfEaJIOGYTQor6FvWWpkXWZmV27pUGnrXOXg+tTZ7elNj2p3r2p3zxp3jxo3t+qbN586O1XaWpWbm/TXo0F1alA9Gs+cjBr8HJsj/dsf3GlLCG+NC8GSAdpBuQynpx72hXYOGVZ2E8YP9DbWXbSZef9X7L/O0ot7O4SHffMtPvkRb38H5p1N3DqVH4TZs2d7eXmRO/DT41eWjNOn+a9eM27suGg10Auqr04NdddRIwVxqlfY1dwCNG4yBg4RrSQNQ244h4gDnSg6YmpdQv2ayxYvpf0INxtS4zbF0NmziKMOunb7gWwrSy/uy3SnKeY8Us5MV8rEMVsvN8foSa5pPjDPogCYb1WYoYqPPn5ikV/oUFzkBCwpcikpdsUsLb5Z+kgZZIUw37qwxL2U0A2x+GYJIpzsUlzkjJitB6+bAUySS3c7k0jTXSgxXiotXiqVGZPkQCwoUevFLMVEqmqWUtLpS8O/4+ZWYBTsvsrSC8Ml/C3D6p+m0s7Cc9PhI9M/oOZV35g5Y4aHqmGBnjsqrapN6nQxcmdQjwZVgR1LBqdHQ9eyxMC61MS2zNy+3Mqp0s61ytHtqSvohfczb79aP/+6W0H1ISENYbcbIyOa795piYtpTYhrjoluigpvirzdFBHSGBbYGBrQEOzbGILYFObXGhfekRLflZnSlZHUmZbQkRwHktGeENHGkIyG4Jvlbq6F9s6Fds5b1/ZfbRjj+2++qdonRt/89QclUnfzNEmAyovIs1HWj6sUTCZvE4YGo+L8tRunfXBLcPr06b+N4xiQZDQ2NpKtPgFSR95+L7jLOdHjEZyRBcSrpy+RMzhI0A/nJEeAH0E5DoGKbsE3XBh0xjy2B1V2OHngGK8rIb0kwDgNX/ycCyYuSpEvYesFKpxTk6aUna6UnaZIReXsLP38LIP8bKOCHOOCXNPCXLPCXPPCdOUsOJqulJVnUZhvV1xgX1LgUFLoWFrgWFLoVFrkjAhHaebbgJUoK3IpLXIhsdAJzqQID3EoKbAvfqQCZyKRCr2acvNMIs2Aiw/vSaXfk0rjRMRk+QwQLL6skTBpvq744NSln4aRJWxpXJyxlCkWJXuv7Z/I/0Ic8d0PmUeuJewTuTh32QhGTtcvh5q4TKlNMKqoSnJ5UdYMMhqohjuRDEaPBtNogGTYlJjYlVk4lFs7VdjfrHJyf+rqWePh/czHv9YvoC4wuC4kpDE8vDEysuludEtcbOv9+NYH99tTHnakp3Y+Tu/Kftydl/08P+d5QS7FnO68x905j7oyUzszkjo4ktEWH94SGwyS0RzpWx3gU+TiVejoVmDnbCTOfzYqXxyZPJd55xftu8bSC+CCUT/ik9UXbGCeLIhP94lFbDyht3z7qWVrJ4wVmKzAwqZNmz51yeIBSUZkZCTZEozKykp64WUWhA+fhVY3NSRBEY8+QFR9cGAXOw0mzzCFSo5A+RGUH4mPlvYPug6qQfMm5uRJk+B8CWExsCRUziWVQ4lIOkqMxEnSp/g22d4WI1GmK10xP00pL10pL00RxUdqT7J0CzP1C7INirKNinKMi3NMinLNitOUc9OVctOUcvPMi/NtSvNtS/PtygrsEQsdygsdEeEEijkQ821AHcopgliUFTpSdCgrANqXFtiV5lkUU2fmpCpmu515cJPByOugFI/vSWUwiRWtN4tkAkEvkk5dGjuUXSQKkInmTRK9CN9wgpllyMLeqXNW/4i+zF8Rp4+eSLH0pfN3OWkyVA13HReePF1+PRrFetYlRnZlZg7llk4VNi5VDm5PnT2q3bxrPH1rfQNqAwLrg0IaQsMaIyKa7txpiY1pjb/XmpjQ9vBBe1pKR0Z6V1ZGd25WN+hFYd6LovwXRU+eF+Y+f5LVnZvRlZXGcBnRbQkR0DBpiAgq8woouulX5OxV5OT2wNyOuQRXv3BeuYd5t6fsvsDSC9vVZA73sG+/K+WdcsJk4LojtQfEWTsx/dcdPjF7ybDvv8fP0zfU1dXJbfkJ0L9kZGZmRkVFkT8Eg1mqjIk5s+bEyEZTre6UDC6pbjzlh6tX8JTbmTRpEhqkJH6EsiQq9yMkAwLFPAKvA92DrrtT0c1ZjOSha15T4eRcol4SnEmJsyRPclISQ64lsvQCmCRXk6qYT6jwBGK6WkGGVlGGTtFj3aJM/eIsg+Isw+Js45I05fw0RTjhSY5xSa5lWZ5VWa5V2RPr8jzrsnzb8ie25fl2FalId+AcpD55lqUF9uX59uUo2sEJZYg2HFqXZRkUwWnAuzcybp5Ounn6AY5uZ5LiJDPiJB8zeU/ycZpibm9myj9oFFOJP36BTsFg4srMZbReKMzj/9N8IuzatuOuqRsnR8bjCalLiowGnjHEKYnuVMCvR4MaPbEuQpJhX2JqX27pXG7tUunoVuns8dTNp9rT75lvwDP/wLrg0DqQjMjIxjt3mmNjm0EyHiS2PgT7kEJZjMyu3OznBXnPQS9KCl8U53cX5HaBZORkgMvoePSgPTW+/SEYk6j6qPDKW7eLPYOK3EAyfEEySuxst23op2ocC3c2naTv7Yr9Yiy9AK77kcxwvThjCX1mb5os2aa/eAtrJ5OV+8Sg5bJxGs/gLl8sXbo0Pz+f3Jy/KvqXDENDw9TUVPKHAOjq6pJ3youhQ4c6iDrek4lnNL/TM1AfIRmhmD6NZ87CyuUr6bEAjitJui0OkuEVeN2LxOteQde9ZITIcmdW0qZcV4JIekmy1OJmzkAd1LMnzEuSY08nSZTuTlEoSlUEFnJiYbpa8SON4gytkgztkse6pZl6pZkGZVmGZWnK6CgQ/swxr8i1AJbnWVbmWVU8sa7Ms654YlOZrlqYpliQqlgAMce0PN+28gnQhhCdA7SqgIfkWZY/1i5OA4OjWBB8OZ0SC0K/82lxktksJkjnUCdjPsHxkUJ23XW9yMNnR3/PZ3HDKcNGVuy7DmLxYKvw0tHjyd5Pj5XLVwTo2RWZBlOZdd65Gt45Gl7Zal6Zal6PUfTMUvPIVnPPVr+Zqwl0eaLlnK+FWygO1BInOEeDMhoGdqUmjmXmTuXWrhV2bpWOHk9dvardfWu8Amr9AusCQ+pDwhrCIhqj7jTdjWm5F9d6P6EtCYQgueNRWmdmRldOVveTXKQXpUUvy4qRahTmPX+STbmM1M5HSW3JCfV3Y8uDokv9Ikp8QDKCQTJKnFwrLDV1LvEvg9wHHmw9S9/Veb0GStzWHSLnDRmSsk2EPrM3nVbumTR0BGsnX2bsuCA0j3+JQCbc3NzILfrroX/J2LVrV2FhIfmDH0pKSsgb7AUZIdkA0eAE2SSq3U6a34+UoWWOev4eKT0aPXo0OZXC7m27qUEEPBZALEnQdf9AUd9AMaAPRW/gkV2oIwPgruDM20tyPxOiasID1Sh8wrHlwvelu1mSkSTXmKJQnKJQwojFaSolaaql6eqljzTKHmmVPdYue6RT9livPFWpOJU6AfZkGldkm1Rmm1Zkm1bmmFfmmlflWFTmWlSmq5ekKhQhGVIoyjQAQanKtayCiDYsKrPNK5DWmFfmmMFjy9PV4ORCONNXJNX19EOawZczYiVyWLwv/YQ6mZIthQJqO79a3NJ+O/+BUkDI+mOgF9BmJn9/esycMcNVxyLPIOSxqv8jFb80RVLcmCIuj+6TQi2qgEkty+JBLebkhpmu7Jqh4vJYzSlb3SFPyz5fz77Y2KkUJMMKSUaVE0iGd7WHX403SEYQkozQsIbwyCYiGfda799ve5jUnprS8Si9MysDLEZ3PliMghdlxS/LS5+XFCCXkYdcRtPDlOroxLLge2WBsSX+USW+EcVeoaU3PSssdSuNZUOUP2A1JhrMEZC0Xh2fh6aQTJmTU+bTp/Gl31okLr3nswniw23Ce6b04zguXbpEbtRfCf1LxvDhw/te/H4zp5AvC5vXbfEXDQ0QDU2Sf4Sb7hRxOzzrEepTzCSnciByTIQaRyCWJAMxPVAsIFDUP1AM6EdzxVIisYHKvoxeEuRKcBbmTQUytUT7oBNLL4DJClUpCmUpCuVUJExVKk9VLk9ThVu6Il2j4pFmRYZ2ZYZOJezHJ6SrV2QaVmUbPc0yrsoyeZpt8jTH9Gm22dMcs6cZ2hWpCqUpCqUQM3RAHapzzJ/mmqNDwGyzKjgzx7QKHgKPTVMuS1UA1SjxPAuSkUwzQhQ04kms5BMUMSWfJMqAeYGTizmxuFzCXXq5QOdsvGRbyrZzK6nE5N8Ac2bNNhLXTFcOeSgfmKyAeStZIYCifwrSDj8UFX1TFZFqpCK98EpVAnqmKmHVoIXjZhqia5qya7qaW4aWe6a2Z46B1xMz7wIrnxJ7vwrXgCrPwBr/4Lqg2/WhEQ0RUU137jbHxLXEx7cmJrYnP+xIS+3MeAStku68nOcFT8BcvCwreVFa3JGb35yeU5uYURWdWh7+sPz2/bIQkIyYUv87ZR4+FdYGuI7GI0OF8T+RTso+ILpwDWugOmLjCXwP1x+UYOlF9PazQ79FY6vff/NN5s4L9N3Ol5Eb0TxXjYH1j9IMWn903ti+vOTGjRufP39ObtdfjH4kA+dlNTU1kb97AZwPflssjBo1yvmqt9/VML9rYQ/kMqHdjtv5nKY4mO2cBypp5GwOJM9J4XEE2pWkKqbfEg0MEL11i8sAIG1PgpVv8boS0ksif1EOnxB6jT1WkijTmixfwZcpihXJihWpypWpKpVpalVp6hXpmlUpSvhoOWxk6D19rP/0sQFipmF1phFilnE17IcTMFNVK7JMajKNQR3gKImPDasyDZ9mGT7N0K9KVYTTylLky9yF0lxPJdO8ez0vRjw/VjyfGRNlilPkSzGT5UtzxdwPzZyHP1pv/Pj9MFYJhk+HbRu3OspYpGpGJckFpyoFpirdeqRy67FKQJaqf7a6b466T666dx6ajuyZp+WRp+mRq+GRq+6eo+GWpe6WqeaeoeqWoeKergxK4Z6qSCQjVck1VckFIpIMTfcMbc/Het6Zhr7ZJv7ZZrdyrAJzbULy7G8XOIcXuUWWet8pD7j7NCSuJjy+9u79hviHjYlpjQ/SG5IyGh5m1T3Mrk3Kq07Mq0rIrYrLrox5XHEnrSIypTw8qSz0fllQXJm7d4WFTgWadUJldpkobFjTTyHrndPn4SmqsZt5kglU56/Hd29dL8lQ4Yyt9s747E3vNSiz5kKf/R2CaLB4y6heo2Y0Vq9e3dHRQW7aX4Z+JMPGxgZer6GhgfzNC5ASQR3LKuc1/a5F+l2NhJgkD0oBvhq18xnN8vy7yonkbA5URTU44w7Ej6QoPoamDYdBt0SDAkQD3UTdyQNAMpSCeXtJIKJekp2bUc2YaeNmsvQC+FCuPlke7nABVHiaolidqvw0VaU6TbU6Ta06RQn2V2E+0qrJ0KnJ0K3J0Hv2GGhAmGn4DJxLsnwlnJOiBOqA9lCsAT42oKhf81gPPTZFEU6rTJGv9BLJcD2VinnzdGqseFGMeCEnFuKYKAPiQsmZQkXcFcdF4367vglBEDp0KkTNK1U57JFySKZacI5mEJVrS6YRovk+aBYymuODpwvma3mitZrI6AmZYUyNnpAcjQJtp3wt51xNaJU4Z6g6P1K9+Qg0RcszQ8crU883y8gv2zQg2zwwxyoozzb0iX3YE6eIfNeoQvfoIs+YIp+4Yv+Eklv3S0MeloUml4enVUQ9qox+XBWbVRWXUxWfW3UvB7Yr71KSEZFcHhxTcfNmhakGZ4YrmXUidgpVMBOE6WN/gvuZvj9r9t+g87IAdKpFb5ex9kei4D5rD9EPF0RwiHDm3gkzWfsHyJydFzdOmYVfrjcWL17c0tJCbt1fgH4k4+JFlPouKC9DWJhbHY+JPdv2+V+963c12u/KHb+rdx7KF+LOAqpHALX2ceM8VCmGPIADI2lTqocP+xHEh/KZ/tdCEUUhhgSIhkA0ukzSwAGhSmF0LwlF1EuSrvRo8iT0Ux1edp6lF4kyXQ/lavpkdZJcdbJCdbLis2TF6hTlmmRFtBMT/kzXrE3Xqn2kTVGn9pFubQZFOPRQ7il12lPYn6GH+Ej3GRyC+Ejn2SPtZxk6z9K1QFzgNCRPAReyGZKRFiNefPdGMSsmSJchtZKr8hbRGPndgMbYPhHWrVyjeV4hTgmsxO0cdVzfGFf6DMT1zbFk4Nk9T9DSKkQy6LnFaOiEytHgjJ7gHA3nXjkadgXatvk6Dk90nXP13bINvbNNb2WbIcnIBclwQJJRQCQjliMZiWWUZJSFp5VTklEZk1kZmw2sghjzuDIktsLDp9zKjEoGpfJBUR0NMuvkpmpf8+6UFvFpKRycxNOJELP5NN6fzujLiNshDO0ROPrDN98+ZeR6CaLE7JVw8kdLBmYffVjLly/Hc3B/CfqRjCVL0PR+vpLx8OFD/D5YGDNmzB25dL8rMX5XY/yugHDcfQimmttrgFr7KVRLPlgxljyGAztlFzw2QbuSh/LZ/tfCKYYhikK8LXWGm2YTpnyndy/JQyXS5FHZw+7IeCDb9lCuTgBreaJ8XbJCbbJiHZDaSVG+Nk29Pk0DMV2zPl0Ls+GRdj3sfyj3jDrtWapaHewh1OGcplmXrlWXplGXrITOeSj/LFKsxPUUtE0IY8TL7t4ojREvZcZ4ycpHWs9U9/PMv/4tMWfmbMXzUnFa/tlaUVRyLarMzimhTs05Ri4Dz+tBqvFEC6kGY0qxN7WSmyen0hpdzaSPHA06TYPK0aDyQYsM7QtNXAosPAus/QvsgwpdIgo97hZ5xRX53iv2v09LBnIZ4ckVofEVAZEV3oEVTi4VNpbUrBOURc6vCrlSggWqX88Xm6bPfSygA4LVNsHlPIEFe6/SkkGnY2z6cSr9wD54bApqcp6bvpi1/0MZvP7o6OH87f/69etfvnxJ7uGPQl+S8fr1a/wyfCVD0ApGZhIO92XKfC7H+V6Jw5Gy60DSX0C3+YMV7pHHcOCu6U+PX2A/kiib63c1gstrEMNP7uP+WhHKcRxLQucs5AQrReCj9qfvsyVDpjFJtgH4gIpJsvW8kc0HsnVJcnXMPcmKDckqdamqjalqDalqjSlq9bCRpo5InYn4UAE0pQGR2p8KRCcjpqjCM8Dz1MLJiTLP3M48cjmVjhklVhp9o5zJWOlyD/mopVNn4I/zW2Lz+o2Kl2RC1T2YM49BMrJJ8fRQakYPNhp4xZZbuZoBudyZxNSqbiAZyGvQdUz6yNFAaRpMo8HN0aBnnaCq8b1rdnHraPRZhVyDzHBlzDopN1SON1Ad16tsJ4bYQp6Zqb15aQZPRRg8blJ7UDyZk8oF9gQfEp6+iPlAQYQGDpyswukZ+SVM2SYy+6eJ+NVZOHbsGLmHPwp9SUZ6ejp+jd5lggICAvAhFjau3Qz/ZuOlQTISfK4k+FyO970SD149WR6T7jJA/QJBCuwyf+7qt3hHMUoTZfNRA+cqauD4XY3C3Lqeu5ROlPID7EeoSHpJ7KRd8NHborzVMWS6k2SbH8g2U7GJNw6Yck3JSsDmFOWmFOXmFJWmFNWmVIoPFeAEkCREemeKGjoBnQbnq8ADG+HhSKHkkHiFXimiJSP4cmH0jUqakSq5p/fwn7PziTBn1uxrpy47SVmka0Zxsmnv4GrsOYgR3Lk8TKPBnUPM26NBypdwejTAZTB6NKgUcmaPBj3xBOVoFDJyNKhZJ6yaXWacml24jgZdHJSqQo6mt3JrdlFr9DLraHCrkCcaaQjSCyfehE6+rNonhm9yjOhNp/D+Qk7CuOQ8UnHu8syl9KMEMXcXmTwRtZGbGPZLWLD7yoKJfBZJAJiampI7+cPRl2Q4ODjgF3j8+DHZxcH06XzKxgKC5FLh/3CsZLn35fs0E2WhkQ//VMG0A3F/AeodCFZ4QB7GgadqCMeSEFeSKFsErRtfaOBciUZE/SPRq5ZxV/eLUnrYu5dE/ao2HBr63XAevUCS0fFApjVRppWKLRAfUJHa7pOyvNsgOgotD4GKrUkKzQ+VYKMlWRlFOPRAhlIl+Wa8Bx9FVECPSpJvgkMP5JqoM5sSZRrdz2S6nAKv8chbJPfOjafA+5o1mhImIwR3gP+KmD998cmt59ROGviJ346RvR8jGRsvFXtf5m6S/N10pWhUV50xfycHTd6h5v6B0dBARoPdo8GRDE6PBvYa2GgA++7R4EgGx2gwZp1Qk+JJHQ1WzS5jVOYPeQ1cR4OnZhfLaHAmxSOjkWSqM/5HPkOqk0aPvTfgzAi4z6/OXAbtjuuzVjBzvXGPBl0g43h/GRlAM6ri0ejvfqjvdeij2YdqpKSkkJv5A9GXZNBFAXAZIhrm5mS5QxYuHBWD/9jwf/iuRIX35YcUk4APUNcA/FOFpj5N2FMXqphKHsmBh9LtZPkapiVJlC2Dpg2HsX5XY32vxMyZxe15ClKM5e0lQfHiiStwaP6EFUy9SJR+QUlGR6JMOye2MyMmd1uWu5PabuOJcrDRliTfliTXlqRAbVAR7UfnoIj2YMq1ohPkW9FRudYHsjyMEqt2OZWBeU+j2lLRbd6cBfjTfQpMGDt5/cLtZ7eIaR2387wU63Mu3kfkHoeo/qiPSCzhuVi/8zGhV2KibtyJl76TogjWgyplQhVVE9yjgbzGEy1sNICcHg1tbo9GAbM+K7dHg2M0dHEyKLNHA3sNumaXOadmFzYadM0uQ1yzi6qjwarZhY0G6dFI0lWbNJGPb185cRqoAOvG+wjWHLgBzZPgzSdwfb55I8exTujNvRPRYIfUnFWs/b+Q+bsv822hzJw58+OK9PQlGcePkzkawcHBZNd//tPe3s53ybxJkyb7XE2Hf+DAqBvlXpeSKT4EJkjXgfOH/6gPZBuBYNpxP0KUQi55MAce8hFJ4EdkkR+hXElNomwVtG58Lt+jiDpHgOMZVQy85MN695Ls3oa6nXbMP8WUDIqdfTORHTs4sYMbZXpto9ieKIvifRAd2AZJovaAAN2XaaP24P38okz7rYslbiKPJfYbTpvwq9W/ojF9/Owti/aJbJRQ3WfpdDrCWyTBWySeQ1RnFJOjFwzJQIyheBfT99zdkCvRcZKRaUqU0eD2aNCdGlSPBqmQxunRIKMndI8GZTQYPRqcivBUjwbOH0dGA3sNPj0afVYh77tHA3mNZB2VaVP5LLZyeNaigYxrDJDl1GSTvZPID/pk92XWCUzC6w799juwGH1MWvtoJm8T5puyoaysTO7qD0FfkkF3cDo5OZFd//mPqqoq3smCxjmrwGv5iTKdcLdE3Kj0upRGMRUYLwUaAf918T9VYuyB8fLPyIM5cJONTAI/gtr5xJVAo8bn8n1e8vSAOMr48naUoF6SlVTL5dxaJaZeIJfB+FMwcXZ5dyLZRkyUoaKgbW7s4o1diVRkbpOICduyXWFq+ZIXFccyWsW/ELMnLtyx6PClTfLah5zczsX5nE/0Fkn0Fr7vLQIEvaBJVKOXy2CqRozPOUo1zt0FgmRQMRoYeOlOtHhksjxoBxgNICrUyqdHg1SKJ80TZo4Gbp4I7tEA4eDt0UBk9mjQVciR0Sgd2Lpqifqa0/gtg3hqzjLWnfbLWbpP1GvDEfz8Rku2so4yqbcYpVDbLN/F2v9rMWA9eRssfMRM+b4kY/x4kjWkp6eH97S1tfGd4b58yUrPi4+DrhXDnQO3R5hYpefFR14XH3leTPe6mB4nAS126r8u9R+VYhvF1mHDeGZtu8iE4RY+ciWUJUmUbYCmjdflB96IiUCPKzxDs2YSzr16SWqmT0NDDAo77Xm14PNipFSNjqjtxnVb8Af5aAz9fuiyWStPbTmneETH8bzvHfG0O9dT71xPiRJLDr+WHHolKfDSA9/ziV4gGYhcybh1McGXYTQESAalGrTRoCTD51w0kBKOO0C/C1HR1yPQEtN0jwZvjgZn9ITu0aBUo/8eDSQZfHs0SBVyjtEgVcgF92jQVcgD5KVH8/PI5xb+ys0BmqAau6gWx+qxE1mHaILFGPf90Kto8jH70K9ItcWb8IdlYtu2bfjWHjgESgY9wgq4ePEi3qmhwacUIkD3ggtIRrBoGb4ZwsSq4E+a0eIgGeT/MOcfLJgRxMmTefTeXioI9wIwmvotvldSvUjPCKLDldvkbAo6ouZgScCPcPpKUC8JPqS+z52+Pz8fxsg26p133b7h42v8z548Z++aQ+L75a3POt0Wi0X1PkjKLJ2ZkskpEYYn7KRnqKSnK6UlySXHSj6MEH0QeAnZDd9zCWHXEmIlEx7K3X8ol5AgEx8rcS/6xr3bV+MCLjBU4xylGuA1iF4gr4GNBq0aFKMCL0XdlQhLU6LXf6dzNOg0DUE5GnSPBqNmF1rpjqdHg3gNPlXIB9SjYXqZvZQnhtCClay769dl1u5Ls0ag9T2D1x9lHcLUXLjx2sxlgipl/IpcO5nPaH1ERAS+uwcIgZJRWVlJnpKzvHVHR8fIkXzKtKxavgZLQ8i1cnxX3EYugysZUTfq6BuGQ6QgwKWLeRbOsZb0T6S6CRiupM33SobXpRSaVpdvkbMpyF/QZLqSB7IN8QpV+JD2fm/uK/YqLP5bMlHmeZhciaqQ1dbVH6wUP40Yt2Huusu7RQ3PWflcD3ukXpKmXJSqWJCqkJ/KqdDBmbZDJIMxb5ik0tPzg9E0HGoOziOVhw/kHtwVvw+q4XsuPvBSfJxkwiNlVD0AV0XLUI59KB97T/Ju5PWY4Ms8PRrYaIBe+HD1AkkGh5FBl8JjJUPTlKCRwtOjkce/R4N0agygRwN7jT5yNEgVclANymtwezQkT6IZX72xd9ZC1n31KVi1T8x4yTaP1ftZ+zF/rVHVfpm+/dzwXtVV5s2bh2/5AUKgZCQmcieATJgwAfZoaWmRv3lhcMEdSwMtGaGiFbReAMOvV9M3D4s7N/PcQuYS+Can+wUQ/a/kel1Kp4j6R6wuB5KzKYidkeHtJWmJVijFh/QO+jNf67fnA7kXLpfvix1WXTKA0gY0Vi1bfebAedUL+p6KwUl6+SmK9HgQnsmKqntwsmPzUX69Ekqx552bg1SD8hpUkQFqQjCqUaICTKXKmnMqklCzfjNUEuOlE0Kvxvudv3dPitQcwYuwUVWdUWHnbPXodCW0NOxdiTvh16IDLoJG9DYalHCcB0b6UUTaIR6Srgx2g9Wjgb0GztEAr9F3jwaP0SjGzRM+PRokTYNThZz0aDzR1T6wiY8nB6yYOK1q/3XWffV102Axn4bwBxUNFSgZ4eHh5Pko1NbW8rUY2zftpqWBlowQ0XJ6JxAUhL6LWLx6Soo8EQWda7asE4ABVwo9L2bQtLocRM6mcHTvKWRJqEFT7ErC5QvwIaMjIayn+m3oej5Z/rjJzvX7RwhI2mUCvtVNGzZfPy9pLuMQqJiQqlJN9eCSzJQUNABEJAPnxdK5J6h2BiopBnqBZ+UgowGSQVUzJYVF6bokHKOBvQZnvi9VwQgt14SY+Fj1fqpiQqTYvZDL91IUcZmiWLoWfBZaLh+tfU/naDxSCU+Ujbh7Iyr4MjgLhmRQRgOTEo4I4K2L4XfFg1MU/fn1aIDX4O3RoLwGSEafVcgHtK5airLyygX8R6xn/Ti+eM9V1h31e+DyidPIV8DB6tWryW0/AAiUDFZ+57Zt3IRLJtxl4mlpECQZQddK6duJRX0x7oKpALnz2qwTgMHXypjPZnmJRzJWLV+dyNtLEiJPxm7Nj0XiZxjwWMnH01cyQ1XYcveGw6NHoVZrHxgxYsTOrbulLijYKXpHaD16pN2QqoImszyUq+HkpJBxH1CNFIUKKh0WZcSmYqOhiI0G9hqU0VBCXiMdFTGl64+yezQyOD0atNF4jIhLn6EirJx12O5nojVr46PFwW7QRgN5jWz1u9Ta9DgZFOeD4hwNlKaRrX77oXxYnGRE6NVIymVEYZfBIVINiuEBF8PuigelKvojo8Fd35/Ro6GNejQYRgN5jT5zNPiuqwY0dL9+Y+wY/j/HyGHDWCst/354d/Mp8i0wMPDMLoGSIagQBhPr12yMlWilb2ZBDRP/K/n0rcUiKA55LgqXT0qwTgDe5u1MNb/I0zAZN3Yc63x/uQx8yPL4HdahX5HJai8CFbI0z9kd3n563Jh+xkdXLFt58cw1S1XnKLP0PIeODIOWZKVGasYKnpNCzVLjJMVS02Gx0aCTTcqS0dS+0hR5PAGHznPFPRrAvns0qE5QJW6PBlVbBPVooBXeiNGgK5slPEb1EOOT5e/dl6YrqpJlIsBoZKlFoZLuyGvgSu7sWSc56iEpCqFxkrdvXw2DFgrlNbiSwWFYwIXbUdeDEqQD0pS8czXo0RO6R8N5YD0a4DX492iI7SFTwvjCbwBT0b9iCs9hL74tLCxM7vz+IFAy+lgkkYadVGiMRAt9M9MjJizJ8L6URd9pLN6RrSHPReHInt7JV88jr9cyn838Eo9kAO7K1jPP95clkmF7Ci567v5fzgcKL9yvpqoKWe/ffLxvmRg/fvyh/YfVpfV99WLSTJseKuIxIJSQcl+m4Z5UdZxkVax0RYxkWbREcbREYbREQbREPsUndyWBeXclc+9K5sRKoRgjlR0rnR0nnX1POjteBpiVIJudIJN5XzYrhUyrIc0TAT0a3KET0qMBwsHs0cCqgbwGKoPIKaTKv0eDs9JdVA4nhbzXrBOcD0pWrktTAl0IiRQLDb4cxpAMpBoc3gaGXgmJvhFwX9ovSd47RckzQ8UtW/3mEy2wG45PtBxzNJ2z1JweqzonK7qmK7tkqTvma4Pj4N+jkaSqtWaJwCXEASbLd7Buod8b07efI98FAx0Dq8EjUDKMjY3xE82awX86ybw58+EuYkpGEKf+FWvEBHhPqgMf6s0JE7jZrOtXb2QdBTJfAshyGQA/uTTm+YFypGFifTKGuf+j6XTuvtwxo53rD4wayVOplAVocezbcVBH3DJUIztJo+WebGO0ZG2U+NOIG5Vh14tvixUEi+YFXsu6dTXz1rXH/lfT6UwTbypFzftyAprLR1JdSYI8xRhfNMuGzK+hp+cFisYEi8WGiMXevhEXLn4vUjz+juT9aMnEOJmH92QeJsilJMqlJMmnPpRPS/vAHg1qJXo8dEJ6NEjddp4eDdQ2oY0G76wT9gxXTo6Gf7a6X4rCrUTZwFjJwCix4NCroQEXkV4wGAr0Px/C5YXg4CuBd2743pf1eKTsnK/FzeyijAaQp0fDQ06Jb+YFDeXFm1j3z++TvasNOzg4kJu/TwiUDG1tNLMLsGMT/5L2htdd4HaKleQ2TAKukBUMWU0JYLQ4u8Y3zeP7uAWdx41jtzKACVJdzKeyusSTlwGwlrzFPP+2fBHeb3wklLn/g+hxPUX+tNGW1fzXImRi7Zr1iuIa3np3Uy1aYhRrb1+vDLpWfOtagd+VHHqUB2XBXgameF1OZuSYJFGqgYSDTmwF+l6J971yj3dmTYwfKllEVS3C83qvgXCgimd+1yL8EUlJkQDR27jeKsWQYLGwcImoSMnoaKmYWOm4eNn4B/KJSQoPUhSTUpSS0pVBLLDXwD0aQG6PBlINNSDfHg3mDFdujwZn1gnlNcisE1ywi1INPjkaVJqGtmeupme2htdjNc8MVc9Hyp6PVIAeGSoemeo3+fVoAEnzhNmjkadrKnqM/0gqDaUlg3pBmNbLaKxZs4bc/H1CoGQoKyvjJ7pwnE+bcPKkyYly6Na6J9lO38wBVwrw/RZ+vZreiRlx4xk+1Js611CtQBpRsrzT1Sn6Xs6ln8rxErswj9oVU+bJEXLleL/ybmfm/r6ZpPT8tkKR1nn7Q9tO9ds3MWPGjOvXxJ2MfOJtSsNkyv2v5HtdzKTfITWyQzJfvS5yE+epvBJq3s1lTJzVilwGJsdlEKPB8BrIaFAzerHXwEaDqpPIqSHidw2I6g+RIma4ghlV/TAAFU9FpCunBooFhN4IipQMuysVeU8mKlE+NkUpPk0pPl05/pFyApDu0cBGA/VogNHoq0cDew3coxGao8476wSRTgbFM1zpHA2cpsHI0UCjJ7hHg5OmQWp2CezRAHpKK06d3E/RU63l21i3ze+c22ayl9F8+vQpuf8FQ6BkaGqSpca0xPgot/wFHXynxUt10rcK3Nh4JwgEvROT7hntzQC5x+RJKfz/9t4DLIps6/e+9733vvfe7x5mHBURFUGCRMlIDpJzziBJcs5IEHPAiIrZUZEogqgoWXLOKCiomMPMOKPO6Mwc55z3nG/v2rurq4smg6NO/5/fU492V1c3TdWftXfttdaZ2EraDoCLQXeoR8O7MuRp70/duSLhBXrcTzuV+jiNuth3DYnvKuKf7w/M87EJXyU+Zg1eUpKSUpH+Cee2XruScisrmPl5RpPlD10jyx9ABhoo1kCBBhlroEADRBmUQAPXGSEDjco8CAo0UJRBBBrANYIBMNCgxBrQNRhRBgw0yJqpBdAyoGtchMZBVGwPQeXaccOHwrCc4vC80uiiqrgr9euvtyRVtKdUdW6o7txQ1cmIMkbPaDCS4skMV/YzGozEk/ybEGagQVujwVgPitZooLsnlDUaxFQo49YJuntyuHXXIRfLMfszkDqlyX4Z1V+ZU2r0hYU7d+7E1//YGtMywIvRUbJSPdE/qLoci++b1sT8zLxO/LrQg9fDn5EPIsa5aQIQEWGmFYKgg/Ys4EroQ+rRFi5kWcGmoqRG2x89bijtSPz3Z+pTiPotr9LjM00NxptUJyUnqxDqFXM8qehicld2CPNjjAsKNIhYg2oZKNAAloFjDWwZ5IwGGpuwzmgwAw0YZSCYBYeIQAPFGgzLQIEGsAwi1kCBBow1kGUwYo38AmAZELJHTDZsLoUIO38xNLMwLPNS+PlrUbmVsRfrEoqbk0o6NpR2pZZ1wSiDNqOBa3YRMxog1rhEKaVBn9Fgrgdlv0YD3zqBrsEINIBrjF6jMbTnxJ7wmMUTdUIU4F1SySjMyYHGMtalQ6tXr8bX/9ga0zLS09PRURp20y3DRN+CevlRLxUQdIBHSiNeUB8EkG7ClkBX5oIuL4cA2rOAsojvqEejJr8j0fYXXAqnbIV4xWmPAzKTq3zcA8ZqH0uVorxSsHv0yfiS3HDmW0+FDhBr0AONMWY0clhmNKBxMGY0KLEG+xkNHGhQZzTyWWc0gGsUQMhAA3DhIoTaGobhGmEA2I+uMOw8QWZROOxoSXbDLY44ez3qfFVsbn1iYUtycWfq1W4YYlyjzmiAsQlzRoOo2UUtDgpjDXYzGow1Gowq5NtArHGasR6UPqNRvmWfjvoEPQSA1IXEZqX+xZfKOill/E0x9OrVK2wBY2hMyzhxAi+yqk1bJy0lif6NlB6ZQ70Ic/x7yOukMhJ2Sy6P/J58hAQ9xZZzscwioIIrBGnPAmgzoFIS9A5RuXEsN00URXABtSshj1B2SV38L2kB52Sl5NHj40hURNzfPupIUElWAPMdpwVcqwqHJ35t58ea0YBbMk+XOaORPfaMBuXuCeuMBoTNjEb+2DMaKNCgxBqsgUboebIPLrAMAmgZhWHfov77l8JPFUcQhJ8sif62LOZsdXxW3frctpSC7tQiYkYDBhq95IwGznBlzmiAQIOY0UCxxiRnNI437znh6+yGf1vjap3s3OabfQFkadL7qF++fBlbwBga0zLOncO9Qq5v91/nzBwrLl26tCLiB+r1eSFwgLxOyiJegkeqon4kHyG5FvaU+ioa1LFJXlw77VlAXuBN8lCqq+l/XnaFslQS15PGX8Q2m1zw33PBjdKS9JkemviXC7hb+e4PzM0JY37mGTPBjEZOYHNeYMuFoLaLwe0Xg8EW0HoxuIVBc2FIU2FII0FDUUh9YUhdUSiglqDmUuiNS6HVl8KqL4VWFYZWXAwtKwi+VhBScgHGGpcpd0/YzGgg46DMaFACDTgwQb1vYZRBcK4w/CyAiDWAZUDXuBQBXQNuI05eijhxKeJ4ccTxy5EnLkcevxJ5vCTqeGn0yYrY0zfiz9QlnmtKPt+Wkk0mxd8kjIMRaAAmmNG4BcYmezMvbdob4M5mmMxWe5U4k50T88Ca3lAyISEBW8AYGtMy8vPz0SHyNwYcTWBmDfu7RlAvTgB1QXdJ2GPwCC0oQFwKGXMGFLApkFkcMMlvJ+1ZADWh3tyAbo3UT3UwMo9nAV5AYaPoG++Shv49lkx0Lbb6Hc+Z7CTFZAFjsbzA/oKgwcLg25eCh66E3S0Jv3894mFZ5OOKyMdVUU+qop9WRz29EQOpgTwmeFQb+7Am9kEtZKQ29n5t7L26OMDdurjhurihurg7gPr42/Vxg/XxA/Xxtxrib9XH32yI72+I762P76lP6GlI6K6L74DEtdbEtdTENtXENdyIra+OrauOra2Ou1EZU1UZU1kZU1EWfb00uuR61NWSyOIrkYWFYXkXw4Br0Gc0KIEGAFsGCDRQrHEpHFsGwbFiyFGCI8URGcURhwFXIw9fjcq4Fn2kNOZIeeyRitijlXFHq+OP3Ug4CqhNOFKXeLQ+8WhDEthm1Ccerl1/sDYxvWZ9emXi/oyQ9QFObiJEY5rJSFlwJbWvMofxsZRgycGZsILGmJZRUIBzzM8kBzXvDkb/BjoZgxM3SKi3VMk7I9n+3eSDiLyAfvIlo6mM+345H761uUZTj/YsgLqgy8sOlvakSltjDdjnWtxDS2Nml+3xBUZAvrYRR7zLyMNODzAuA3FWYfBQccj9kvAn18Ofg1CrLOI78IHBWKwq6hUj/wXWK8M1R+PIgiA/oGqpqNo4oxYZ2TblCWsl1LGyTlgyXBkt6W624joa1KwTMvGEWNyV3A6zTuB60JbmpPqWxLqmxJqmxBuN66sa1lc0JFbUry+tS7hWE19SHVdcFX+pMrawIvYCoDw2vywmtywmuzQmC3A9JrMk6gxwjWIIiDVI1wCWceSw54adztG73GP3BaXs9Uva7RmX5haV7pFw2m/ThbC0kth0QGbgpqPe6/e4R2x0Dohz9Q128nC3tLM0MlEm2uhMSXGyWrRL4gvjvlXocVULHzFFQ35RveUrAUYCYqlyOtN2ya0KLGm+S5YswRYwhsa0jMTERHSI9Fj/x/v9BPj50X8Z+elMqJOdBUG30YPgDyz5IAmaHB2LBN9t6C2ALsXjJR5UyEmTSHc2xQSPxVxZMWpalK201XU3rjuYE8ry2SYJsELgfSB2KAq5C7zyevgzYA1gIEb7qBRQZZC3RG1RlHGLK5IR9cqJcuSxqNgHUcEQJ55gy2DNOnnQFI8ST1CJ07tEo9YhIsN1dNYJmd6KMlx7WhO7KYknxGJQmHWCE08oHW1R1gmZeEJknaSwrNEgwItBOzeUtiZfaU0ubk4qak6+2JCYX78+r259bl1CVrpbEvd8enWGuZO2sPiNSVcG/xx5aBWaLKvNM+8b/AOPkhTPUjAcezzFdP5SPVf8eoaePHmCXYCdxrQMGRm8TmFjiM/jfcFutvh+pLWpA+2qoGamgasaPQi8g3yQBJgL+arRVMX+IC2F3zTcYz3tWQCZurJpHcvqr8nLYI3RwfC8Kc1rgvEF+KHyAm8ijwA/QnXUT7QPNj51sWDLDDRglAEhs05g4gnRIeUlijWICmMo0MAFClkrmxJJ8TjWwHXVYZSB8uJxHQ1GoAFcg6VmFyPrJInMOiEyXGEX2xZGhitaDApAWSfkYlC4HrQ7FS0hJxNPiMWgY6/RKNl0NiUwdo2ODv4FzI0Ely47MmdVMz8RyvXdJBeNl69AahXPsloDD9rLx4d7/gL8YkJVVVXYBdiJvWXcvXsXv5qLK9jd6eHesG+TmNMkpbH0iUzqMAT9yaVlpiHGn84AnIuuRW+xePHi8liWZDMA6U17/fLQbpOXrobRHt9c8pNMCPiJcgP6wHCjJOwxiCNon2Tq4EADugaj2hilfwrsvQQCDaJnEiPQgJ1fWAINaBmsGa7NKNCApTTI/nKojgYspYEtA8UaSfQM13YUaDBy1VhqdhGW0UHNOknBlsEINIj1oDjrBMYawDXgelD2azSK+zYXt6QV7ovd4mbnJCZKL9YwEy1bxANichCr066BL4z9q43nfYXaG3CJiIioqOA8VF1pLivlr5fx4KdIcX89r0TXhXaQcVizkqWu/enTp7ERsBN7yzh8+DB+NcwuNXu4N/r2XmYb1J1hJ2iXBFEFB19s6M7ItXCW9FMEuTx0HMI916N3SfbfRXsKgO6bnA6kt1kbRzrqevtDcrP86R9mNCCgyPLvAuOOy6Ej5ZHf17BbAzZdyIoeeEaD6I3CrLqOZzSIWIPR82X8GY2RZhhr4BkN1ON2jBkNOKlBn9GAsQZlRgMFGiw1u8isk3pG1gkRa6RC16BmuPagQINtXzW4RoOyHnTzpf4tRbfTSzvOXM/YfUCQXRuRyUuAh3ej/Jov3iwAGyltmd3c3H7++WdwhXaVHv37ua//yPxvf5z/P3+cn1cUza0nwzJgAeOXWsPJxhph0sxeYkCpqanIB9iKvWWYmTHTsbTV1UZ2x43sjrc1M0GP6OsY0S4J6urMomCYAs92aQZgnNUZCBDGG+rCN+Ll5S2NhfdfqJBOxLt4vGxFJAH+FaneB7MCWT4AW8DQAwQUwOzGybidGaNnNGCgwZzRwHXV2cxooH4uRKABYDejgeto4JpdzXhGg6zZxZzRaGUzowGY/IwGNdBgmdFgZLiirJNrPan0rJO+LZdv7bx6a3dJ9bbzp5L3hngH4F/S1KUpInFcdeLuh18G9xL2CPLjQv9A1A7Mv15z+fXbBX8/+3/+yPyPPzL/3x+Z85NsWMYXYty8I5Oz1KOq5vg1hMavncHGMt69e4dfSkhcTHRkd9L93UlH46PwQ1xcV+JZCm1Rb2fkBcI7IzUxbO6zAsapA0pSGvdEQlwSvMvoijvgLz+aBNVQZZ9fS8rdLPDbdU3Ut2bLxaA75ZFjZtnONmSggWINYngyxowGCDSIGQ3A5Gc0iJpdE89ooFhj1IwGrqOBZzTQ8ISINegzGl20GY2NFb2bK/q2VPRtr+jfUdG/q+Lm7oqBPZUD+6tuH6q+tvHsoZgdYR4BBjp6kzH6scQ9f77XKpXqv9LS75eeyb/ffth6rQJ/BVxc1P5m766FvD0p+v70st/OzPuQ+T//yPzPP85/JSvEMkhJkJmgEzWi3pBltQsqDz6W2FjGpUuX8EsZInpYpvalMTsSbAjYQ70YwJUMQnryOkQThNT0UxIy23V8QHyho6EL3uhQML1+J8p5c7XyRp9ktFZLq+9xLaS+6WjA6ANERuPe6ZgLqDMazEBj9IxG4/qXTUkvWjbA3vFtW1+0b3vevu0ZwZOO7U86tj3u2PG4c+ejzl2PutIede9+2LPnYc9ewIOevSM9e+/37L3Xs/duz767YNu7b7h33xDBnd79t3v3DfbtBwwQ3Orff6tvf3//AUBf/4He/gM9NxHp3TcPdN1MB3TeSu+4ld5O0DYAaR1Ibxk41DJ4uHXwSOud44AWgub7WZ13ctuuHczft36Hn6u3hooa/pXMTMoCImAwf88qhHaif/H8Ulj94dFLgIsNXjrQ3liPLtL/+u2XV6ccXh1Rf31c5ueTQu+/5fn9DAg0/luGz/9DeyItnjd/kjdQ8AsIiYmJoXdhKzaWERXFjCaQWnZuJbpabnW2tkKPqK5Wp10P1Fsk4GoEjxSFsNTsJBn/ViuVILcY8HcpNwjfhSHJCeiN8WBf7jzcYSPt7ahk+XWBsKIs4mVNNLh0WY75caiL/bk+/m1D4tumDW9bN79t2/6mI+1N5+7XnXtfd+173b3/p56DiB97Dr7qOfhDL+R7gu/6Dr3sPfSiD/Kc4Fn/4Wf9h572H37Sf/gxg0f9hx/2Zzzozxi5ibl/M+PezSOAu7eODDO4MwC5PXBkkMHA4JFbg0duDh4F9BP0EfQOHusZPNp9+xigi6DzzvHOoVNd9zJ7StIuHEtKTw1O9HH0NNDWF6Us4Z25lFaIJMlotxh7007uvwgXzb2QXwAi/fBCpC0OTt+VFL5pqXhyOPxZutvLQ1Y/HNH76Zjy2xOS707x/3Zm4c+n/jfak9QkSxYKLmEpkoq9gJ3YWAY5H0uqYGMq0Q9i53lGEQ2gi/G91IuBOt+J8lZHp8AjwJ7UF47PsejLKorqtFstYCiR5ofXs5OSEpXe61ZEey8SYBbAwsAA6mOaRV3sLw1J75pS37Vsede243172rvOfe+7DrzrOvBL14Gfu9N/7obbt93pbwhed6f/BDkIAH4BLaPn4PcMvus9+LL34AsCwjIOPus79JTgSd+hx/0Q4BeEZRx+0H94BJNxvx9YBmQYcevI0M2MO8A1bh25fevIIABZxsCRWwNHbg4c6QcMQgi/OAr8AloGoO1A3fkNpzcEJbnaOCsrjlcpb9ri5+F1kVI6qGzSaepLO6f/Ujy3jZRZIfLbyDNkGaE+ePl1ftDG29sPgYvxflrSw73hT/b7PE93fHnI9NUR7Z+Oyb89Ifru1FIx1mIv/uKraQdniwJrg/hxGi/SLePt27f4RRTtj44l2kPsGU7bT5ZsDnSNol4etMmL6ujX1PUaVMjlXpOkMv67/VHnq+K/pz6YG9qFPgaSjYYH7V1Icvx7gFmAD/MRzKIu7pfG5HfNm6FBdOwF7vArO953p7/rTv+FgDCO9Lc9B98OZv48lPfL8MWf+/KetWffazw/UH2mo/xM45WTVQwqAVfhtqLsTF3Nufbm872dOUO38h/eLfj+9tnnLIEGcA1mrEEEGhl3QaBxE0cZQwT0QAO4Bgw0gF8QgcbdrNtVR8vTk/d7O3vJycxVM3qeBQutJeR2KhpMdTXBF8zVNbCD+u36VmQZbnaMxq5OCTe35A5uO3lnx/57aVtG9sQ/2hfy9IDHi0N232cY/XhU/c1xetkXLT4h2sHZYiLOkoR16tQp7AijRLeMykp6zSugGB9forDigTvbD4SsxTMlPDw8FfEsS7NGj01GLxsHgD/4kx+bkIR5JPg5h1+Kw7UCS2OeLlu6DH2SOLu9tLdAgHcvDB6qjHo1q7dL6dTF/9K04V3r1vcde9h5RPqvPRm/9p/49eaZX7vP/HR5d/ux5AspQbu87AINtU3VlDQVZJQkRCUFBYQWz2BqEAi8XGyluIqCqpGOiYOpk4+dX9Ta+BSfzbuC9x+NPp2TcvH6jqrWQz2Dp+4Pnrw3eOLuAGEZKNBgWsbRgdunBjtOth1NzXC2dl62DH/DcyEjMekNsjqleh+pUdjnRfQqeNfzyI7dyDJ83daiL81GyaprQ0Xfpks3t2QObj86tCPtXlrqgz3Rj/f7P0t3fXnI8lwAPf1y6TcLaAdnCy0L3sXFBTvCKNEtgyzGRZW9hSVRZxFWT6vYshc/ysW1Oegg9eKhlgLPCYDDFloLEpIpjU0AGZFF+C1ZxbeMb7tzFu3gAGAWF4PuzMYSrDEBIw4w3OjYPVYo8Wv/yV/rTg1/u7sgJmS9oYHRDJchzKJWCKyQWyWnq65nY2jra+8X5xm/LWjH4ZiMw3GH4wLj1FVZbtHPohYtWGgqIZciv+bKGmfa+cqBhsUKCfCNKcjIIsvIP34afYdAzes7Ojc09Gws7d9cMLD1zJ0dh+7u2jGyG45Tnh7wMZZjkzMxmZnjA6uN8d4MUW/oUkW3DBMTvPiCKkkJCUblRcBxSyO8zyopaepVBGIH6n2T0ogXZREvyf9SGb9IF42cmFa2FXEkxaQPeV2jHRkAgp1xqhPPEDDuaN3+npiSoHtE98Ff+3NeFx6t3Lx+h42lLR8fH/6gf2HxL1lqL6+6S8W46ovO/ph11JbiK//C8W+BZby790RLFd9+spB3alk/2J7U3rXhRs/GK/2bcwa2nrizY9/dXZvT3fHdCZomU2Soy5Te47qgoACbAqvoljFWuapO2O2OqHey7fSFDbhfAdDRaJYq3peCmX3SLgQOwpuvLHV0mUzyBufV2Hu07vBIqqs1Tq6rox0zN6CvJGzMusQzoSHxXctWNHlJd4r29J+yNlYlBG1ao6mPP9wUxbuYV0hISEpy1WpF5TVauiaGZnaWDu6Onn4eQSE+EcHe4RDP8CBI2BiEUgkm8Q4N9oL/CPIICXQPBgR5BEeERUZFRbH92zArkhAU9lLXTde0bDD8i7YjmzmG/HhZ/WIengdtPcA1wFZKHIYeQLpSllXRcFFvR0pzdyoYpxTd2poZbMBcjrV8+fKvGAvMgZqNJnXXyWQlS+UqY2NjbAqsYrEMamoJTfkpe4m6jBg1FdwEgVbUj9qjAACGBmPdar0S+oD6QvbE/qKrxeY6XK2gesaXZZkWMCbgVtOYIpmQptR3bCcpSjcPx7hu01Onh3PjS4B/hbb6Gg/HdfFBqQdSTuftKS871HN5e2dhUnt+VGtuWGt2cHN2UDMq80dsyeKg41chr2BUIUeVQcnioCxVyFGZv+2ee8z0WFb7zVx8i3mdlTTSNczbTNbRTkQO08BPnJn1r6a0+nnPAHCN17dHAj28v/76a/S4ykqdQN2oWJMEc3njrykGAbR//35FRUX8H/D3fnK3n86o04OUO3fuYGugiMUyiorYTxkA7QhLuAULrgFgGaUT8dvxE1xcF+NY7rYWBDHzTfICb4513wRNdozPel/mu5BSkFU6E9BAPRR8l6gJ1qFPmVj2ZtF++NX+uLMG2pNyisU8vKpymg4GniE2Gza7fnvarzY7uDM7qDMrANGRFcBasyuAWbOLURmU6RrUKuS5U6xCnh9yrSDhasK6JHFR/Jdq5lq0cKGFlMIORf0azqBjtrmgbY+/ZUJiIisHapvRvMbjjr6E0AheHjY91ZEUFBQ+fPigQ8kennx3+xWszb1iYmKwNVDEYhlku6PR8rB3YZSHzu/blN+/pUBBDtfRXOccQr3YqOUzAGCkQDURKuPPOJyPrUfHp0pWWu6UXy31IMUh92f97ikwi07WW6S9R389v6ncxdqTeyE3/ijsBJ7VUl+z1so/xfPAseBrE9UZZq1CDuuDosqgjOKg7KqQE5AlyHEV8pwA1r5qONbAlpETX7zOxY9t4/5pSE9GIVnN6NpUEiU5TANFXlyhBol74cLE8Kjv+oeQcfxy9/Glb897ObnysM4krFmz5vnz5+BaFhcXR48snjefduRx2K1kiF6FxMPD8+uvvyJzIMViGY6OjnhfihSFFcBWRloa9qSApV9RV5tLx+J2oR2ALsexpJxQl4pn+3fTmqqSgDEL9VVUKmN/QGkmVC3hXXIiqJx8OYhTroc/o71whjRtoEcWrYe+3xKRLiFG/zCkwKVob+OUHLrjSPTFqdciJ0uQk8VBQZRBGMeoKuSopDAZaBBRBru+amB4wgg0zoZd9LDxpvVwmIZWS0lH6Vlc0HOe/N8rDjMEmDI9p52La+GCBd7OrhV5hb8/eI684929J9fO560Pi7Q2Mdu5bfs/3v36z7fv3j7/Hr8AmMhyEdqRx0ecj5kFB5SZmYndgSEWy5CQYBO15vhlon/UbcglEhOvYDZdlZXG60Z8nUOpFx6tj0lB0O38wFvURxBZ/l25sS3UF5IEujHbFJBKXXuEfC045uzeQ21MZrlj2n3w19JDvX5rg7m52YcVAstX2Buv3bruBKzuNYnM+jFgVCEHljF2XzWqZSCoMxpElIEtgzGjUX4u8pKnA5tWvVOSvLhkipFtkxFnFvPPgVZijyqhFYLRgSHHd+8vyym4eaMRGAdyEMTt+la8HxdXkIQy7bDjc4K1HxIY4GB3YIhpGe/fv8d7UbRoPndHcquqCFz5dyJuH1EQAQELMWXEMm+dXI67Q70CaYX82E6CHvAvdDBn0+qd7ZDE2dybfOGl4HuzmKVeF/tL6zamWfSf/O3k5kKDNexnK0QERd1M/Hf5ZObOUiFyRq+TsWY0yEkN4BqAUX3VKIFGQXDd1fCWyo2diX6pi7gnbtQylmRFxTcY2tRxKu5+AqQrm5DFdcbRV199Jb5S1MPBuaH4OrCMR+24kzkQsADaMSdEfDlLoEGbBGVaRn9/P96FIlVR1faktghdf/DvEPeALtiVs4KokgDLJXSnVsmswoEGrWURbUYDkBdArwa63gvW/i6Op68fl5OFQyGqZFbJZjMaGl4NezSLkxcNSe/Ild11e56nhqWJrmTT6V5SXMrLOmS3Zx754WcPyowGCDRwrDGpGY28wNqikJaSiO7K6IH6uPutqQ8PxB6jtneYkngXLQrTNuHMZX5q3DBYq8A7QZNgqnTUNCrzClGH2q+/+mrIMph2wAmhzWjExsZijyDEtIzr16/jXShyUXNtT+7I9ssB/1ZTViMqrABQ3QRA7cFo5mJQWo1f2mCEusoLEegERx+mrLdpNwbsR0ejal8oXOIJjjDVZaPj07LlHTKLjmOvksO3jR6DyMso+tpGHlx3eQZDj8lA9FVDwxMUaJDDE8qMRm5A08XgjuKw3usRA1XRd2tjHzDqaMACPJd331BSmHI9biRVUcmD6uYP/gIVrj5TntpEbJHXFeGe8gS27hQnMhDgTOCjpC+IiIhgjyDEtAyyPRpVEYZRRAWnLgFemG5Qt6GsM6WeqArZ0AFpBEhK4KlBd1sf6gU51u1VEj9HnKW/PQBXBqyI/p5/OctEMZCuuhHYGfjFbNbCif2lbQcMLvpP/ro77pgQa48MHp7F7vY+x6KLp1eFfOowZjQoneLzA7sKg/uvht0uDb9XGfWoNvZ5A7VmVzyq2QUto23z04QgNiXXJyNvadUKTr/Sz4RnNhFn1a3XiSmqLxVc8PU8/CtkiPvreVI8S4FH6C1fKbQQd1rN1Jhm8+pYOW10BKTHjx9jm6BaRjIlsZ3Udrs0VMfJWQEu/jkYfYCo2gRoxdUik1sPRDHjgsJ4lmYll0KYi0FH4+/ILMzxbUAd2D/Wk81d3r2++Vl+XbM42VkX90v7rvfdB3/N3HFVXpa54gVotaJKUuDOi4ndk6kVOlvkBPRehO2RhkvCH5RHPa+O/o5WhbyBWRyUqNkVD6uQN8Y/a0p4dmVzi5rylLNC+Hl4tyjoD089ZOXwifDcNvKWeUCtocflNU5gO3r0AR6ZSYuGHlM/fK4Qys/PxzZBtQwvLy/8PEUnPTNhzcjE3gNOB8F/Xaxd2pPaUc1IsCXqRwK6pCRxhWJHS3fqxXkj+g3bZFZEuFsSehXQSmHR3LCexaMWqBjqmGYFgviCJfN9JtTF/9K5733lyR5zE9xmAQgMSVysPQ6FXZxrpwCx0oXAAeCkV0Iflka8oKxAQwW7ALDGH1mFnFGzi2h3gmt2ocqgz5uSn2+njAonKUk+gf2rjWnnBwcOo3GUZE4pxsfHY5ugWoauLiycR1NxSAXqu1Uf18E9f8GSJUvaU1D9SLBFwH5cx2JO4ReAWCiulrw+AaPnQUk2+kAbIsXDruv/geALszgeqV//S+u5J36ezGZrQoLCMT4bs6KaZ9y0mT0ggrgQOHg5dOR6+POJ0mpYqpCjksKMKuSoMigONBoTXuZvqFZVnlqZPEVBkVNTnzzn8JcFDILwqcPFFRQUhG2CahmSkmxWK8GOGIzuWxbS0FPOJ+QTdatvEg8iYD1rXS18DxnEybSLYaw0k33+uO3rWDJYY1QeNWt+0b7z/ZaYveTdR0kJSTAGuRBL/1QzIS+wvzB4GHVImvoadlyFnFEZlFkclFqFvHRTv7cjvIE1eemKS1/QtqedEBw4jM9tiyB8AnFx+fr6YpugWgYvL73EywpeIbIvBthut4IZH0HuoUS/DNSeC7XPgN13ChLL0KuAdod/S70YaqLfgj+2tKsLAP6wLxx3/XXethvU48yE/F018owV7vKyiql+B7KD6J9nGuQF9INRBmqPNPNbv3WxsDgoSxXyOOaMxtXUHm/nqZnFyqV8p9UsaacCBw5UbhisTZHVYVtjddECvG6Y2qaAaRnoOapWi6iRbbgAlVHt4EHBFYLNiXcZTTQQqHnXiLsdng0RFhKujGWJDsAVRbvYEJqqY7beczBzq4tnHmHaVG176GSJixqpKmpsCz42kybveYE3LwXfKwl/MmFDlmlBmdEAgQYxo9G86acjURcsTejN7idUgowmZ303hwlZtQQv+khTMqQ9xc/IUtu2bRu2CdIyfvvtN/QcVebydqhHBgEMKMyl4BV+Jq6Q0VDjUSNsrvGY6M3zuCSBWY8zyjuFdj1Qqwev90rb5ncC/MPXMRy/gFUqiupVKS9pR5gqjcnvNvjuR1OqyooqIPaZxk3TbP9uMLC6Fv50bjxiND/Xxf3csP5tdcrT9NA8VwufZUunXKrHTEiSk4TOYZL0m/mvXoFL0vhLq1KfQg8CVVRUIKMAwpbx5s0b/CRFXpohzagfF2L98D572HgRjKVhF6+4p8TqgGd4S0zjR3szb4KQdTpJyEkNJXllC0Nb8I80RgILVXIy8tfjZlop50z4DXkZeANVTlYBRBZTnd0EIykw4iiLmKltTYHYX9p2vstMLY/2S9ZUY7krPnmJL12eO7ki9Bw4kNy1DDEQwVOZFqsUUHBaa+CBHgH68ccfkVEAYcv47rvv8JMUheitb4ZduUZgVy5Gby6+RbxLly5tXP8do4coAM7MNRAtv6riH4GRC3q5vbkL/aqA3VsHwAWJcitPBdSAf9M6aIkIryzfNEJ71ZRo2vjOwwLeExETkUz23k+uNJ8MREukB7NffYMddXEwxb7nzJvCQzVb1+82N2FJB5qGAiVWP+Ss4OQwXRzF8WSftKDIOQ1rZ1FcU97Ozg65BBK2jKdPn6KnqYo03NSU8AD3ASW8oynhvudqF/DUkeh8YsnAjwQ/4XUEcPt6Z+hx9HKgU7GltOvkRvSbvECczAJGJeAq1VZnubmbvama9pIpkRXRJC68SpBfeP26nfkxdEcYC2BkV8MeoSZvc0X0L3Uxb+vifmpM/K4kpn23Z4avqZ+y1Ox0A+Hn5uHcE+Ewc/yl6D2MgGg9TbBlPHr0CD9PUbzJLpS/QOkG+vCszzXwlLmhNbwAYt+i1QTEvB3z8lBRwksGRFeKVcbRV2FVR79Gzy5atOhwwGVNVWYQHuObWhf7jrb/JKmJ+TnRZyeIWYLdYyczwZnl11UQNFgS/mTOWjdj6mLenPOp3ma331fHZ42UxpKFs1PqhpTlConbFkG03z0HDtMjSZZlUOzq6oosghS2jJGREbwLRSmW6WQPYQaw/7j0cljw53I8S7Y7lcwYZvb66FbMAHFRXDJIjPEPIHUVzfpE+p6TpCTpro6CiYGyZYZPKc0aRpPt310ccn9unOLn+rjvqqOHT3oUxJumOCo7KhEFiuZIPAsWHlI2pf3KOUxICaek2LiESeLKvkDV1dXIIkhhy7h37x7ehaJttidRLgPBU4InjQlP4gxhElTcus2jLhgmXg4B6CBA52LpyytM9NmUq81NbKLtNkn2exYpSWpu9To54VKLnIDe2cqdr4t5Vwfvbryuj/uhKLjjgMuZUINoIxlj0WUz6ku6gkdQU0THWsZu/jyWxv+jpbFiZYfJX7oL4bSJlFK/ZR5Ae5ADCbVu8M8//4wsghS2jDt37uBdKNplf57MaCDuicDsyYb4p+URd7jnLxAWFqmNpV9IJKVxj5cyGsOukpKujGUZnkR60VPg1tr6UneYPJ6acQE2cRPeEAGRRUnY41lomxb9S0XEi5MepcnmaR4aPmqiqovmj7cabXwJ8vKriynriRs5yruFacXsNEs/aH0CILN8gm6GDmJytF8zh8mTsEozRVab9iAHks3yeHpRUlIS+QNV2DIGBwfRTlQdcC7A2ZOIeCLzGmzjn7utdgc7ZERdpF9RFHaGMrPpIzwTqU+djmEuFUUq3zzluyQgWAhYs/mQWxnNHWgAs7gc+mDakUVd7Jtr4XcPuuQE68cayZiILsMNJqYqMb6VOpIajipWEUb+u51ScwOOtSSVdKdWXAq4dND6FIWTwEHwa8ZQqKQK7XfMYUrsVzQUWbiY9iAHEmcpXHglMjIS+QNV2DJu376NdqIqw7WEyGsgshtgGiXKpIRVG3L9msAOqqvp6SQsxP6ioaqFDgWUHddIfVaYUqLC3Xod9anJUBX1I61WIFum1NykJhotvnxdFvHokEtRuMEGYxkLQV6WUhoTSnipkI6kppu6Y6xJ2G7HLed9j1dEF3bCckSoOhGgmqAKcc69mGoZrops8omp2qNkRPsFc5gST20iLmjYgW/ymKo57SkOCF5GHlZVVRXyB6rGG5ic8rjByKREyZQ4nxJtdUThStCzsVW0C49KTnwLOhSQzCrZylhmzYv1gczSGDlJDeTjk6Ey8tU4OfWIC4GDk1yvScxKvD3pURFttNVC3l6SHyfyTyiJ5eJ6Umu8tTySLOKPrk0vDs3vTGkkaOjc0NCZUt+5AdK1oa5zQx3Ydm2oJWDUNEutqYq6ccr54kHr04hoHTYlS6iadsUUDiQjVqHN+l7L5i+U5llGe4oDIEsTpybIyMggc6AJW8bw8DDaj6rj7lWMZErEKyKrElVw+GGf4wWwj5mBFe0KpOHnwlwS7uscRj6em9yIHlRWUm1YP4Ubq2UR342uCUglx79nEvnyP4Po6aTn1TCD9doSugu/maBsP/9ifh1JbR8t7w2WKcc9jl4Nv9ye3Nqe3NKR3NKe3NyBSGnqSG4itrBYGVG1DEJUMKuHDpJSR1CL6NhQm7+u+phDfjrhF2kWGXzc9IpkpPi4eThN0meFYYsgYBkWArCY/g5FfdqzHDRX4mWgp06dQuZAE7YMtq0VUy1PkymVDMhqUTD6EFsKK+vmxbaPuiCZlMc9XyHA7EZ9PPoqevza+gfokfh1W8mdJ6Qs4uVYTV4RBUG3a+Dggv5CRH3s28rIhzvtTloo2HN/M960pYKQopOKc5zp+hOep27E1rQnd7Ynd1BoJ2jrSG4D3gELlOEaZahkGbAPBHSQTrhlRB8IEH2k1F8Orsn2vnHUPgdZhobImBl6AosWT7KtJocJGTQLBJaxUw427uT+el735JoP/kU4omKGTjkNDQ3kDKOFLYPtTVYn5RBijRa4AgHQO8A4HxoHo5pDsvkxsBvbheFUDkbmoQMCCfALXI97BB48H4WjjMwoWMJvMpRHfj+OX4CnrobBI7OlIuK7VMuDWuJjNoYAUhBS8tH2P+h6rDauqZUoX9iW1E0Aq58y6GyHhchgXTIIMI4kbB8EIPSAENEHjEGI6APEICj6ILZEwdTKyLps75os7+p067Pp1t/6qITgDzFKIL74LPoDPLQKrTf0LNB22K1kGCetGSij7rJqtbmEnLGErP0qJS9plVAZ9SQZ7VNqljMpMDdzBkwDgGU06HksJ2516fAJP7OJoO3z16RIG3c+4+bmpq34pApbxoMH+G8+VdICq+sodyXRKk9GQQdc00GYmB3MiW0ld2OLoxW8w4JkZWIHHtkWCO2GdzFvXdykRiVVUT+O7xdjFQctDOr30Y5cyg3LHY8WP4+Ah4bvQdcTNXFtrYk325L6W5P6wRZVG6MUHwNgE2lPhibSnkwCAhAyBkH20d6BYpAUEIbgCqmMmqkwBqmKagR+ATjrXppufWaLyYGF89iHPIsXLKz6VLsE9Jn552vbb5DVsRVaJboY31CfvJSERQPkNMDI+SNn6N8y8QeWAYiUxGuUkzk3XG0j87TsFjG66l25cgXZAlthy2CbYwJUFDBYF/VTXfTr2ug3tdFva+E9BXAdQu9A0cd606NgN1MDS+pVOpqy+GeCgkLomEA7Q0/4u0SAf5gbWdP2ZEtNzM+j26CQZPt3s0sk+/m05w1DaXozaySeBYsdlN0y3M62rB9gVh6D25uMmmP9rZA+CrAGamsiNI7WRBR9UGMQVAYVBiCM2qiEfSQR0Qfc4gCkNKwxy6sWkO1Ve8KpON3qrIKAMv5YrOKev+BTbn0KwooB88A2k3XV+u5X1jjnaNqeULPYq2S0SW4NCCiMxWWElrC36dEyEZc9qGxCO/4cccsERhmAWt21/AuwU/+V03+BZa9Xw/f1eXh4ioqKkCeMJWwZ33/PbOJIVYLRgYaoHxqiXtVH/1gf/RPB67roN3XQL3AAIsQLk+1HL/GkcTy6BB0TCS0VD/OKp+3GlnEqlef494y+M3LMvVxHgn27M11Jo92Ox4hiYqiw2G1YeWw9LDvGqD820Aq5xQA6SGsS2MIABHgHiD5aWWIQFH3AAIQ0ERB9wCEMSwDS0bS+rdAf+EVdtlcd2ALXOGST5acGrZOtwN9w2m/3s2PYMhi4XrqyScAqVRl+nOI8loSX8u1QMR6Z42RcNDBBbJDG+RQL531zdY0zbc8vklZjH/LfIE7coKQvsgyX2DE3NwehAzKEcYQtg229DCBtMZPGyBeNkS8bIr9riPq+HvJDPXCQqB/rANA+XieYwCIaazT1aNftaKiryJH2xJ2k7TOa8sjvaTZBAvyCVoP3hEeV9hhmYSnvmOtXDosGJRBFgxKGmtcjYOUxYB/NwD4ggxhgH9QYBHkHhhaDwAAE2AeKQajeQcYg5eEt2d71WV4kdaddr+00O8a7gKU9P6kt8rrkr/aLAZyjR1XNPSWURMYOQJbwLE5Vn8OIA01/Ipr0vZR5cTPBxfPmf/Gd4u5QynlSJSwsPLpd81jClvHrr7/iV49SWeBAU+SzpsjnTdA7XjRGvWyM+q4x6nvgICgAaYj+UZAINMZfDAqoiP2OmocGlLejhrYPjbHqhgLAeITqF1dDHtgoeuLjUrTwG253Nf/i4Obm9SNk1Q+Cu4gWovJYCwSVMh3ClU3hlohBGNVPieiDGoOg6IPYEjMgjOiDDEBgDFIb21Xg15Tl1cBK/SGbHD1xPEFNk5Pol78evFTP1VNUYeH8+fhnZpWciGiZnhvtJbPCXYtg0jIAl7UceeZ9g94UjFO+7Gpm62WYSyuRdHR0Jm8WSNgy/vGPf+BjjFKK8b6m8EdN4Y+bIp4QPG2MeNYY+bwx4jlwkAbIdymmGWBPSQmpCat1no2rQodFKtndS9uBRnHIfZpTILL8uqjjkSTzo0sWsvnDZaPoXhLWxaz6EY+rfjAgy5fCsmNNOPqgxiC49CnwDtYYBBZVJ2IQNAOCYxDGDAiOQW5Ed1/0b8nybMzyJGwCbQlOOF1JNWTTShJIabnQX6dm5z2rkD1KhgrL2Y9ZojSMZr3t4wNLuJSLyvHV5t989TV6R+Aal9c40V7yBQAM2mjlKvQzAjk6OtbW1v7+++/o8p+SsGUAsW0jAqQlqt8S/qAZEPGwOfxRcwTgcTOyj8inTREwAAEOIiMAq+ZtCNhDXsZjEegGW7EiVR0Ypj1LBZgC1SZIsvy7SL+oiPhBX4pNKV3ZFatPe5U0EnVJmxIALFU/iKJBuHQQUXmMKDsGY5B7zQnUGATVPYUxCKp+yhJ9MGIQAhh9EFsYgFRG9lzwa83ybIJ4MbZejYhTLqUHrM6rCbNZiMG7kLvrL7lSoFjHSXsFm/wdSUGh2b2Gn9lE0CwDsEOO5e775i9oVFih724qjnutAxkZGbW3t+NrflpiWoasrCw+6ihd9WlqCbvXEna/Oex+S/hIMwSYCHQQGIBEgADkcYZDAdgT+M71+DEXRyAqY78nF3c1Hh6vLXNh8BDVKUiuheFXFQXdlVlBv92whJtvg8WhhniYdIsT9keV/CCA3sGIPqB3kJXHUABC1D0lHATWPWXMgBDewYA6AwK5Ed1/Jagrx6vlvGfzec8mBPALtEWcdik7YHk+fs0O/HFZ9a26Fe1X/pfinIa1+BI25ZEP6czmSvkOQx+aZQC2yOp+hd8NykxA/LNuQFmu7xYvo6kszHRhdXV1atXfaYtpGaampvjYDC2ch+/TRuqsbw0bag0bJrjbGnavNRx4B7QPEIAQMchDEH3oS8LqlV4OAeQ1PxbBbjHoyM1HXtCeIqmK+pHmFIiLQbi0z7eeLfw8zBu3SPKCqldDb6KupQ2w2AdZ74Ms+QFNpCkBmggRfZABCBmD4ACkGcUg9BkQlhgERB+1sbdLQ/uKArpyvNvOewKzoAKMozmLsWX4RRZAejlLL1gkT8nVtF/8X5PtCvpLGZlRpOI1Z60vJHmflcY21lhDmHtx3md187XJyOvAamMPUXkRXpZlMra2tjU1Nfg6n7GYluHj44PfgSGJpZLOCnAJlvhSybaQgbbQwdaQ262hdwiGWgBhwy1hd4kABMYgeWvxPMXpmDLyymfL9hC4mgOobA+9CjnJpWA2N1ZzAnpRZuqJtXU88+m9moxk7CujHtbDXFsEo086S8kPXPWjIQ5GHw0sMQiOPhBNcItiEGr0gWOQG9FDV0P68nw6Mj1bzzOhWQYJdI0TTqUHLLOjtLesXqGBPzFFknz8c31/8TPijkWQtyS9MKqr8uysubpvGUIzC5KzqlaCC1hG6I7C0oMWgbQj/Ck8sAoFY7TTapZ7lAyTZbWTZLVDZTS8ZVTtVymZSMrxs5bdBhITE4uNjb1z5w6+wmdJTMtg2/m9IaBNaDFc3/mtQ3Z7yC1IKPAOaB9tobfbkH2AACQUxSB3XZWg74iJilfFj9eo/UBkDnF4rovbm2lPkbBd64mWeGa4li/8hv5XyEszhpFuS2bcogLoZL0PsCXqfcTB6KOBGX2QAQiyD+wgo+ueNq5/WB03fDX8Vh74bN7tmZ4grGhDWwZU+0AQluHRFL1mh76YxdKFYzYlmaMbBJ81F7TthVlvx66Rkp2VueF2A2+aWZBU67q7CbMM0pfNX/gnZsqDEyNmtZ6WhDT+NONKRETEwMBgy5YtPT09+MKebTEt49gxuIKbpnKvygPmsNmynYxDR3BvO6SvPbi/PeRmG+QWjD5CQPQBHaQ19Ha5X+ti4o9/oBubkp8kR6OLicNznd10jfYU4nr4c5pZAAqD4VzpEbfqhaMyypLMj5DptmSuLWRUvQ8EEX1QYxBGAAJ7skD7IKOP5uQnN5IelMbdKQzty1rXed4LhBXtmR7ALxhbwjVoAPs46VaTanbSVTlMQZBNTEGTL2vLGQ4kw5bBVqLM2Tsge7lZqDBEXZ3BlixVa0VelsTildyLt8jrfrQJDhDaxElrilEaX6mpqTk5OQUGBiYlJe1gKCMjo6CgoLGx8cGDB2/fvm1paWloaGhqahoeHv7ll1/wtT2rYlrGjRs38Eej6LxDZmdQh46IzoJ5C2p8azuCuzuDezogvR3BfR0hfe0h0D4IQAwy0B46mKCXil47znrQM7GVaJ/tERm0pxDAHWh+AYKO6ujXxcH3+RbRb8jttMtD6bb19FxbYguLfbCp98FowoKiD6LmWPyLpvUvWlJftm//rmPXi5qND67EDub4d2et6zrv1Znp0YHxZGwx0DgOO5VttswM0tlio7ButdAavkXM5N0JtWjBgn4zf9oZw4FKosIa/GURWq820zpDz2wi2sYONEh2yumTa71I+Ygpzmniz32r0CRFXbIfqqio6KZNm4AF4AuVVc+ePcvOzo6JidHQYPOXiYeHR05OzsbG5sSJE8+fP8evmZmYlvH48WP8PhTtMdnZFdhybW0xsIx4nbjOwHbgIB1BnZ1BnR1BXR1B3ZDgnnYIDkDagvsllkqC10qIS1bEse82lhMHi3oB+TgF054C1MT8PLqCTnHI/dqYn9VF6UXudtjmMXNtY8hcW6KvCoZZ7IOIQX5gxCAwAGlI+K5l8w9t21517HrVte9V+97vq1JHLoUPZq3rzvTqyvRAAL9gctqteZP5OR/1RDMZd2VhPZElkgsY88RAX3319aL5vGCL/z8JJcpo0U4aDqOh1rAFOqVjS9thqgyZw8IZkyFTzRoMVfjmsxRVkeddvllel23345mwR8eKj5e5IHjt2rX4+mTVb7/9durUKV1dlh5AE8rZ2Zltoa0piWkZQPjAFMVpRXYHNHUHNoeoBYovEesKbCVo6woC3gHtA3gHQVdnMPAOaB8gADlmcwq93MOefRHgooSbaAdtdV3aU4DRyzFAiFET89ZfB8cvpDZanaW8kMiyJbqr4C1rsQ8QfaAYpCH+x+bUn9q2/tSx+3X3wTeAtr0/VGx4eDH0VpZPzzmP7kwmpGt0JRqfsJT1Fls25q3o6Ulw8ZK/zsKtGVKg7cA9n1l4feazP11G62juMD4HlUychWTIZDYk4YWL14kpnlSzmHbV8gp9920KetbSSktGrY2Kjo7GFydDP/3007Zt2/j5x6zGNKGA0YwVs0xGLJahokLvleQsa9ft39Ad0NDsW82/aPlJq8PAQboCmkHo0RXQQjpIJ4DhICAGAQGIEaPm7cEIEAWQVzXmejzutLSIexGZ3kZCbfiMuBw6ctaLWRMQyUs9FmXZwjQ5mGXLzJQj/oFzbQFE9PGmMflt27a3nXt/7k5nUr/1xaWI4fM+vZmePefWMvAA227gHWCbYnpGR9x6PiWOmF0dWD1r9w7/ChTpOJKusXI5/z2rENoOU+KpdXjrJIYno8lSs4mRUrcXXKW+VJB6h0Vm8bJ1YkonVC36TNnbR6+pX62BR6GO4x4loxDlNSaySuQAZCyBEUdxcTG4PF++fBkXF8fNzb5OwlR17tw5dNVPVSyW4elJz9FQXaHU41/XEwCo32m4UVtYvScAOEhjT2ATij4IgHe0dCP7CGpDMcjVtVfQEZYsWXI5jr7Esy72F/Qs0KWY27RnyW7PJNXRrxVW4OoGSDBfDiW5RL+qh6BEW5xlS4Dto2H9u9atsPtpdzrgHaJ979vy5Md5AQPnPHvPraXgAbbQMg46Vq1VjRfihSOs8cXHs1x0mZiCoIKmqLqxpJ6djKmnonWgkmO4uo+XoqungouHkpuDvKORpKnCqFVnQrxLaacUhwkBsQb++ri4vGXVaM9OlXFuuM4c4EfrpTWRs/AvoN/j+9M1YZ47W7FYxp49e/DBGOKdv7jHr7rX70aPX02Pf40Sv3yW7TFoIv513f71BNBBCED0QQQgjBgkVA2nzelpG5J2QLJ0KV5tMjqZLT/wFtUvCoOH4owOoJ2R+HkErwfcaox8TmS4vCT4rj4SZdnCRNu6qB/BAKRl45vO3T937f+la/87yIH3gLY9P5fEPcj07j+3tu8sE+gXaBull64oOGZNPZ753Ppi8vFy2jmatgPmLLfrHzrvGPI62x9wvS28D92FuR7cl+9VTZJoRF/xuVVBj3oEDpPhqW3EMVVm66yZr7YCrtE66mqfI0q0nfPUbU8qWxxbbYao0fdAHyNHy85w5WRLVdO0ko/fZpVioJzGRrk1R1TMCrUdLuk47lYy9JdR0xMb8+7ssmXL3rx5gy/+SYvFMioqKvDBKLrhfqHPr6oXGId/da7dcb2VWr3+NYAe/9pe/1oiBqnv8a8H0QcBtg8Ug8gux7fHgtyiab4gKYG/HV/nUNpTtLnPq6GPaClnRx0vogQ5SCTKsoU5co2RLwFNMd+1bXzVvfd1z77XPfvfdO97273/Z0Dn3jelCQ/Pe/cBsyD8op8A/Rtuo/QOii5lP1WhISSWKKs1uuDNiFv6Tb+SjrDuxthno1aCvKiNeZzvVUNw44LXDWs52AGb1BLuRTOMq/+y3LMKTWW05xFasmzmNz4fWoWNs1Jjjmg39HlkRZ/GqtB3txefoPEVqUULFgTJa17XnaCO9F3LEGCyVuwOC6IEfPFPWiyW8eLFC3wkis5Y7unzLe/zrejzq+j1rbSWNLlgfwI6CBF9QIB9wBgE2AfhIBAiAAloKHDMxEfh4tod/i3VF8gWJytXitazVhin+kVeQH+iySG0J5K3aujoDBcyy7Yt5UXPnh969/7Qu+9VD+THnn0/AWo3Ps3z7T/n3oPBIxEcZWy2yJfmZxn4IOkLS2aomI4+Ix85be3zr2yIfkasAYErQfAyELQGBG7RMpDvCn1b8r1q8wjjECVuJJGKk+XcKJk+4GIzX4n/frpKKdGenQbPbCL6jHGNv48AeK/nY9ccbTby9pTA/YfYSmr5imksEgGHdRSXx4cgJCgo+P79e3z9T04slgEkIEC/C52qHd7vW9rvW0ZQXuOebyNp0udXSVAF8Sfswx94B7QPAmgfvQHQPiLUA/GBuLjOx9aTvuBg6YYf5eLKj+8gH78R/YZqGVdCH0jyMVfyiC6RqAseINJbUIYLTHJBGS6tMY97drzo3/uyf+93fYB93xP80L3n+yuhtzPXdmW6A7oZ9ECIyU5bBeYnBOKbv9BHTBGEu2zTrofXnuoI7aXchQFb6koQtAaEuRLkamB/vlddnlfdCWe8eo0UZy3GDGnS91rJWOk0Wx0b7lmGTGa9xkwA4Qx4F9r7sqXb1DdoFbOjMtCiBQu9FDSuzKyA2A5FWF2d1Fj3cccS3TJsbW3xkRhyljbvX1dCcK1/3XVAqnZEltX+Pt8yAhiA9IIYxLcSxCC9cAhDjGKIGKQH4F+jsBxH+ysEVlxhTIWGeSSgB4GS/HaRlkHLRttrDxNkSZ12zGdkuKD0Fpzh0pn4sH/30/49z/r3PAf0we2Lvj0vWrc+yfPpzXTryHTrxEDjwByyr5ATUEdHVloikCSjXa4/5n27O55ZIJwh14Ag6CtB4BYtA8ErQUpD7+Z51gOi9bagN0IyFZOhHZ/DVLlvGXJaxRJ9n7rCkrRnpw0IN4bMg+ZinNKi73XbLHCqBc1vmQdsV9BfK7X6qKr5bN2PVxJiqTNw/PhxfP1PQnTL2L59Oz4MQ1JLRG+tu3ITcpWg5Oa6a57ydtA+fAHMAATYR78fHL+QMQiwjz6/6kuOZ/CxuLjkZBXK458Ba9gaAqvyIK3R0GtKxWOTyijmooxs/247eQ+8ExeX+SrrdpjbgtJbmBkuPRsf3Nz9mOBJP2AP8A5oH3Xr72a5d5x3az/vBrYQwjsI+3DvXG94lHcBnIK1EpQa37bvuh8HQQ3jLgzLfVzmShDmMhByJQiMPioinuR5NgJMVtmjnwLphJoF7V04TAMQEViJ4CB01rNOhy2CprpwYyzA5wRm8cT6U+l+kMS6mhaoq6sLW8BEoltGfX09PgZFrWuzb/kUA276XCa4UmR3+LTZNmAfjOgDByDAQfoIE2EEIMQkiG9FolYYPhZRJbQq5oeTMdfw/wlV7MMprdQo41LI3WXczDX2xWuvk+vTGektA32b7t1MG7mV9uBm2sObaY8gux/37XpUHnnrvFvrebc2CsA7IKedG42kYMsGOxH5RiMv2rdJ5ZHzjs7gTrLcaX00uQwErQRB9oF8BIFjELQSBBhHZfiLPM8mAD9lnfuiBQs4y7dmhQHTgBIt54XfwGqAWkJitGdnhafW4eBq75yWd4CwotfIF0RDtGP+6YBBsQhrHwkdHR1sAROJbhm//fYbPgZFZ8w2D/gUAW75XBrwuUTYx+Ui23QQfRCQ0UfJTd9rIAa5CaMPFIAwYhC/8jUieAgAZGvuVBjfj/9DKMQL31Kpjn5NWka6E3P87yLvysht6e0IgektHSH9fRuHBtLuEwDXQDwAXAvtzXJrIWhl0AYAxvGtc8NqQS3FZeLjpwk8cUgGEROj1iksd8qodYpWguBlIPXIPogApA5HHxAi+oAxSHXk93meLSedr+Mfg5AHpy7GLPHIKgxcmQESeMFLpb47bYdZ5KlN+F2L4D5jPxB6tBt6s70v22bgBZ7tM/YfMg8efTfkk6LH1I9a2g9o/PYlpOiWAaSvzzI7AhSl7D7gVTDgXUBsL97yLiQoIoAOcpMSgEDWXe33gSZCjUFuuOUsWbAYH5GLy9uRZdKRh4enbjNMbK+JeUtahpcqs4fYlbWXO/Dq0i6U3tK/YWBg59DArmEGdwfS7t5Ku1cZ2Zfl2pTl2sygheS0U62qkEbEqgnKLjxw3tMSercp4kkjcRcG1jqFkLVOiXrrcBkIrd46jkGoPV+qwr/P9WhNMWaOwoBy/sJdM2YdEPNf1XJCX6y75CzcOpkSIAYB1vDQMvSJdTjtqU+fh1ahqwVXoq8OSFdXF1vAuGJjGRs3bsTHYEhfWGXQ68KgNwJ6x6D3ReAdBIUwAPEGMQjwDhSAwBgEQp8BKTlmwjIFSNO2yEPoTzSqlJHl16kmjJPzrKQsaLktvXE9gzsHB3feHtx1h2CIYLg+rjfbtZGwDCrYPiwk4CoX2hdHY8jzHHkXhqh1Cm/i4lqncCUIrnVKLAOBMQhq14BiEGgfMABhDmHKw57lebR4qTLLnQLd55TSmT1uEt3PjITwDeyb0030+GtSa8CcKwT69ddfsQuMLTaWUVNTgw/A0MJ58we9cge98gjyCS4MkDCiD+QgzACEYSLUGMRDlk1pXyQpyVWoQHluQB+wjMLAPp75ePV+jsOZbsq60u6Qttvbb97ecWsQMjC4A3gHpHvjrWzXhmwXTJZLI4MmQLxG1PjNTZ/ZJ/T5VVHrjDWHUQudUleCMB0E11snTIQRgKCeL9BBSoPu5q1t1BdnZmEaiK6ivS+HmYBWfGesxmUoU+V0aDtwGB8TCebyxdraWuwCY4uNZQCNrjZ+ziTltlcugzwA0z5w9AEDEJYYxKcQxyAQbB9dnheklrIpJI10MCoXWEZB0CCwjDMeuKaGDN8q5rpSIrdlIKX7zo5+wG24Bd5x8/ZOaB9F3k3ZLvU5LvVgSxoHItMmq9PUj/ZlUXnktKUzuKstDN7BbcWFTu+iQqfQPijLQFqQfcBK6ygGedLMXIdKjUHgDEiJX3++e534MuaiXc45Pbs8Z1QMF+CBtZ0k+ARoO3AYn2RZ3DIO6NixY9gCxhZ7y3B2dsbHYChQ3ua2Z9Ztz2wGOYOQXAgIQDyRg0ATGYCwxiCQi7cYkyClDkd5RpXVQpKVlm/a+A61U9xifgQ9mKQdhdaVdhPrSnvDmu5s7yHovb299872vtuQ/pqIthyXWoK6bCbQPopdK57ZRtO+KSoPnNM6grvJuzCozlgrrDNG3McFJhI6TF0J0kwUWydiEBCAwBikCULr9gInQYo8Gi+4s9QuGmfpB4fpgW6Fuq/E6xovfP6NKT8muxQN0PcGlJGRgS1gbLG3jLNnz+JjMCS3TOyO53mCLAKmd9z2yiG2OAABxkFsQfRBjUFQ9IHHL8eM2NQZRToQm3Ut7CmwjBDtePRIrecl6rrSwQ3tQ9u7KUD7GNjSk+cGzKImx7mGYRzYPvJdbozYb6B9TVQeOu9Cd2FgiSBqkbFQwj6YK0HuECtBUAACYxBgH63hcPxCWYfKGMIQAUh96P0859JthsycOp4FC2nvzmHmDBJtVk+pwAL3QD6cqohTIUGemYR55MgRbAFji71lPH/+HB+DogaHg3c8zt3xyCQ4D/E8f9vjPBF9kAEIYR9EDAIchIhBcPSBADEImgeJVGYuGKdKUlyyOgIW/nRRXAv+u0ZYvc+Puai0P7hmeFvH8PaOoW2dQ9sBXQTdFUGNOc43CAjXYJDrUnvTcR/tO6LyyGlrV2AbrcIYcBCiwhityikudIqqnFICEGgirDMg9+uCBsrWtWc7FB41PRGqHI5+NCBdUSnaB+Awc+4xEtgFF8N6VoJLltF24EBjm4KeHC+frbhchoqpMKW86JkzZ7AFjC32lgE0upTgDk3fIY+zQx7nmHhm3vHMHGKJPpgxyB2W6APHIAQo+sg3EmGTCQa00WBrjl+LnihsKrFDL56xohQuKr2d0Di8rR2zHXoH4NbmjlyXG7nO1bnYNZjeUeFcSPuyqDxx3NAT0NgV1E5AVBgLxhXGCKhVToF3UKucokrrzHWogKbggRv+Hdc96y65lhW6XL/ocv2E+cmjpsd9FH3RzwXkv4rzB3D2eUyszgA4rMQzebOVcvIFA74irVHt6RobG/H1P7bGtIz09HR8GIb0hRSH1n7L4MydtWeG1p69A/AAgOgDMrD2LAAEIET0AbYoAGHGIDD6YMyDtLt+K85L710EJMyz4rpfnTyROF/jltPve71vHVxU2udbNry5aXhrC0Hr8La24a1tYFsb3pjrVIXIcarOca5GW/DfB7bJtG+K5Jl9Qq9fJbXCWCdZYSywvTMQOAisckouA2HEIJQy68H9rUG9tX4t5Z41V9yuFzlfLoRcIbiabZt3zPjIMdPjzhI4YAbarWRI+xgcZoUWwjLS5PGwPE5xDW0HDmxJlGVp7Pzq1St8/Y+tMS2D7dik3Sl9eO1pgm8RwDuGPBAgAIExSKfbsUFgKB4g+iCGMKwxCIw+kH0QMchl6zR8aFYlaAYJLOKTXLKSWNABF4Pd9L1+K6T87tZmCtA7hra2FK0F7lBJgI0D4lx9wzGT9gVRubXuMq26B1lhjCxQyFgJAu0DlzglYpB634ZKz8prbleLnQovORUWOxddglwiKIbe4VR8yuzYMeOMsybpNkLMTNwZ5iByGItOQzgDWrUGduoCUlspQduBw1hoCOJYQ0BAAF/842pMywAyMzNDxyKVpukz7H6S4BRkLQA6yBAERx+33b+tdzpAWAk1AEEzINhEqDMg3jLMCkuklhLrRAMUnakrSm9HV97b0nAX0kjQBOhNBiFGRZ5TBdgyjAOS51j6wDae9u2QgPcdXd2DAJsIS4UxwkQ6ApobfG5Uul+/4lRQ7JjP4EKxY0ExeMTpIrIPRKbV6WPGB88a77qg6qzPWGUEdMciiPZJOMwKfcZ+aGxC9oLmfNWTBES+6Buzt7fHV/64Gs8yMjOZBXKQDIUU7rqfgKxF25METO9A9LgebXDaP8wSfeAYBM+AwBgERR/n6x1ZKuhQlWWxg7midN3l4fVV97fU39tSj7bAPgA1ITfynMoZQO9AlNmfp301JCMue0dX9yDqmxIVxiCUCmOBTY0+FRWuRVccsgGXHXKuOORcdsi97AjIu8z0jvxipwuEdxRcsMs6YZyebZBSoGJ/UcVOWUAE/Th8PItpn4TDbIFumgA2yuD5/794Q+zJk6tlh76xtLQ0fOWPq/Es4+3bt+hYVHU67L3rdvSu2zGI+3GCE8NMcAxS77i31Tl9yB0FIMwYBEcfeAYExyB6QuwLEHV75NyirCi9t6Hq/uaae5tr7m+uvQepA1z2rMhzLMtzQpDeUd5vu4321SCe2a/vX1faC+/CMG/EUOubEsAApMu35ob7pasOWVfsMwnOAy7bg/9mXbbPxhAmAih2yC12yAMU2GaeMtpToB0EzAIhxotnpJWF5yTVkgOAbEpCjk38ZNVp+3BgC/BW9I1Nsi/8eJYBFBAQgA5Haouq6z23I/fcjkLcjyHuQrB9IG67Hauw397hfJAIQKgxyLfDHtA+qDHIgTXM9DOqGKs58FrSkc3VI5tvIIB3jGyuGdpYkw+cwrE0z6mU2GLvuOhQNNbarTueWf2wrgcuTUiW9iCqe8D6poR3VNW5F12zP3vV/mwJ3J6jkAlA9gG84wo0FBR9gG1Ogc2Z8/obLmq4k34B4F+Ek/FspTkJrHMFtVC4uRAsKyvKx0/bhwNb4uTw6s9JFtqZwDLa2trQ4UjJ8Qnfc82454YA3gG5S5gIJfqADtLlfKDMbmur0z5K9EFMggAHgVsYfRATqN/2ux7n+YZNN4crNnuJ1RxwHcegX+HIpsqRzVUjm6oI74D20Rlbled4nYCwDAZVdidp3wvikdN2Zl2PdWzqegD7aFpbdB04hd1pBt9C7M9ctTsDHIQA28cVCDMAuWB2IFfDh2oWCNIyghU4xT7nCpQFjzioZIK+cM6t1smwko//a66v0DfW3t6Or/yxNYFlACkp0UcN18zi77sdJshAAPu4z7APIvpAHKt32Flut7XRcfc9agyy9uRddzwDQs6DuEsxV62SilNxR0s5Br3y7gQVjWyqGNkMXAMBjKOqIbQi3/EawXUK1/psttK+FwSIVlBOLbWux01GXY9en2vVzuev2Z64ZneyBHKKgDAOe7QF3gHtgwAGICXIO6wz8nVCLqjY0MwCwc+DLWOzvC7t83CYLZ4yMk0QwjxwTVe4NGdsMgG7VYyBW/Bwzfv6b/AUFRAQePr0Kb7yx9DElnHy5El4MIoCpLXuux6653oIbe+5HmYC7APFIHB7ZND1UKXd5jLbTfX2O++4ZjBnQNyggwxD8AzIBZNEfHSKxBavINdxDAUXjmwsh66xsQJuCap8r+c7XGMCvMPhWoF90QPbBNpXA3jgsnucuh6dnkVldieu2RyD2B4vsTleAraQEwQnIcBBbBkmQlBuubvcMOyiii3NJqjwE+lSQJzGaHMK1TIiJeEqQdGly2n7fPH0mvpd03Up1nGqnkS1oUIdx0ULFnBzzeP527xFXPPQWaqqqvr777/ji5+dJraMn3/+edEilkZPyxbxPHLaed/1IMGh+27QOxhbFH3gGAR4R5/z/nLbjeW2m2rstg5BTyECEGIeBIxfGNEHDECUlonhN6DolFE8WscxHFL4YGPZg02IcoKKEk/gESVMiIijyDaX9tUgBr1yb1FyaglwXY9mt+zrNhkERwiOXrM5et0WeAe0DwqEfdidvG5zuNp8c49p2B0zOOtWqe1GswkqK4hVzECn1SxpH4nDLNJmwLSMMh3cMmbC8iifHYr8wiorVkatUr+gaVek5ZinZbdvtVGcnLaxpBzPQpbRff24pR72KBl+9Tcu4BRasjIC3IuBa8xjDE8SEhLwxc9OE1sGUHw8zhAjdVTVcsR1/33XdArIQRg+QoBikA7HNOgaNhurbDcPuKQTkyAwBkGjGGIGBE6CZKxhqdOFpC+khNZx3A0teLDxOoNSgrIit2sXHK7mM4HGUWF7gvbtAB46bafm1FLrejQ6nym1Plhqfeg65DBBBsQm4xphItcghIlYH64y29BiHHrHPAg1oUA5lI16njSboIKSsoEKvrjT95Oiw9CHtAyAI1FG2PDLqk5SoY/vB4HLG1zkCHDZg0gBbBdzfUN9UFJkZYEhm9mcRiMvy5WrFnB9DXbzNNcdOGJ/KsER/HvB37BlANXU1OCLf5QmZRmPHz/GR2JIVUjsqUPyiOsBgnQK0DLwlow+3A41OWyvsN2I6HLaw24G5AiIPsR56F1UgCpsd9/xyLwXmv9w43VWSi84lwDLoNFivYf2HQGGPM5Qi3qQVcXa3TLLrNMZHAQA7yA4XGpzuNQ6o9QmA/y32jy1zjjspok/taDjQ8tQ8gSt1HalOQWJwCJsGZy09zml28iX/HUACjRwSfcvaRLUZxVstE71C4CCqKiRigLCQFleRlAIPb7gb1+DndUkpSNkNbcr6Gdr2m6Q1dERlgBmgcwl0dN84Ij1wBGbgSO2yV4W87ng/kiioqK//UsCjJ4AACmDSURBVPYbvv5ZNSnLAPLy8sIHY+i6rutjx80jLvsB9/H2wIjLAbC97wq2ROiBtq4H77qk19ltrrDZUGGTCqi12zLgvJ9lEoSYAdmpBrNXaVonY3Zn7dm7wbkPU68+TC0huAYY2XDtgiPwiCusFPfY0FdkAHej5tQS2bRw2+l+vsxqX5n1/jKr/XBrfQBQap1OUmm+pdY4psVg3S1T/9EV5cnlQ4Amfa9idQeaWSDIUs43xi1QzGGGkAtASUyE4d1WK3E52p6fKf1m/uDHIf0CjCb2hRl2H1QZyFAeyABbgNpAhvpAhkbbgTVbA0wUxcR4uOYBgwAvAYB/oGkLgKywyPlk4BTAMgBWgOGTtvra0I9Ibdy4EV/8rJqsZfT09OAjMeQkpQh+jIfOOx647BsBuELXYGxR9MESg9x1PUBYxoZKYguMo9NxF20GBPjIckpJYSTueQtaHA/eDcx+lHrlUepVghLAvZSSC47AIy4TYMu4aF84YJNK/aIB4FPBlBZGNi0wDrDtW5tVDs1ib5n1PsI4ENg7qs2SGw38Oo3WjVNRvpf1z1r9mrU0s0AoLsepdxzLmFNuEUVAqZxTxYuUvoxAw0dW7eu/caFrHnAqzmAgQ34gQ2EgQ3EgQ2m0cQxkaGalmK011RJcxEu+SltOZpMvsAljApOBI2bANR6csfrtultftg/6ukg9fPgQX/8UTdYygExNcXlFUt2mvs/toh84p4247GVA2AeGsA8EjDsOXDOLyzQMqbRJqWBww3Zjn9Nu6gxIymqWFkFIwfJW9/wzH224/GjDFZLhJBBiIL9gctGu4K5tIu27HvI4O7qiR61ternVnjLLPdA1KFSbpTTq+7YaeN+1mKDhJS0SBlTrsCziQugJSqCfgmMZc8pts0DarwOgLwS//NUrVtJ2/uwo0XX5GsQXjNkKMAYZyJAeyJAZyJAdyJBjGAdgNcM7VAnvAMYB0KrYaVy4ybT7oP5Ahu5ABtjqDx03fHTO7Id8y3dXbT+UOXwod/pQ7hwfyFKaNzg4GF/8FE3BMhoaGvCRGAqX1QQ/zHO72IfOux+47KWwD+KKttAy4BZywEtqTa5JRKVNMjAOEjBm6XHcdY8Ywtx23ifIjW8xkFo4b36n2+HHG4ofb7jM4MpQ4tUC++ICh2IwGClgWEahbf4j21jqd/3UPgUls5DZtHc8s3tcT5dbplVY7S6H7EFUWKbVG8MVQeDv1VObiWvMs22lNdo1rBntvKo5ljGXAIun/S4AZKCxS9GAtv9nxIhVqORygUWMYQWgeIvmQIYUAYtxjHyr9DJX+acitTfFGm+KtX4s1Po+T+tljvbLHJ2Xebo/FOi9KTb85Yrx76WmH8otPpRbfii3+lBuS2D/odzh+SU3bm6W2y6vX7/G1z9DU7AMIGNjY3wkQtzzF/QRvYif2cU/AK7BZM+I854HLnBLCUBgDNJivVFqsUA2iDWskxEVjG2FTXKD7aZux1071FzxG1AUoWjzeEMRwSXEcOLlC/aXCuwvgS2D4kLbnCc2MdSv+4HzTkY2LTOhttZmf7nFrnLLXXhruavKfEuTvm+7gfcDy8l2DOgZFWUgbui4F6nChDSEpxBu0s+xjDkF/OJovwiEhTBs8MOzcCE6Vz9HXKWUuP8Gb3AgPM1Jv8A8PivzU6Hc79cUPpSu/lCq/KFU5UOp2odS9Q+lmh9KtT6UaX8oXfOhTPdDqf6HMoMPZYYfyow/lJn+80Hhv//rD8A/+vZ9KLP+UAbCDbv1wSyBRnp6Or74GZqaZbS0tOAjMRTISP55ar/+oUvaQxdoGXALga7BgBmD7FV34/1m4Sk9v0rrpCoQbgDLILcMRHmW4zdgaNG8BbdizzNcAzKSBIILaBlUimyzn9qwZJfcdz2MMlkYnOt3PVFpsbMCYAm2uyqgX2xu0vdpM/R+OpUGNv2jBs8kjXoeZVouVzUcAfGSuE0cp1jGnPLEmmUBKAnZgVFbSJz2ks+CEFmNBRS/kBJY0ZEOhiGkWUi/uyzzoVSWQO5DqfyHMsUPpUofygjjKFP7UKb+oUzzQxlhHGWEcZRB4/hH/y58VQP9659/NAQQEYf1SAFLqXA1NTW8D0NTswwgCwtmjSmkTlNf9LM9tU986LzrASSNAkv0AXHZYyQIC65tUXWssk6shCRRgPaxVZ1e4hzIR9nsccpFgkLAw5Sii9AyiihcKrLJfsZqGcPuJxl5tIgzTbb7Ky22V5hvh1uLHZXmWxsNfIFfTLXhFZk9OT7pijg0m/U+wxxooNpco0lYpYl+BU7i8rSXfOLEymnPJxZQkGQlrSHN4v0V5BQ0gHEAQMShRAQdIOJQhUFHmQYMOmDEoQO8458P8vElTei/npR9KDP7UGbxocxST3s1+rqQXrx4gXciNGXLGJ2o5iHFTNB8ap/00HknMA6CNMYWRh9oC6KPhy57Wm1Sli+ArVJsViqXWMYA4yBIYmxB9JEkv1QYHZ+q635pT1IKnmy4+CTl4pMNhcAyLtoXFtgXXmS4RpFt1gvbKPLzPLOPp6XS3nE/VW2xvcpiW6X5NrRtMAxqNZhafIGgpkKNQ7YajvROcbq9zzFsZ5cQmozSOxGrPpvEk1QF3W9Yl2Bs9NECZjF8YtWbSzSbGA1hHGWEcZSt/lAGIg5VIujQIIIO7T8aPfEljfTP3z5UmH8oNwXGcWQjbliJdO7cObwPoSlbBpCrK32ugbo0FY5QnHZAgHc4AftAWxh9UGOQ66ZRi+bBcFFk0dLNqvZVVglVVusrrdZXWaNt4hn9QHRwqpQEJZ4kX3iScoHYFhQ5Fl60Kyyww1sAiDLITwJ44pDKSGPB2bS9ToeqzLcAKuF2a61xNDifRiY9f0Gj3cCbel6OBfrwnByTueaWCXOlDI1iLcclC3H3nBhpDdoLP0GCpFVpfuFjKg/8YuS09O/XyJHIZEARB5rmQEEHnub41+ub+JIm9I/ORDTNMZDrgL4oJB8fH7wHoelYxv379/HBGDJaybIs95l9wiOnHY+cgWuALXQNtGVEH4i0HD1mMQ5p3hWbVO2gcVhD10AEyxnhpynaZub7NOUC4qrLxYt2COgaAGAZ1Dsmj50202p5tNikVZlvZrCpSd97wHT6XTxvmY45nUFFfgUszJW6+jOetP8suMfupgkJ2egEyEP00x2h9Jv5awqK0ZZ4uulLA794ck56lCNMEoZxgIgDGAcIOkrV/tG/BV/ShP55PwtNcwDjEOBnTiYqKiriPQhNxzKAYmNj8fEYytG0pf7Yz+xiHzltfei0/ZHTdrDFcQct+nDemaGF18wjCXMvCZEzzDMKIYIOiMKo4cmibxa0hx99mpz/NPlChVs+wzIwwDJGKGms4N2ZtTyAd7gdq7HYBJwCUWsMExPInafBJMcm9uIK4JMHKU7QcZ7DDHliHU775mnsVcB1LoFsV8o8+PT6aV/TdVmxeAktvvA3Fh/cu+xl9rT9goo8Oc3xRx1Lsc//+qH1Qxmc5vhwVd3NjqUYBTW3dZqW8erVK1p6q8SyUUWQ7KIfO2565LQN4gy9A24hMABhsHOXKpu1W0p8K6MVzC6bR543DMQPUaQjKvc0Oe9ZSn69F7CMAgKGZdjmDFMaEYBw5p7bEZzJ4n50yCWj2jy12nwjQWqTvs84izsnSc/Y42eSeGL6jVOV6yMwznQG4oiS6cJvvkEnkvgSvk/nNtY9q5BgaZizT5vv3O62cnDrf35/+H9+uCI86vqfLmWEcZQr//u/PuBL+t///te7R2ia40O+YGowSxHv/v5+vNO0LQPowAFm30CkTXJsmkc8cUh55LgVRBzElrAPp20P4RZFH5DNq63xIUZJb4W0Or84/g9F203XPU3ObfPNZVgGptA29zZlwTgY/jDTWNwybjnurzZLIdhQaxwFTi9yz2kzYsV+OQCV46vhL0BNRIL2Wg6zzpD5eGMTRKaq9dKFzD94oZIqf3q4kaFiupzIeKbeT5UREi6KFQR+8WTf//wj8799yPyPD1dF6Bf/jJD71/tH+HoGlvH3n+A0xyXxPzLnn9vIstS7srIS7zQTywBSVVXFhyREruyi8cw+4TGwDAhwCqZxUNh+VscLzYZOUgu/md8QvL83OGeUZeRR09Ieuuym5rD02qfdICwDbBsN/MHQl9xzJkz4l61aF46/hJZyGv/NOc9sIlonMSddoGEvvYQ5XBfkXbpZXhe4P+1oH4FsTVstUdi24itwBVHWd8Y6a/du/E/gF/fT/hfwC8z5/5jNWKNU9l9//wFfzEAf3ny4IvZH5v/74/xXVfuYjVqBcnNz8T4ztIyuri58SIbcJZVo3wjGLuaxw0ZGrMHYMoHGUWUaIbZoGT7QJKQqJDUcBSzjAgu2+c02u8n3feCcxkhggTksnTY7bpgmV5sm15isByfWc/LjzYzJzGhILYN5/fc/vcHzlwfbZBO2gAHjovkL0OkEtIybZ72M1sdZJNpm7BMjp032Q4X5Zgy/sNFRqUpZAcwC8e7Uf2daBuS/fyjk/fuoi396sAxM3j/8I/M/Cf5vy0GWrFZqR/gZWQZQXFwcPipDF8coJPPcNuqZQ9Jjxy0g4qACLOMxtAy4vWmbYrACLu+dpALVLYrs82muUW19iHzTh867UBUPRJvVlhtmycA16ozh2k1yt5kz4a0TL3FYQrWKs2Z87oGBxqjvfyyuajkZMfIGSZmJSs9RCbXLa5ySZLV1VjK7YQGRN0fUV63KipIlzQLwPP1/sPoF5kPu//v7VVHa9T9V/qgxxpcxoX89Lwd+9Efmf/xx/n/1ZDBb/AHt27cP7zRzy3j//r2YGEsBPtElfOOMDJ/bxTxx2PDIcfMjxy10gH0Q2xhZ5rT2hErWCrtoB1yDyXXrU+TbPXTaDut34Coe6S0WG2+YJgIaDINnPvFJBZym46/ROLbaDHzak5zVXB+FSd78JslUszYcZRw8CxbaSMgnyGieUrOoNfSgvcUkqTP0PK5qESGlZiC6ins+m6E3muw0U1M6FylHNQvA0Pb//PtZulmwcGH+30vEaEYwef45SFkz/u9//9ftA+SRew+zfBuzaRlAN27cwAdmKFhCmfbF0XhuF/vEcQMRcWzBWwiIONB2a6G+n/CofFa2WjBv/j6D3YV2+SSXbM6RaSZgvEOk3uMSHi2WqTWm6wGN+r6oEt8sMlZaFAk4BZNX69NexWEumPBuK1vOqloZCLApQEsKjCO0RCXtVymFyKhvkNXZrWR4RMUsU8P6ko5jtqbtUVXzNCXDRBkt71UqxuIyksvZlJijacHfvpYWFClJkqCZBeL7w+xDDDq5/9+HS8s+XJOgOcL4/L1E4l+vWvE1TOifNZbkMVsO4lxKpFm2DKDRxUEnU9TkGYg4HGHE8RgGHWALYg20hdy0SXIRVcaHG1f83MvPWZ4utCUswza/yOb8HZsN6C2eOG6i1u9otkipMVkPmJV7JaMZfxRtKrLKTk6F9hIOc8TgpGc0aNzQdU+TN7ASklrKzbKMYNaFbo7EOGvTnAIxvON/fThH8YVJ8CH7f/+R/80fRUs+XBb8e4k4xSBW/R0YytWVHy6v+FC45I+C+X/k/N8/8r7597/+iS9goP/68Ef2/yUPVbWXJc1kNucySCkrs1ze8nwraL/CsQBDlacOKcA1HjtB72BEHJhiQ39pXn580LEls0w61yYTRRlFttmdNjvRwcGRKUm0+4Bl1Jom1BpHg8CV/ACzS++ocnIkm2TWgFEbbX8Oc8foGkhT5YyqVbCY8mpGV91pS11dPSgo6MCBA7m5uagmJrn44mCwGs0sEJMNMabLP64p4EuX0H/dO0N99tIOnMiHVFRUhPebRcu4c+cOPjxDUVPL/4l+ap/4yHETXP0FtyjuwNt4divHaVIVUC60zSPIrbE+iA77zH49yqBF9TtazJNqTOLrjcKH56wt+POxz9RSbVgp/zanI/nH4ql1+GRuuE6Gch3X7XJ68nyC6GSjKiEhIS0t7ejRo5mZmYWFheXl5U1NTX19fffu3Xvx4sUvv/yCrxDiGnF0dAQvodbjuxi3imYWiN/PMC/gOeH8//jXr8/xJ/vXP/9xRYr67J4YlvnElpYWvOcsWgbQiRMn8DswBMZ4tN/i+MC7KvYJT1DQQRgHSa1p+ITjFAMRPeAXwDWuWJ/GB7SLBZZB1u9os0iuNYlrMAqhFgqfdZ7bRIzlGprLhMa6o8RhLhg/62QaaAmyTHbQUrbGUX5+PnrJV1ywewhpGRXJwjSzADzaA9duzTn5C//ZFffP3g3/uCxOeyrQTR99WiRqC7XZtAwgd3eWnBER3qVDltNZLgW9wy7uCbwpu5HwDky7ZayPBK5Yw1Y2EpbANS7ZnLtngyuAEhm0uHhHh2VyrXFso0Hgs9me+xwN2xHKNjm9jezWyHKYO6Z692R88tRt8alGKCYmBp/64+rixYv4BazrOwG1qfw0vwD8ePQ/aNfwR8ZAh/nnefHixfjHIDTLlvHu3Ts5OZa5VhsRadqvcKqASAGML544pjxx3PSEiD6AcQSv0uGZx1yEQ5WdpHWRTVanzXb08sdOW8jc2W4raBnNhtNPXZ0S1K4FiBrdtbZCX1Qzns+CgVG/iJkgsgSvvwIKDw/Hp/7Yevz4MQ8PrA4DRMs3A5QnsYkyfv2WtnzrY7NCgDmBqK2tjX8SQrNsGUBgwEbLWDuobEL7Fc6AKOggdglP7RMHbeKiZHQFF9KbGABZiJtWWB9FL3nisIHMoO2z3lBrHN1h/PFmE+5bhtCG0/7iYyyQ5TCXzKJrOBJ5yUgRERH4vB9bbm5uaGeyRLiBvErEGnMjRVXw7+wYNssxaBfwR+b7U+jzYgUFBeGfhNDsWwZQQUEBfjdC3PPnj98ecobUGHg6ibGENkAGK9eM2KwHzz6ziycTZwfsNtYZR3ebBFJfPtc8sY7oM2bGxtnqNpWTaLHLYdaZ9m1XGusZZQGBwsLC8Ek/hl69eoV3ZaSQrNMxSVOGROpagv9u8tKiWQZKQvsTqdjNcof11KlT+IchNCeWAQTGePgNCUkuWT48rUmNyZMoo4XfjCGTlcoP4TrUKJTD8shp+x1oGZG9H9cyECNWoZ2M7LUsDRvasxw+Dg8sQ9sMZ3oPJU2eWUti/I7HQOQ9AdQD1U59DfILwA4NC/CIkYoizTJeHprb26sTsj2CpVhGd3c3/mEIzZVlAOnrs0y6mgjNeer3KTV6KWNVQdE+M/8njqnAMh47bRtx2AIs46bZn3ab87FVGIiQb+hzMk3+NJ7ZRIxT728y7JZn3oA8e/YsPt3HkJUVbKQChyTEzMVWTQvSMgB68srgwfqUxVTL+OnYnzz3aWuqgX46JFpz1jm0jB9++IGWfpIgA1slzSkV+u78i1hmNwR4l5QaeJEZtPXGkQN/nmVw+ESAQZ/hxLWR2LJNTg+fW1xc7e3t+HRnp/fv36PdFjLukuxRNaNaRgwxNklyZxmb/HziT5775ONjJpRLS0vjH4ahObQMoL6+PvzODGWz1vubC0BYoSOwEr8fQ4c0nFD2Srt57KDZ3A6ROHwu3LcMmYZxREnC2llIv/76Kz7X2am6uhrsQ124lahrTbUMgLywOP/CxbUpfKRl/Pan3i65e2wF+tGQnJ2d8Q/D0NxaBhC5ggVp8YKFczoVShIrzRJcAQVIaT9y3NJjkXDbYjZzWDl87gDjmLBIEhUrxly7vT1L7czR2rFjB9iNDDEAOrKKNMtI1DYHj5upryYt4+9TTC2ZXU6nMGMooNFr1ebcMoCSk5Px+xNaybu019SP9mubCy5o2/NR6rUBKS4VLDMKvmPOsQwOdJ5YRwyZB/UY+Y7VP4mEjwePfPPy8vApPoZsbW2/ooQYiBh9K5prOGrogccDrPHw5M+1DHtz+m0EMFbAPw+hj2EZQLRVoQp8gndntVzFWABvMuTHPW9I7VAwpO3GgQPJc5sIEHfcNgvsNYI9eml+kanKrFNLzR9hKzk5OXSjhAoYhmzWYnGNParm2jKK4CmU1fonWsbAUfrFAiQuLv7TTz/hH+mjWcbvv/9uYMBy58ZYWJL2q5o7jqma0+ZEXaWVP45ncfjcAdHHiFUoMJF7FsEgDAmQwfkKrq6u+OQeW2A3ajlPEhlB0W0a5lTX2KluriAiAZ5yNtR4/e3/R7uSPxrutrrgM68UpmfuUmc0PpJlAL1580ZeXh5/BEJrxRVov565Y8gy2EeKJatNnI+/XN+NthsHDuMwbBm8aMFCdP40NzfjM3sMgRMe7IaWewJWcC8JNbaRFRJD/10tJrWd1TW2qZqi9aCrFWS6DrPklX4cWtNh8b7V8gqndO3DLOmtQoaGhtDP9fEsA+jx48crVrDMx/qLf9TWHiW6LquXC+H3JrRJYxYXs3P4wtkiD/8IAzk4OOBzemz98MMPXwHLYEQWrjqGYFxTaextqqyBHpHkF9qowzJC2a1iGmaG096C3A2en15Eu6rnjgcnlgmugGXEdlq5AssA+JixtAqJjIxEP9dHtQyg27dvCwqyFB3wEvt4sQYiQ8VUhHcpfnsuLskVnIR0DhPTZ+ZPhhiDg4P4hB5b33///VeUJLS1a4zJCZF4Mwfy8WA9i/1q5oc0LI9o25xcYweu1QwTZ1s9uFqMm5s73s/o4YlltMt71rl/fJm4GFyXEG7liPwCcNLQadlS5mWioIBL8nxsywAaGRkREWEZLLmKyNJ+PXPNQ6vQVDkdHkpBeltppe6Pch+Hw2eKjTi+txocHIxP5YkEdiatAQQXpGUADll78S3k+RpWz+Ay0tTOMHIir1XEPgtXBwNj4g25XG20r6ep0q7z2aJ6r7KQIIz9Pc2saJ/BmnAuJH5+fvRD/QmWAQRGKLSFoQ7CM82RnwYD5oGBEiwTHCmccr4c2HGCkYsgLCz8448/4vN4IklISJDdSUSX8lMtA3DNJVSQMU4X4BfYae1Gu2IBx42cYq2cpCVhEwM+vmU+Tmtyt+g8OcVLu+ynx7OT88EB0QfwGuUXAFdjWBafFPqh/hzLAHr27Jm0tDT+LITMBMT/lHZVHSa+rmLMeVkJAcF83akVE+PwZdNs5D35WU+qTExMqOu4sq19qJYxYhk66BLtZMLsfmqjZ5hhhqcSaOyydHU3sRAXxTdBxcVE3Gx0DsTqNaXL0oxgMjw4sXxDkOGSJbClo6S4OFu3AqgoKKK3AwKjJPRD/WmWAfTixQslJdgQiJTy0hU3zT9S/RsaNwzWmlAK0pvIKJXoutD24fAX5IF1mPwKYXRWpKWl4XN3cgoICKD2ZI4xc6BZBnqLc15h/MuZ3R4DrOyPGzLnFGgcNnNNsHIC5rJsGTMTRFNVPtbXcH+s/tkNOsU7VOv3y93MEHlyggcZxJOTPOC/dfvlM9br+zjpykrjHiUC/PyRFvTjk2yxgqVqSampqaEf6s+0DKDXr19rarLUMl7Jzdtg6EX+wj4ytYYewRLKyxmLOEwl5CbTXYHDF4yphCw6GSwtLfFZO2mdPXuWzGEFqEjIsLUMwB2XaB9LZolAPj6+KGunI8b0CQ4ah02ctlm5hls62OsbKcszC/+MLzAastU32mTDPpxBpFi70ApleXl5oR/qT7YMoPfv35uasrSZXvLNgmIdJ/Lb/FM4p2FtKYZ7zJmvUuQUxflr4iyNp7rAKTp+Bhpb/fjjj+C11OLAOVbMscn9UYsJaz2jjbRZ+iebaOlssmU/amDLUSOnA6bOaZauG61c4q2dQi3tEfFWTtus3fabuRwbO35BgN2o4xFSJ06cQD/Un28ZQL///ruNjQ3+aAxlqJjRvtCPDxgl7VDUVxGGAxYLOeVqTkfVvwydpr5qQnigamVlBU5RfLJOUebm5tSxia+BBWkZ9yzYZ1Rf8I6Ul8GhDdISXl5HA+Ot1q4nDCaIO2ZCqrWLmhJLPS6qvvvuO/QTfRKWgRQZGYk/HUMRUmq0b/PPos7QM1pGU2jxEl1BsaOq5rRnOXxh5Gvb8y7kRifhZBaGj6Nvv/0WHIRcA8q/cHG5Cc5bGTIfr27LVa8oNzNL9BmoMtLQjrd2PmDqQrvgp80eS1c/cxsB/vHaQZqYmOCf55OyDKCMjAz8GRkyExC/Z/UJJYNcXeMctUpNeYlAoMTqWoNptvbl8CmzVYXZZ0tFRQWfmtPVb7/9tmLFCmpymo++ObKM22YTF5S85Rq91c2X7R//RYsWaSmreJtaJVu7gBEHzQjG4ZCp804r11grJydDU3IOVV1pdbpn0F2nKPCmZ7zD0YOkyFEJ0KdlGUDl5eVkBXckBd7lXaa+1O/xU6DW0CNFVidIQvmgssn9P+PeMIdZB4xDraRZbuGByzI8PNzS0hL8mTUwMCAXEy1ZsmTVqlX6+vo+Pj67d+++fv36u3fv8Bk8SgcPHvyKi2sxI9AAXLCEMxq3TKZwc7DHLXqPR4Chpjb6AGwlwM8vt0paV03dSld/rbFFkKUdOZcB4ghT7TUyUqvwrgxJS0rGO3k0e8ZS32vHWj/8NKGlS5e+f/8e/zCfoGUA3bx5U5Rx/xmJb/7CHC076k/16TBsGXxB277J6E+7y8NhVsjRtOVfwlwfPQ25uLhcvnwZn8QUjQ401KXkgGX0GE3nD+FD+8ir3tHJLl4mOrrkMo0pCfignrrGFrd1DZ7RtIMDhlxi+Ci3b4FSU1PxT0LoU7QMoJ9++snamiUrBshXXOlPWevF4cvmoVVokDJeBDlzGRoaDg8P4/OYIRDYwxQ1SqARbebQbuBN+yTTo8s95pp39AnPkE1u63yt7Mx19Y21dBDg384m5n7W9tEObmCAc8E7stM9hvZyGoG2sGssVS9fvsQ/BqFP1DKQ0tLS8KdmSGLRkjI9TsY6h1mj2chbQYheKXbm2rVrFz6JGXJycqKV28mw9npqHU77PH8u132i8Q/A0OiuC5+0ZQDV1tYKCNDnchNltWg/KgcO0yBTgx7JzqKcnZ2pUwDv3r2TkpSkBhqAbLdPqHL1XZcYsZUsIx0JCQlaRwKgT90ygF68eGFpSb/bJLOYj7Ogm8NMKNVzxSfTRJIXFPGVVT+sbFqs4wS4qO2QrmySJKvtpahprKC8aCFOPxktW1tbfBIT6u/v5+VeRLUM7r99ne095x3FJwk12wUJ/MHGH52iz8AykMiuU1R5iylMr7M8Bw7GoixZkaMlzS+YoWJ2x2Lirje5WnbmcuwXQe3duxefwYSqq6uBTVBd42uur9I9/oT2fTQ2u6/Dn5ih+Ph4/KFZ9dlYBtDIyIiWFr388fL53CfULGg/PwcOE4JPIHbS4BeZRsOdSn13E0UVfAiKbt++jc9gQsWXLlGXkHNzzQP7hNu7EM1A6cf8OGR4haCPSsrGxgZ/3FH6nCwDafScKJDe8pV/YjIbh8+OB1ah+NRhla3QqmszG/Cm6dFTH0xNTfG5y1Budg51UmMB19dgN3kZ2Tp2dz3nmtF+oaSkNE7x9M/PMoCAbWto0DsbAUVIqXFWVXGYJIsWMGuySS7j3yS35tYsFV44vsYOH5eh0X0Yy65dX75wMeka84jyXEChds4DrhPcB5017KIi7ekTOsAvfvjhB/wp2emztAykXbt24Z+SIsGFPCc54xQOkyBARl1yuUCgtOpcpE1HrcaFhZHIWrtU9XR1iwkIAb8A4xRsGIS4ubkTnT377Ob2j1/z2mizNSyN1oE0NTVfv36NP98Y+owtA2hwcHD07AaQ5jJOBWAOfyYPrUKlBJi17AUFBfEpy6pXr155eXh+xQgxaHLU0S8ynf08ppuuMQE2Dvg9KLK3tx9n2Tupz9sykPLz82mVRJE0lglmadrQvi8OHOaCY6rmoZIq1HExOPfwiUjo8ePH+HwdpfLycmFhXPhrtKTFxHc7ed+1Z77XtGn2iImwdwVRDD40Q4sXLz5//jz+NBPpS7AMpAMHDvDx8eHvgKLVSwQ4xsHhI2C5QkJHYCX1kVWMCoBAJSUl+Exlp/fv3ycmJuJd2ema9/RnRnvcYo57hmirqOJjscrDw+PFixf4c0xCX45lAL158yYpKYlWgAxJevGyPUqGnBQVDjNh2DLYTmiVmYA42z9CgxaBPPMX7FYxJh9JkWWW2MrOzsan6dgaGhqiVahDCrZzJo9J0ugZk+4ZtMl1XYZncJFP1DVvSIl3dJZX+FHP4F1r/WKd3E101lB7kdBkbW1Na9E8GX1RloH0008/bdmyZcmSJfiLoYhn3jchkiptJuto3z4HDpMEDD3iFKAR6AtJAAehPZsko72Ch5f8b62hBzrxgE6dOoVP0IkUFBSEX0NISFDwrjNLiHHXJWb0zOWUZGlp2dLSgt9vivoCLQPp3bt3+/btG52fgmQpKPnJZtNz+PQJkVYDZ5HvKhXa43ct4RqHIm3c1GLAPJA43aCKi4vxqTmRoqNZcsPO+NBT166vi93k5kMSaue8YozzfLTs7e07OzvxO01LX6xlIP32229Hjx5lOzkKxL+AO0xSlVPRk8NUuWUewD1/AfeCBbTHAeZiMqFymujfF7WZNyZ6enrwSTmRqDcB+ZYtI488Pjk+EWQjpdGysrI6fvz4kydP8HvMQF+4ZZACI0la33mqFHn5tyro9Zn5034NHDiMhb0EPJ0aR5VW2q4AhwyJMlpn1a3FlzLn4ydz/xKJ2n5US0WVdvxxaPaIxS8jBEYf6enp0x6AjKW/imUgXb161ciIWdlxtDSXCW2R12vnTHZwmIgjKrD5YMWobhUnGa0YqQLDAXwKTkLi4uL4ZVxcctJTazya4OKJX8nFlZ+fj484q/prWQbS0NBQTEwMLy/sLjeWVi8RSJLRvsEZs3AYgyqDteA8Gd0ZK0+LvlocaPw7rDTRbpp0RG+jvcU4NHvF4ZdxcUVFReEjzqr+ipaB9Ntvv509e5bt4lGqRLl5QyRVCjlrSTmwAkJRcHpc16VbRgYRfVBlYGCAz7nJ6dChQ/iVhAx19R6kHnrpHPfAMbpxbfQFn8j9HoGb3Hx61rLU+CXBL+PiAgE1PuKs6q9rGaTu3r27ZcsWKSkp/E2PoUXzvrEXXnVazbL70yt3zuHjU6zjBM6Kq2voKyaoLcGRJj/xifTrr7+uGHsik1SsE5sQ+KEj826LmJgYPuKsimMZTLW1tYFYjjr5NJb4F3BbCUpukltzeY3TA87ysL8kvvIwl5qWylSp747OEFK0EjuT1I0bN0Yv66bJSt+Q+taI6+ti8NPgLOXnx4ebVXEsg42Gh4dPnjzp6urKdgX6aCkvEfAQld+qoFek7TiZIk4cPndyNHHL5d1KzOsWRKCivCzl/KOjo/EpNXW1traamdHHOEDkioGlS5c+8kwk3x1hb2SCngVSVFTEx5pVcSxjAvX19R0+fNjR0RH8hvCvYiIJLFhkJCAWIaUGTCRDxTRL06ZE16Xe0JNzE/dT4J5VSKme61FV8/UyWm7iCvqiq8SW8YPfmtCSZVorJe2lFENWqR1UNmkz9qG9ENFq7LNOkqVmn4fkai8JJUEe+mz6jh078Dk0Az179uzKlSvHjh1LT08vKyt7/fp1Q0MDfgMuri2hsLkZyUnvMPwEIScnJ3yUWRXHMqYgZB/gN7Fy5YzK2C+eNx/Yiig3r8xiPuWlK3T4hPWWr+QwGYwFxGyEpFxFZNeJKYZIqiTIaCbJao8FMIVACWUnERng4Mp8gqJL+LjnM8vqTKiVy5ZbSCl4yKhGyGiAo0VKqakwGjuPLwcHh4cPH+KTZg4kKCiI34mLy3+tZ2Fg3DXvqBBbZ/wQQ6dPn8YvmFVxLGOaevXqVXV1NRiprl27Vlp6gsKzHP1FFBgYODg4iE+RORPb4lI0rVixYnQ/gVkRxzJmR+/evWtubs7Ozt6+fbufn5+xsfFYq9Q5+sIEftebNm26cePGHF2ibKWtPV5zViAwisG7zrY4ljG3un//fn19/eXLlzMzMw8ePLh169aYmJh169bZ2dkZGRlpaWkpKyvLyMgAfxEQEFi8eDH+hTO0aNEiXl5ePj4+8KywsLCoqKi4uPiqVatkZWUVFRXBa9XU1DQ1NXV0dPT09Ew4mntZWlp6e3vHxsbu27evqakJ/5o/ul6+fMm2/C3S8ePH8X5zII5lcMTRZykQ1NDS5IGEhIRAvIP3mBtxLIMjjj5j9fX1paampqSkgDC2sbFx8slv0xbHMjjiiKMpiGMZHHHE0aT173///0TwIP1c29HuAAAAAElFTkSuQmCC;fontSize=14;" parent="1" vertex="1">
                    <mxGeometry x="1213" y="244" width="80" height="80" as="geometry"/>
                </mxCell>
                <mxCell id="30" value="" style="endArrow=classic;html=1;fontSize=16;strokeWidth=2;" parent="1" edge="1">
                    <mxGeometry width="50" height="50" relative="1" as="geometry">
                        <mxPoint x="880" y="253" as="sourcePoint"/>
                        <mxPoint x="953" y="253" as="targetPoint"/>
                    </mxGeometry>
                </mxCell>
                <mxCell id="35" value="" style="endArrow=classic;html=1;fontSize=16;strokeWidth=2;" parent="1" edge="1">
                    <mxGeometry width="50" height="50" relative="1" as="geometry">
                        <mxPoint x="1199" y="337.5" as="sourcePoint"/>
                        <mxPoint x="1115" y="337" as="targetPoint"/>
                    </mxGeometry>
                </mxCell>
                <mxCell id="39" value="" style="endArrow=classic;html=1;fontSize=16;strokeWidth=2;" parent="1" edge="1">
                    <mxGeometry width="50" height="50" relative="1" as="geometry">
                        <mxPoint x="1116" y="254" as="sourcePoint"/>
                        <mxPoint x="1201" y="254" as="targetPoint"/>
                    </mxGeometry>
                </mxCell>
            </root>
        </mxGraphModel>
    </diagram>
</mxfile>